<svg width="27" height="20" viewBox="0 0 27 20" fill="none" xmlns="http://www.w3.org/2000/svg">
<path d="M5.88427 12.0515C2.70768 12.89 0.707658 14.9206 0.0590799 17.7727C-0.129643 18.5887 0.162805 18.8269 0.526002 18.9396C3.02276 19.7147 7.64388 19.99 9.45742 19.99C11.271 19.99 15.8921 19.7147 18.3888 18.9396C18.752 18.8269 19.0445 18.5887 18.8558 17.7727C18.2072 14.9207 16.2068 12.89 13.0306 12.0515L9.74699 14.8239C9.57977 14.9651 9.33623 14.9651 9.16901 14.8239L5.88427 12.0515Z" fill="#7B2C82"/>
<path fill-rule="evenodd" clip-rule="evenodd" d="M9.45717 0C6.69453 0 4.47046 2.26569 4.47046 5.07996V5.42341C4.47046 8.23766 6.69453 10.5034 9.45717 10.5034C12.2198 10.5034 14.4439 8.23766 14.4439 5.42341V5.07996C14.4439 2.26569 12.2198 0 9.45717 0Z" fill="#7B2C82"/>
<path fill-rule="evenodd" clip-rule="evenodd" d="M21.9434 3.62607C21.3135 3.62601 20.6897 3.75102 20.1077 3.99396C19.5257 4.2369 18.9969 4.59301 18.5515 5.04196C18.106 5.49091 17.7527 6.0239 17.5116 6.61051C17.2705 7.19712 17.1464 7.82585 17.1464 8.4608C17.1467 8.57895 17.1514 8.69705 17.1603 8.81486L15.7454 10.0178V10.7595H17.7284C18.1393 11.5257 18.7478 12.1658 19.4897 12.6122C20.2316 13.0586 21.0793 13.2947 21.9434 13.2955C23.2154 13.2955 24.4354 12.7861 25.3349 11.8794C26.2343 10.9727 26.7397 9.74303 26.7397 8.4608C26.7397 7.17857 26.2343 5.94887 25.3349 5.04219C24.4354 4.13552 23.2154 3.62613 21.9434 3.62607ZM21.9434 5.65585C22.3902 5.65585 22.7523 6.02088 22.7523 6.47125C22.7523 6.92163 22.3902 7.28665 21.9434 7.28665C21.4966 7.28665 21.1345 6.92163 21.1345 6.47125C21.1345 6.02088 21.4966 5.65585 21.9434 5.65585ZM20.7732 7.81908H22.1649C22.4122 7.81908 22.6113 8.01978 22.6113 8.26902V10.1526H23.1129V11.2657H20.7732V10.1526H21.2748V8.67471L20.7732 8.4494V7.81908Z" fill="#7B2C82"/>
</svg>
