<svg width="40" height="40" viewBox="0 0 40 40" fill="none" xmlns="http://www.w3.org/2000/svg">
<path d="M5.51567 18.1836C5.70507 18.1981 5.79086 18.3585 5.90451 18.4721C7.73768 20.3038 9.56862 22.137 11.3973 23.9716C11.5143 24.0831 11.6436 24.1945 11.7684 24.3003C12.0157 24.5692 12.2634 24.8381 12.5115 25.107C12.498 25.2308 12.5323 25.3552 12.6073 25.4546C13.2705 26.5668 13.6097 27.8422 13.5867 29.1369C13.5789 30.4739 13.5867 31.8053 13.5867 33.139H5.82652C5.77861 32.1296 5.93793 31.1134 5.68502 30.1096C5.54733 29.5844 5.2856 29.0999 4.92182 28.6968C3.55028 27.1147 2.16315 25.5471 0.793841 23.9627C0.278457 23.3666 -0.00128929 22.6026 0.00724206 21.8146C-0.00241402 16.9992 -0.00241402 12.1845 0.00724206 7.37061C0.00724206 5.97123 1.16374 5.05761 2.44949 5.41414C3.2528 5.63698 3.82548 6.48931 3.82659 7.48314C3.82659 10.1571 3.83774 12.8311 3.81991 15.4973C3.81337 15.7817 3.86616 16.0643 3.97493 16.3271C4.0837 16.5899 4.24606 16.8272 4.45164 17.0237C4.81597 17.397 5.25941 17.7011 5.51009 18.1791L5.22598 18.1446C4.79703 18.0922 4.36028 18.0332 3.95807 18.2281C2.69906 18.8309 2.4506 20.3573 3.44109 21.3478C4.9519 22.8653 6.46456 24.3813 7.97908 25.8958C8.13618 26.054 8.2877 26.2178 8.45371 26.3649C8.53526 26.4518 8.64217 26.5108 8.75921 26.5334C8.87625 26.556 8.99744 26.5411 9.1055 26.4908C9.55117 26.2913 9.61579 25.8702 9.23363 25.488C7.85207 24.0975 6.4627 22.7126 5.08003 21.3233C4.39705 20.6358 4.33131 19.7089 4.83157 18.8833C5.01318 18.5836 5.38754 18.5111 5.51567 18.1836Z" fill="#FBC4AF"/>
<path d="M28.2456 24.2981C28.357 24.1978 28.4796 24.1042 28.5865 23.9962C30.8973 21.6846 33.2077 19.3728 35.5177 17.0605C35.7399 16.8524 35.9151 16.5992 36.0313 16.3179C36.1476 16.0366 36.2023 15.7336 36.1918 15.4294C36.1695 12.7843 36.1807 10.1382 36.1851 7.49318C36.1851 6.87482 36.36 6.32442 36.8235 5.87764C37.4809 5.24479 38.2942 5.15343 39.0975 5.65481C39.1232 5.91552 39.1733 6.17735 39.1733 6.43472C39.1733 11.1777 39.1867 15.9218 39.1733 20.6659C39.1733 21.5862 38.8981 22.4352 38.2307 23.1271C37.7984 23.5728 37.404 24.0586 36.9962 24.5287C36.1183 25.5426 35.2626 26.5788 34.3579 27.5682C33.7243 28.2394 33.3664 29.1243 33.3551 30.0472C33.3329 31.0767 33.3551 32.1062 33.3551 33.1356L32.9373 33.1668C32.6031 33.1668 32.2744 33.1546 31.9435 33.1535L25.6028 33.139C25.6028 32.1942 25.6295 31.2449 25.595 30.3046C25.5259 28.4172 26.0641 26.747 27.2796 25.2997C27.6267 24.991 27.9496 24.6561 28.2456 24.2981ZM35.3194 18.1201C35.1673 18.1111 35.0147 18.1111 34.8626 18.1201C34.7735 18.1312 34.6587 18.1557 34.6342 18.2682C34.6097 18.3808 34.7122 18.3975 34.7735 18.4499C35.7005 19.2231 35.7606 20.4821 34.9083 21.3389C33.91 22.3439 32.9095 23.3466 31.9067 24.3471C31.5045 24.7505 31.099 25.1504 30.7023 25.5582C30.4605 25.8056 30.4427 26.0796 30.6845 26.3381C30.7777 26.4539 30.9126 26.5287 31.0602 26.5464C31.2078 26.5641 31.3565 26.5233 31.4744 26.4328C31.5421 26.3854 31.6048 26.3313 31.6616 26.2713C33.3206 24.6101 34.9896 22.9589 36.6308 21.2809C37.1723 20.7239 37.3505 20.0375 37.0497 19.2855C36.7277 18.4811 36.1684 18.11 35.3194 18.1201Z" fill="#FBC4AF"/>
<path d="M11.3404 15.1787C11.0563 14.9558 10.7433 14.7787 10.526 14.4801C9.74608 13.406 9.96334 12 11.0385 11.2022C11.1143 11.1454 11.1845 11.0797 11.2613 11.0184C11.6056 10.8479 12.0413 10.9515 12.3443 10.6674C12.7298 10.8546 13.1031 11.0774 13.5042 11.2245C13.9231 11.3738 14.0289 11.6078 14.02 12.0479C13.9933 13.3915 15.0406 14.499 16.4299 14.6728C17.6488 14.8255 18.9769 13.9308 19.2343 12.6919C19.3457 12.1693 19.641 12.186 20.0031 12.186C20.3652 12.186 20.6716 12.1559 20.783 12.6807C21.0404 13.9263 22.3528 14.8199 23.5795 14.674C24.9466 14.5113 26.024 13.4149 25.9939 12.1002C25.9817 11.571 26.1521 11.3203 26.6167 11.181C26.6947 11.1588 26.7705 11.1253 26.8474 11.0975C26.8474 11.5153 26.8474 11.932 26.8474 12.3498C26.8474 13.3604 26.9087 14.3776 26.6624 15.3714C26.2112 17.2009 25.2508 18.7139 23.7322 19.8281C23.2185 20.2047 22.7071 20.6425 22.0219 20.7116C22.0219 20.5311 22.0152 20.3506 22.013 20.1701C22.0074 19.583 21.73 19.2944 21.1562 19.291C20.3941 19.2866 19.6328 19.2866 18.8722 19.291C18.2951 19.291 18.0154 19.5807 18.0121 20.1668C18.0121 20.5144 18.0121 20.8609 18.0121 21.2074C16.9558 21.1216 16.0199 20.6971 15.1219 20.1712C14.9994 20.0999 14.8924 20.0186 14.742 20.0431C14.1158 19.5362 13.7036 18.8565 13.2568 18.2036C12.8847 17.3446 12.5014 16.4878 12.4201 15.5374C12.41 15.4182 12.3432 15.3547 12.2318 15.367C11.9098 15.3937 11.6424 15.2021 11.3404 15.1787ZM20.0242 16.8677C19.5674 16.8677 19.1106 16.8599 18.6538 16.8677C18.4845 16.8677 18.2271 16.7719 18.1614 16.9357C18.0756 17.153 18.2728 17.3435 18.4377 17.4928C18.5077 17.5601 18.5864 17.6178 18.6716 17.6644C19.074 17.8838 19.5241 18.001 19.9823 18.0059C20.4406 18.0107 20.893 17.903 21.3 17.6922C21.5156 17.5912 21.6924 17.4226 21.8036 17.212C21.915 17.0026 21.9295 16.8521 21.6019 16.8644C21.0771 16.8822 20.5501 16.8677 20.0242 16.8677ZM12.3365 13.103C12.3365 12.7966 12.3365 12.4902 12.3365 12.1838C12.3365 11.9431 12.2251 11.8997 12.0201 11.961C11.5677 12.1002 11.1756 12.5916 11.1689 13.0406C11.1639 13.2991 11.2433 13.5522 11.3951 13.7615C11.5469 13.9708 11.7628 14.1249 12.0101 14.2004C12.2496 14.2795 12.3443 14.2428 12.3387 13.9776C12.3265 13.6879 12.3343 13.3949 12.3343 13.103H12.3365Z" fill="#FCD2C1"/>
<path d="M5.82544 33.1434H13.5856H14.419L14.4335 33.1691C14.507 33.2638 14.585 33.2459 14.6652 33.178L14.8334 33.1691C14.8334 34.5172 14.839 35.8664 14.8334 37.2146C14.8334 37.9822 14.4736 38.3287 13.7081 38.3287H3.75867C3.75867 36.8993 3.7453 35.4698 3.75087 34.0392C3.75087 33.5111 4.08512 33.2025 4.66337 33.1713C5.0511 33.1501 5.43883 33.1523 5.82544 33.1434Z" fill="#5B85C3"/>
<path d="M12.3399 10.673C12.0335 10.9571 11.6012 10.8535 11.257 11.024C11.257 9.38168 11.2079 7.73718 11.2648 6.09713C11.3182 4.5529 11.8753 3.18248 12.995 2.07835L13.0853 1.98364C13.1087 1.95913 13.1332 1.93462 13.1566 1.90899C13.2534 1.91787 13.3506 1.89687 13.4351 1.84883C14.5493 1.15359 15.7749 0.896219 17.0718 0.906246C18.4723 0.916274 19.8728 0.912931 21.2733 0.906246C22.2279 0.886866 23.1769 1.05846 24.0643 1.41096C25.1754 1.87325 26.1298 2.64588 26.8132 3.63641C27.4967 4.62694 27.8803 5.79341 27.9181 6.99626C27.9505 8.27421 27.9237 9.55884 27.9181 10.8312H27.6764L27.663 10.663V9.92985C27.663 9.17891 27.702 8.42685 27.663 7.67813C27.5917 6.35228 27.1059 5.20357 26.0887 4.31224L26.0129 4.23982L25.9205 4.15515C25.0852 3.37212 23.9868 2.93048 22.842 2.91731C21.3178 2.87052 19.7914 2.89837 18.2662 2.9084C17.7013 2.9084 17.1386 2.8928 16.5693 2.97525C14.6708 3.2549 12.9694 4.78576 12.4981 6.66201C12.2263 7.74609 12.3789 8.84243 12.3422 9.93431L12.3399 10.673Z" fill="#E6E6E7"/>
<path d="M3.7597 38.3276H13.7092C14.4746 38.3276 14.8323 37.9789 14.8345 37.2135C14.8345 35.8653 14.8345 34.5161 14.8345 33.168L15.1554 33.1379C15.2111 33.1434 15.2668 33.1512 15.3203 33.1524C16.2328 33.1668 16.5013 33.4409 16.5035 34.3467C16.5035 35.9534 16.508 37.5604 16.5169 39.1677C16.4656 39.5577 16.2294 39.8084 15.8985 39.9866L7.19021 40C6.35681 40 5.51896 40 4.69002 40C4.06832 39.9944 3.7519 39.6658 3.74744 39.0429C3.7441 38.8001 3.75524 38.5639 3.7597 38.3276Z" fill="#4B79BC"/>
<path d="M34.5942 33.227C34.8995 33.227 35.2048 33.227 35.51 33.227C35.9312 33.227 36.251 33.4866 36.2543 33.8955C36.2677 35.6893 36.2677 37.4831 36.2543 39.2769C36.2543 39.6969 35.8632 39.9855 35.3808 39.99C34.6009 39.9966 33.8265 39.99 33.0489 39.99H24.6781C24.4843 39.99 24.2893 39.9799 24.0954 39.9744C23.7757 39.7894 23.5272 39.5521 23.4927 39.1555L23.5205 38.3221H33.5123C34.2722 38.3221 34.5931 37.9945 34.5931 37.2291C34.5931 35.8965 34.5935 34.5625 34.5942 33.227Z" fill="#3C68B2"/>
<path d="M33.3453 33.1345C33.3453 32.105 33.3264 31.0756 33.3453 30.0461C33.3566 29.1232 33.7145 28.2382 34.3481 27.5671C35.2528 26.5777 36.1085 25.5415 36.9864 24.5276C37.3942 24.0574 37.7886 23.5728 38.2209 23.126C38.8894 22.4341 39.1602 21.5851 39.1635 20.6648C39.1813 15.9207 39.1724 11.1766 39.1635 6.4336C39.1635 6.17289 39.1134 5.91106 39.0877 5.65369C39.7217 5.98794 39.9869 6.56953 39.9891 7.23246C40.0047 12.1452 40.0047 17.0575 39.9891 21.9695C39.9891 22.804 39.6292 23.5293 39.081 24.1544C37.7901 25.6258 36.4973 27.0958 35.2026 28.5642C34.5832 29.2661 34.1999 30.0505 34.2311 31.0154C34.2534 31.724 34.2311 32.4337 34.2311 33.1434L34.0863 33.1657H33.4244L33.3453 33.1345Z" fill="#F2AE97"/>
<path d="M33.3453 33.1345L33.4289 33.1613C33.5311 33.2145 33.6446 33.2423 33.7598 33.2423C33.875 33.2423 33.9885 33.2145 34.0907 33.1613L34.2355 33.139C34.3469 33.1869 34.4996 33.0944 34.5943 33.2259C34.5943 34.5629 34.5943 35.898 34.5943 37.2313C34.5943 37.9967 34.2734 38.3232 33.5135 38.3243H23.5217V38.2385C23.671 37.8207 23.5685 37.3884 23.5841 36.9628C23.593 36.7299 23.6677 36.6375 23.9028 36.6486C24.1936 36.662 24.4855 36.6486 24.7774 36.6486C27.1543 36.6486 29.5312 36.6486 31.908 36.6486C32.5899 36.6486 32.9308 36.2999 32.932 35.6258C32.932 34.8035 32.932 33.982 32.932 33.1613L33.3453 33.1345Z" fill="#4B79BC"/>
<path d="M27.9227 10.8334C27.9227 9.55549 27.9505 8.27086 27.9227 6.99848C27.8863 5.79429 27.5034 4.62614 26.8198 3.63409C26.1363 2.64205 25.1811 1.86822 24.0688 1.40539C23.1814 1.05289 22.2325 0.88129 21.2778 0.90067C19.8773 0.907355 18.4768 0.910697 17.0763 0.90067C15.7783 0.890642 14.5527 1.14801 13.4397 1.84325C13.3552 1.8913 13.2579 1.91229 13.1611 1.90342C14.0412 0.922763 15.2543 0.304108 16.5649 0.16755C18.6818 -0.0753372 20.8143 -0.0140581 22.9279 0.100701C25.886 0.26114 28.228 2.48278 28.687 5.42863C28.736 5.75721 28.7591 6.08914 28.7561 6.42135C28.7561 7.95221 28.7561 9.48344 28.7561 11.015C28.4653 10.9994 28.2235 10.7844 27.9227 10.8334Z" fill="#D2D4D4"/>
<path d="M27.6675 10.6663L27.6808 10.8345L27.6742 11.9298V14.2639C27.6742 14.3887 27.682 14.5146 27.6742 14.6383C27.653 14.9224 27.8067 14.9926 28.034 14.9113C28.7638 14.6517 29.2875 14.1848 29.5159 13.4161C29.693 12.8166 29.5593 12.2406 29.429 11.6613C30.269 12.5927 30.083 14.1659 29.0412 14.9202C28.9187 15.0082 28.795 15.0951 28.6713 15.182L27.9248 15.3603C27.7087 15.3291 27.575 15.3848 27.5906 15.6422C27.5853 15.7521 27.5685 15.8611 27.5405 15.9675C27.4079 16.7552 27.0658 17.4694 26.7605 18.1958C26.7318 18.2116 26.708 18.235 26.6918 18.2636C26.6757 18.2921 26.6679 18.3246 26.6692 18.3574C25.9706 19.4192 25.1461 20.3629 24.0464 21.0247C23.6231 21.2798 23.1685 21.4837 22.7273 21.711C22.3741 21.7767 22.0588 21.9929 21.6777 21.955C21.8571 21.5561 22.0332 21.155 22.012 20.7027C22.6972 20.6336 23.2086 20.1957 23.7222 19.8192C25.2408 18.705 26.2012 17.1942 26.6525 15.3625C26.8987 14.3687 26.8363 13.3514 26.8374 12.3409C26.8374 11.9231 26.8374 11.5064 26.8374 11.0886L27.6675 10.6663Z" fill="#FBC4AF"/>
<path d="M15.1543 33.1334L14.8334 33.1635L14.6652 33.1724L14.4334 33.1635L14.4189 33.1379C14.4189 32.1117 14.4189 31.0856 14.4189 30.0594C14.4314 29.6717 14.4198 29.2837 14.3844 28.8974C14.2083 27.5715 13.6524 26.4184 12.8357 25.3788C12.8591 25.156 12.9928 25.0056 13.1443 24.8619L14.0869 23.9616C14.9905 23.3811 15.9108 22.8374 16.9637 22.5667C17.0573 22.5433 17.1508 22.5221 17.2444 22.4998L17.3169 22.5433L17.3001 23.9494C16.0099 24.0062 15.1676 24.8797 15.1643 26.1777C15.1576 28.4944 15.1543 30.813 15.1543 33.1334Z" fill="#9B5525"/>
<path d="M27.2697 25.2986C26.0541 26.747 25.516 28.4183 25.585 30.3034C25.6196 31.2471 25.5917 32.1975 25.5928 33.1379H24.9087C24.9087 30.8449 24.9299 28.5509 24.9087 26.2579C24.8998 25.4401 24.6391 24.7048 23.8436 24.2858C23.5111 24.0592 23.1161 23.9424 22.7138 23.9516C22.7086 23.4814 22.7034 23.012 22.6982 22.5433L22.7696 22.5032C23.7618 22.7356 24.7019 23.1513 25.5416 23.7288C25.6675 23.8123 25.799 23.887 25.9271 23.965C26.3739 24.4062 26.8619 24.8117 27.2697 25.2986Z" fill="#9B5525"/>
<path d="M23.4927 39.161C23.5272 39.5577 23.7757 39.795 24.0955 39.98H15.8975C16.2317 39.8017 16.4646 39.551 16.5158 39.161H23.4927Z" fill="#EA7924"/>
<path d="M22.7662 22.501L22.6949 22.5411C22.3127 22.7516 21.8303 22.6737 21.4838 23.009C20.676 23.7889 19.6265 23.8903 18.7519 23.1806C18.3062 22.8218 17.8182 22.6982 17.3146 22.5433L17.2422 22.4998C17.2563 22.2369 17.2704 21.974 17.2845 21.711C17.6366 21.7801 17.953 21.9929 18.3318 21.9561C19.3624 23.1115 20.6471 23.1104 21.6743 21.9561C22.052 21.994 22.3707 21.7779 22.7239 21.7121L22.7662 22.501Z" fill="#F2AE97"/>
<path d="M27.674 11.9298L27.6807 10.8346H27.9225C28.2233 10.7844 28.4651 11.0006 28.7514 11.0162C28.9375 11.2724 29.3197 11.3226 29.4266 11.6624C29.557 12.2417 29.6907 12.8178 29.5135 13.4172C29.2851 14.186 28.7615 14.6528 28.0317 14.9124C27.8089 14.9937 27.6507 14.9235 27.6718 14.6394C27.6818 14.5157 27.6718 14.3898 27.6718 14.2651C28.435 14.1536 28.8718 13.6768 28.8383 13.0049C28.8127 12.4434 28.2991 11.971 27.674 11.9298Z" fill="#FCD2C1"/>
<path d="M11.3406 15.1787C11.6425 15.2021 11.9099 15.3937 12.2263 15.3592C12.3378 15.3469 12.4046 15.4104 12.4146 15.5296C12.496 16.48 12.8792 17.3368 13.2514 18.1958C12.3723 17.7903 11.989 16.9702 11.5991 16.1703C11.4468 15.8606 11.3589 15.5233 11.3406 15.1787Z" fill="#E6E6E7"/>
<path d="M18.3317 21.9561C17.9551 21.9929 17.6365 21.7801 17.2844 21.711C16.5045 21.3422 15.7368 20.9656 15.0828 20.3952C14.958 20.2838 14.8511 20.1556 14.7363 20.0353C14.8867 20.0108 14.9937 20.0921 15.1163 20.1634C16.0143 20.6893 16.9502 21.1138 18.0064 21.1996C18.1145 21.4525 18.2237 21.7032 18.3317 21.9561Z" fill="#FBC4AF"/>
<path d="M14.0847 23.9616L13.1421 24.8619C12.9905 25.0056 12.8568 25.1582 12.8335 25.3788L12.5115 25.107C12.2626 24.8381 12.0149 24.5692 11.7683 24.3003C12.5144 24.0518 13.2986 23.9371 14.0847 23.9616Z" fill="#8F4621"/>
<path d="M27.2697 25.2986C26.862 24.8117 26.3784 24.4073 25.9238 23.9616C26.7205 23.9193 27.4837 24.073 28.2457 24.2959C27.9466 24.6547 27.6203 24.9899 27.2697 25.2986Z" fill="#8F4621"/>
<path d="M27.9227 15.3603L28.6691 15.182C28.5488 16.2093 28.0597 17.0516 27.36 17.7858C27.3177 17.8304 27.2374 17.8382 27.175 17.8627C27.2007 17.7862 27.232 17.7117 27.2686 17.6399C27.6954 16.939 27.8658 16.1669 27.9227 15.3603Z" fill="#D2D4D4"/>
<path d="M27.9226 15.3603C27.8657 16.1669 27.6997 16.939 27.2686 17.6399C27.2319 17.7117 27.2007 17.7862 27.175 17.8627C27.1137 17.8905 27.117 17.9195 27.175 17.9485C27.1416 18.029 27.0834 18.0967 27.0088 18.1418C26.9343 18.1869 26.8473 18.207 26.7605 18.1992C27.0624 17.4716 27.4045 16.7574 27.5404 15.9708C27.5684 15.8644 27.5852 15.7554 27.5905 15.6455C27.5727 15.3848 27.7064 15.3291 27.9226 15.3603Z" fill="#E6E6E7"/>
<path d="M26.6681 18.3607C26.6668 18.328 26.6746 18.2955 26.6908 18.2669C26.7069 18.2384 26.7307 18.2149 26.7595 18.1992C26.7625 18.2322 26.7554 18.2654 26.7391 18.2943C26.7228 18.3231 26.698 18.3463 26.6681 18.3607Z" fill="#E6E6E7"/>
<path d="M27.175 17.9462C27.1182 17.9173 27.1148 17.8883 27.175 17.8605C27.1761 17.8894 27.1761 17.9151 27.175 17.9462Z" fill="#D2D4D4"/>
<path d="M13.0854 1.98253L12.9951 2.07723L13.0854 1.98253Z" fill="#D2D4D4"/>
<path d="M5.51571 18.1836C5.38758 18.5111 5.01322 18.5813 4.83162 18.8833C4.33136 19.7089 4.39709 20.6358 5.08007 21.3233C6.46275 22.7126 7.85211 24.0976 9.23367 25.488C9.61583 25.8735 9.55344 26.2947 9.10555 26.4908C8.99749 26.5411 8.8763 26.556 8.75926 26.5334C8.64222 26.5108 8.5353 26.4518 8.45376 26.3649C8.28775 26.2178 8.13622 26.054 7.97913 25.8958C6.46609 24.3806 4.95343 22.8645 3.44114 21.3478C2.45065 20.354 2.69911 18.8276 3.95811 18.2281C4.36033 18.0354 4.79708 18.0922 5.22603 18.1446L5.51014 18.1791L5.51571 18.1836Z" fill="#F2AE97"/>
<path d="M12.5114 25.107L12.8323 25.38C13.649 26.4195 14.2049 27.5726 14.381 28.8985C14.4164 29.2848 14.4279 29.6729 14.4155 30.0606C14.4222 31.0867 14.4155 32.1128 14.4155 33.139H13.5821C13.5821 31.802 13.5754 30.4706 13.5821 29.1369C13.6071 27.8428 13.2703 26.5675 12.6094 25.4546C12.5336 25.3555 12.4985 25.2311 12.5114 25.107Z" fill="#F2AE97"/>
<path d="M24.9088 33.139H25.5929L31.9336 33.1535C32.2679 33.1535 32.5966 33.1624 32.9275 33.1668C32.9275 33.9883 32.9275 34.8098 32.9275 35.6314C32.9275 36.3054 32.5854 36.6542 31.9036 36.6542C29.5267 36.6586 27.1498 36.6586 24.7729 36.6542C24.481 36.6542 24.1891 36.6642 23.8983 36.6542C23.6632 36.643 23.5886 36.7355 23.5796 36.9684C23.564 37.394 23.6665 37.8263 23.5172 38.2441C23.5172 36.9138 23.5172 35.5823 23.5061 34.252C23.5061 33.8164 23.6353 33.4721 24.0064 33.2315L24.9088 33.139ZM27.2152 34.4838H29.8368C30.0028 34.4838 30.1432 34.4548 30.171 34.2543C30.1888 34.1717 30.1746 34.0855 30.1314 34.013C30.0883 33.9404 30.0192 33.8869 29.9382 33.8632C29.8064 33.8201 29.6673 33.8042 29.5293 33.8164H26.6581C26.033 33.8164 25.4091 33.8164 24.7852 33.8164C24.5066 33.8164 24.198 33.8888 24.2036 34.2075C24.2091 34.5261 24.5244 34.4838 24.7607 34.4827L27.2152 34.4838ZM31.2529 33.8364C31.0713 33.8977 30.8618 33.9668 30.8607 34.1963C30.8607 34.3824 31.0167 34.4815 31.2072 34.4815C31.3977 34.4815 31.5738 34.3924 31.5738 34.1751C31.5738 33.9935 31.4479 33.8743 31.2529 33.8364Z" fill="#5B85C3"/>
<path d="M35.3195 18.1201C36.1685 18.11 36.7278 18.481 37.0487 19.2832C37.3495 20.0353 37.1712 20.725 36.6298 21.2787C34.9886 22.9566 33.3196 24.6078 31.6617 26.2713C31.6054 26.3324 31.543 26.3876 31.4756 26.4362C31.3577 26.5266 31.209 26.5674 31.0614 26.5497C30.9138 26.532 30.7789 26.4573 30.6857 26.3415C30.4439 26.0874 30.4629 25.8134 30.7035 25.5616C31.1002 25.1538 31.5057 24.7538 31.9079 24.3505C32.9084 23.3477 33.909 22.345 34.9095 21.3422C35.7618 20.4854 35.7017 19.2253 34.7747 18.4532C34.7134 18.4008 34.6131 18.373 34.6354 18.2716C34.6577 18.1702 34.7747 18.1345 34.8638 18.1234C35.0155 18.1134 35.1677 18.1123 35.3195 18.1201Z" fill="#F2AE97"/>
<path d="M27.6673 10.6663L26.8395 11.0919C26.7626 11.1198 26.6868 11.1532 26.6089 11.1755C26.1443 11.3092 25.9738 11.5654 25.986 12.0947C26.0161 13.4094 24.9387 14.5057 23.5717 14.6684C22.3461 14.8143 21.0325 13.9208 20.7751 12.6751C20.6637 12.1504 20.3584 12.1805 19.9952 12.1805C19.632 12.1805 19.3356 12.1637 19.2264 12.6863C18.969 13.9252 17.641 14.8199 16.4221 14.6673C15.0327 14.4946 13.9854 13.386 14.0121 12.0423C14.021 11.6022 13.9152 11.3738 13.4963 11.2189C13.0952 11.0774 12.7219 10.8546 12.3364 10.6618C12.3364 10.4178 12.3364 10.1738 12.3364 9.92984C12.8601 10.1772 13.3904 10.4134 13.9063 10.6786C14.157 10.8078 14.2717 10.7967 14.4467 10.5293C14.6943 10.1456 15.037 9.83256 15.4414 9.62051C15.8458 9.40845 16.2982 9.30461 16.7546 9.31908C17.211 9.33354 17.6559 9.46582 18.0461 9.70306C18.4363 9.9403 18.7584 10.2744 18.9813 10.673C19.1339 10.9448 19.1596 11.376 19.3757 11.4997C19.6242 11.6412 20.0242 11.4852 20.3495 11.5253C20.6269 11.5587 20.7138 11.4886 20.7952 11.22C20.9291 10.7727 21.1783 10.3684 21.5177 10.0477C21.8571 9.727 22.2749 9.50116 22.7292 9.39282C23.1834 9.28448 23.6581 9.29745 24.1058 9.43042C24.5534 9.56339 24.9582 9.8117 25.2797 10.1504C25.4791 10.3588 25.5192 10.79 25.8523 10.7655C26.1342 10.7454 26.4016 10.5248 26.6746 10.39C26.7342 10.356 26.7918 10.3188 26.8473 10.2786L27.6651 9.92984L27.6673 10.6663ZM16.6583 10.0045C16.1319 10.0057 15.6274 10.215 15.2549 10.5867C14.8823 10.9585 14.6718 11.4625 14.6695 11.9888C14.6476 12.2639 14.6827 12.5405 14.7726 12.8013C14.8625 13.0622 15.0053 13.3017 15.192 13.5049C15.3787 13.708 15.6053 13.8705 15.8577 13.9821C16.11 14.0937 16.3827 14.152 16.6586 14.1533C16.9345 14.1547 17.2078 14.0992 17.4612 13.9901C17.7147 13.8811 17.9429 13.7209 18.1316 13.5196C18.3204 13.3183 18.4655 13.0803 18.5581 12.8203C18.6506 12.5604 18.6885 12.2841 18.6693 12.0089C18.6708 11.7447 18.6198 11.4828 18.5191 11.2385C18.4185 10.9942 18.2703 10.7724 18.0832 10.5859C17.8961 10.3994 17.6737 10.2519 17.4291 10.1521C17.1845 10.0523 16.9225 10.0021 16.6583 10.0045ZM25.3387 11.9866C25.298 11.4821 25.0681 11.0116 24.6951 10.6696C24.3221 10.3275 23.8335 10.1392 23.3274 10.1423C22.8213 10.1454 22.3351 10.3397 21.9663 10.6863C21.5975 11.0329 21.3733 11.5062 21.3389 12.0111C21.3201 12.2864 21.3583 12.5626 21.4511 12.8224C21.5439 13.0822 21.6893 13.3201 21.8783 13.5211C22.0673 13.7222 22.2957 13.8821 22.5492 13.9909C22.8028 14.0996 23.0761 14.1549 23.352 14.1532C23.6279 14.1515 23.9005 14.0929 24.1527 13.981C24.4049 13.8692 24.6314 13.7065 24.8178 13.5031C25.0043 13.2998 25.1468 13.0601 25.2364 12.7992C25.3261 12.5382 25.3609 12.2616 25.3387 11.9866Z" fill="#713618"/>
<path d="M18.3319 21.9561C18.2205 21.7043 18.1147 21.4525 18.0066 21.1996C18.0066 20.8531 18.0066 20.5066 18.0066 20.159C18.0066 19.5729 18.2896 19.2855 18.8667 19.2832C19.6281 19.2832 20.3894 19.2832 21.1508 19.2832C21.7246 19.2832 22.002 19.5752 22.0076 20.1623C22.0076 20.3428 22.0131 20.5233 22.0165 20.7038C22.0343 21.1562 21.8583 21.5573 21.6822 21.9561C20.6472 23.1104 19.3625 23.1115 18.3319 21.9561Z" fill="#E6E6E7"/>
<path d="M20.0244 16.8677C20.5502 16.8677 21.0761 16.8822 21.602 16.8677C21.9296 16.8555 21.9095 17.0059 21.8037 17.2154C21.6919 17.4247 21.5152 17.592 21.3001 17.6922C20.8939 17.9044 20.4418 18.0136 19.9836 18.0103C19.5253 18.007 19.0749 17.8913 18.6718 17.6733C18.5865 17.6267 18.5079 17.569 18.4378 17.5017C18.2718 17.3491 18.0757 17.1585 18.1615 16.9446C18.2272 16.7808 18.4846 16.8811 18.6539 16.8766C19.1107 16.8599 19.5675 16.8677 20.0244 16.8677Z" fill="#9B5525"/>
<path d="M12.3344 13.103C12.3344 13.3949 12.3266 13.6879 12.3344 13.9798C12.3433 14.245 12.2453 14.2818 12.0057 14.2027C11.7585 14.1271 11.5426 13.973 11.3908 13.7637C11.239 13.5544 11.1595 13.3013 11.1645 13.0428C11.1712 12.5972 11.5634 12.1025 12.0158 11.9632C12.2241 11.8997 12.3377 11.9431 12.3322 12.186C12.3299 12.4902 12.3344 12.7966 12.3344 13.103Z" fill="#F2AE97"/>
<path d="M14.4333 33.1635L14.6651 33.1724C14.5849 33.2404 14.5035 33.2582 14.4333 33.1635Z" fill="#4B79BC"/>
<path d="M26.8496 10.2819C26.7942 10.3222 26.7365 10.3594 26.6769 10.3933C26.404 10.5282 26.1366 10.7488 25.8547 10.7688C25.5204 10.7933 25.4814 10.3621 25.282 10.1538C24.9606 9.81504 24.5558 9.56674 24.1081 9.43377C23.6605 9.30079 23.1857 9.28783 22.7315 9.39617C22.2773 9.50451 21.8595 9.73034 21.5201 10.051C21.1806 10.3717 20.9314 10.776 20.7975 11.2234C20.7139 11.4919 20.627 11.5576 20.3518 11.5287C20.0265 11.4886 19.6265 11.6401 19.3781 11.503C19.1619 11.3794 19.1363 10.946 18.9836 10.6763C18.7601 10.279 18.4377 9.94617 18.0478 9.71003C17.6578 9.47388 17.2135 9.34243 16.7579 9.32842C16.3022 9.31442 15.8506 9.41832 15.4469 9.63007C15.0432 9.84182 14.701 10.1542 14.4535 10.5371C14.2785 10.8045 14.1638 10.8156 13.9131 10.6864C13.3972 10.4212 12.8669 10.185 12.3432 9.93764C12.38 8.84576 12.2318 7.74943 12.4992 6.66535C12.9716 4.78798 14.673 3.25712 16.5748 2.98081C17.1442 2.89836 17.7068 2.91842 18.2717 2.91396C19.797 2.90393 21.3234 2.87608 22.8476 2.92287C23.9913 2.93599 25.0887 3.37678 25.9238 4.15848C25.9539 4.18745 25.9851 4.2153 26.0162 4.24316L26.092 4.31558C26.0838 4.41235 26.1047 4.50937 26.1522 4.59412C26.6318 5.40782 26.8713 6.34069 26.843 7.28482C26.834 8.28423 26.8463 9.28363 26.8496 10.2819ZM20.0532 8.16501C21.1674 8.16501 22.2786 8.16501 23.3868 8.16501C23.6208 8.16501 23.8381 8.17615 23.8414 7.83856C23.8447 7.50097 23.6475 7.49428 23.4024 7.49428C21.1659 7.49428 18.9294 7.49428 16.6929 7.49428C16.4177 7.49428 16.1637 7.52994 16.176 7.87533C16.1871 8.20066 16.4601 8.16278 16.6773 8.16278C17.8034 8.17021 18.9291 8.17281 20.0544 8.17058L20.0532 8.16501ZM20.0454 5.82527C18.9313 5.82527 17.8227 5.82527 16.7108 5.82527C16.4434 5.82527 16.176 5.83864 16.1771 6.18848C16.1782 6.53833 16.4768 6.49154 16.7007 6.49265C18.9235 6.49265 21.1462 6.49265 23.369 6.49265C23.6186 6.49265 23.8503 6.50491 23.8414 6.14169C23.8336 5.79964 23.6074 5.82304 23.379 5.82304L20.0454 5.82527Z" fill="#FCD2C1"/>
<path d="M26.8497 10.2819C26.8497 9.27918 26.8341 8.28423 26.843 7.28483C26.8714 6.3407 26.6319 5.40782 26.1522 4.59412C26.1048 4.50938 26.0838 4.41236 26.0921 4.31558C27.1071 5.20691 27.5951 6.35562 27.6664 7.68147C27.7065 8.43019 27.6664 9.18225 27.6664 9.93319L26.8497 10.2819Z" fill="#FBC4AF"/>
<path d="M26.0163 4.24317C25.9851 4.21532 25.9539 4.18746 25.9238 4.15849C25.9539 4.18746 25.9851 4.21086 26.0163 4.24317Z" fill="#FBC4AF"/>
<path d="M24.0084 33.2292C23.6374 33.4688 23.5037 33.8142 23.5082 34.2498C23.5216 35.5801 23.5171 36.9115 23.5193 38.2418V38.3276C23.5089 38.6062 23.4996 38.884 23.4915 39.161H16.5146C16.5101 37.5529 16.5057 35.9459 16.5012 34.34C16.5012 33.4342 16.2305 33.1601 15.318 33.1457C15.2634 33.1457 15.2066 33.1368 15.1531 33.1312C15.1531 30.8115 15.1557 28.4914 15.1609 26.171C15.1609 24.8775 16.0065 24.004 17.2967 23.9427C17.3176 24.1358 17.3247 24.3301 17.3179 24.5243C17.2756 24.9421 17.4293 25.2708 17.6889 25.5861C18.2805 26.288 18.8465 27.0111 19.427 27.7219C19.788 28.1676 20.2181 28.1676 20.5802 27.7219C20.9679 27.2495 21.3244 26.747 21.7367 26.298C22.355 25.6295 22.8631 24.9265 22.7093 23.9427C23.1116 23.9334 23.5066 24.0503 23.8391 24.2769C23.966 24.7306 24.0234 25.2009 24.0096 25.6719C24.0018 28.1977 24.0084 30.7134 24.0084 33.2292Z" fill="#F7931F"/>
<path d="M34.0905 33.1624C33.9883 33.2156 33.8748 33.2434 33.7596 33.2434C33.6444 33.2434 33.5309 33.2156 33.4287 33.1624H34.0905Z" fill="#5B85C3"/>
<path d="M27.6741 11.9298C28.2991 11.971 28.8127 12.4434 28.8406 13.0038C28.874 13.6723 28.4373 14.1481 27.6741 14.264V11.9298Z" fill="#F2AE97"/>
<path d="M22.7105 23.9494C22.8642 24.9332 22.3562 25.6317 21.7378 26.3047C21.3256 26.7504 20.969 27.2562 20.5813 27.7286C20.2192 28.1743 19.7891 28.1743 19.4281 27.7286C18.8477 27.0178 18.2817 26.2947 17.69 25.5928C17.4249 25.2774 17.2767 24.9488 17.319 24.531C17.3258 24.3368 17.3188 24.1425 17.2979 23.9494L17.3146 22.5433C17.8182 22.6982 18.3084 22.8218 18.7518 23.1806C19.6265 23.8903 20.676 23.79 21.4838 23.009C21.8303 22.6748 22.3127 22.7516 22.6949 22.5411C22.7008 23.0098 22.706 23.4792 22.7105 23.9494Z" fill="#FBC4AF"/>
<path d="M24.0086 33.2292C24.0086 30.7135 24.0019 28.1977 24.0086 25.6819C24.0225 25.211 23.965 24.7407 23.8381 24.287C24.6336 24.7059 24.8944 25.4412 24.9033 26.259C24.9278 28.552 24.9088 30.846 24.9033 33.139L24.0086 33.2292Z" fill="#EA7924"/>
<path d="M27.2151 34.4838H24.7639C24.5277 34.4838 24.2124 34.5183 24.2069 34.2086C24.2013 33.8988 24.5099 33.8197 24.7885 33.8175C25.4124 33.8119 26.0363 33.8175 26.6614 33.8175H29.5326C29.6706 33.8053 29.8097 33.8212 29.9415 33.8643C30.0225 33.888 30.0915 33.9415 30.1347 34.0141C30.1779 34.0866 30.1921 34.1728 30.1743 34.2554C30.1465 34.4559 30.0061 34.4849 29.8401 34.4849L27.2151 34.4838Z" fill="#6D96CE"/>
<path d="M31.2528 33.8365C31.4478 33.8743 31.5737 33.9936 31.5737 34.1707C31.5737 34.388 31.4132 34.4782 31.2071 34.4771C31.001 34.476 30.8606 34.3779 30.8606 34.1919C30.8617 33.9668 31.0712 33.8977 31.2528 33.8365Z" fill="#6D96CE"/>
<path d="M16.6584 10.0045C16.9227 10.0021 17.1848 10.0523 17.4295 10.1522C17.6742 10.2521 17.8966 10.3996 18.0838 10.5863C18.2709 10.7729 18.4191 10.9949 18.5196 11.2393C18.6202 11.4837 18.6711 11.7457 18.6695 12.01C18.6886 12.2852 18.6507 12.5615 18.5582 12.8214C18.4657 13.0814 18.3205 13.3195 18.1318 13.5207C17.9431 13.722 17.7148 13.8822 17.4614 13.9912C17.2079 14.1003 16.9347 14.1558 16.6588 14.1545C16.3829 14.1531 16.1102 14.0948 15.8578 13.9832C15.6055 13.8716 15.3789 13.7092 15.1922 13.506C15.0055 13.3028 14.8627 13.0633 14.7728 12.8025C14.6829 12.5416 14.6478 12.265 14.6696 11.9899C14.6717 11.4634 14.882 10.9591 15.2546 10.5871C15.6272 10.2151 16.1319 10.0057 16.6584 10.0045ZM17.5364 12.01C17.5424 11.7781 17.4563 11.5532 17.2971 11.3845C17.1378 11.2158 16.9182 11.117 16.6863 11.1097C16.4552 11.1114 16.2339 11.2027 16.0688 11.3644C15.9038 11.5261 15.808 11.7456 15.8016 11.9766C15.7959 12.0926 15.8135 12.2086 15.8534 12.3177C15.8934 12.4268 15.9548 12.5268 16.0341 12.6118C16.1133 12.6967 16.2089 12.7648 16.315 12.8122C16.4211 12.8595 16.5356 12.885 16.6518 12.8873C16.768 12.8895 16.8834 12.8684 16.9912 12.8252C17.0991 12.782 17.1972 12.7176 17.2797 12.6358C17.3622 12.5539 17.4274 12.4564 17.4715 12.3489C17.5156 12.2414 17.5377 12.1262 17.5364 12.01Z" fill="#F8CEBD"/>
<path d="M25.3387 11.9855C25.3609 12.2605 25.3261 12.5371 25.2365 12.7981C25.1468 13.059 25.0043 13.2987 24.8178 13.502C24.6314 13.7054 24.4049 13.8681 24.1527 13.9799C23.9005 14.0918 23.6279 14.1504 23.352 14.1521C23.0761 14.1538 22.8028 14.0985 22.5493 13.9897C22.2957 13.881 22.0673 13.7211 21.8783 13.52C21.6894 13.319 21.5439 13.0811 21.4511 12.8213C21.3583 12.5614 21.3201 12.2853 21.3389 12.01C21.3734 11.505 21.5975 11.0318 21.9663 10.6852C22.3351 10.3386 22.8213 10.1443 23.3274 10.1412C23.8335 10.138 24.3221 10.3264 24.6951 10.6685C25.0682 11.0105 25.2981 11.481 25.3387 11.9855ZM24.2056 12.0033C24.2108 11.8869 24.1924 11.7707 24.1517 11.6615C24.111 11.5524 24.0487 11.4526 23.9685 11.368C23.8884 11.2834 23.7921 11.2159 23.6853 11.1693C23.5785 11.1228 23.4634 11.0982 23.3469 11.0971C23.2304 11.096 23.1149 11.1183 23.0072 11.1628C22.8995 11.2073 22.8019 11.273 22.7202 11.356C22.6384 11.439 22.5742 11.5376 22.5314 11.6459C22.4886 11.7543 22.468 11.8701 22.4709 11.9866C22.4657 12.103 22.4841 12.2192 22.5248 12.3284C22.5655 12.4375 22.6278 12.5373 22.708 12.6219C22.7881 12.7065 22.8844 12.774 22.9912 12.8206C23.098 12.8671 23.2131 12.8917 23.3296 12.8928C23.4461 12.8939 23.5616 12.8716 23.6693 12.8271C23.777 12.7826 23.8746 12.7169 23.9563 12.6339C24.0381 12.5509 24.1023 12.4523 24.1451 12.344C24.1879 12.2356 24.2085 12.1198 24.2056 12.0033Z" fill="#F8CEBD"/>
<path d="M20.0545 8.17059C18.9292 8.17059 17.8039 8.17059 16.6786 8.17059C16.4613 8.17059 16.1883 8.20847 16.1772 7.88313C16.1649 7.53774 16.419 7.50209 16.6942 7.50209C18.9299 7.50209 21.1664 7.50209 23.4036 7.50209C23.6488 7.50209 23.8493 7.51657 23.8426 7.84637C23.8359 8.17616 23.6198 8.17393 23.388 8.17282C22.2776 8.17059 21.1664 8.16985 20.0545 8.17059Z" fill="#FBC4AF"/>
<path d="M20.0466 5.83084H23.3802C23.6086 5.83084 23.8348 5.80745 23.8426 6.14949C23.8515 6.51271 23.6197 6.50046 23.3701 6.50046C21.1474 6.50046 18.9246 6.50046 16.7019 6.50046C16.4791 6.50046 16.1793 6.55394 16.1782 6.19629C16.1771 5.83864 16.4445 5.83196 16.7119 5.83307C17.8238 5.83307 18.9347 5.83084 20.0466 5.83084Z" fill="#FBC4AF"/>
<path d="M17.5364 12.01C17.5376 12.1262 17.5156 12.2414 17.4715 12.3489C17.4274 12.4564 17.3621 12.5539 17.2796 12.6358C17.1971 12.7176 17.0991 12.782 16.9912 12.8252C16.8833 12.8684 16.7679 12.8895 16.6518 12.8873C16.5356 12.885 16.4211 12.8595 16.3149 12.8122C16.2088 12.7648 16.1133 12.6967 16.034 12.6118C15.9547 12.5268 15.8933 12.4268 15.8534 12.3177C15.8135 12.2086 15.7959 12.0926 15.8016 11.9766C15.8079 11.7456 15.9037 11.5261 16.0688 11.3644C16.2338 11.2027 16.4552 11.1114 16.6862 11.1097C16.9181 11.117 17.1377 11.2158 17.297 11.3845C17.4563 11.5532 17.5424 11.7781 17.5364 12.01Z" fill="#9B5525"/>
<path d="M24.2058 12.0033C24.2087 12.1198 24.1881 12.2356 24.1453 12.344C24.1025 12.4523 24.0383 12.5509 23.9565 12.6339C23.8748 12.7169 23.7772 12.7826 23.6695 12.8271C23.5618 12.8716 23.4463 12.8939 23.3298 12.8928C23.2133 12.8917 23.0982 12.8671 22.9914 12.8206C22.8846 12.774 22.7883 12.7065 22.7081 12.6219C22.628 12.5373 22.5657 12.4375 22.525 12.3284C22.4843 12.2192 22.4659 12.103 22.4711 11.9866C22.4682 11.8701 22.4887 11.7543 22.5316 11.6459C22.5744 11.5376 22.6386 11.439 22.7203 11.356C22.8021 11.273 22.8997 11.2073 23.0074 11.1628C23.1151 11.1183 23.2306 11.096 23.3471 11.0971C23.4636 11.0982 23.5787 11.1228 23.6855 11.1693C23.7923 11.2159 23.8886 11.2834 23.9687 11.368C24.0489 11.4526 24.1111 11.5524 24.1519 11.6615C24.1926 11.7707 24.211 11.8869 24.2058 12.0033Z" fill="#9B5525"/>
</svg>
