<svg width="21" height="21" viewBox="0 0 21 21" fill="none" xmlns="http://www.w3.org/2000/svg">
<rect width="21" height="21" rx="5" fill="#D1147C" fill-opacity="0.2"/>
<path d="M18.6127 17.5196H13.8947L14.865 14.6089C14.8825 14.5578 14.8912 14.5123 14.8912 14.4712L14.9053 12.0985C14.7249 11.7366 14.4515 11.6007 14.0386 11.669V13.0215C14.0386 13.1542 13.9311 13.2616 13.7985 13.2616C13.6659 13.2616 13.5583 13.1542 13.5583 13.0215V11.5765C13.5482 11.5531 13.5375 11.5299 13.5352 11.504C13.5131 11.2542 13.4126 11.1846 13.3795 11.1618C13.2845 11.0959 13.0871 11.0425 12.6831 11.1306V12.466C12.6831 12.5987 12.5755 12.7061 12.4429 12.7061C12.3103 12.7061 12.2027 12.5987 12.2027 12.466V10.9913C12.1585 10.8893 12.068 10.8324 11.9952 10.8043C11.8047 10.7304 11.5492 10.7616 11.2915 10.8768V12.2593C11.2915 12.392 11.184 12.4994 11.0514 12.4994C10.9187 12.4994 10.8112 12.392 10.8112 12.2593V10.818C10.8007 10.7905 10.7934 10.7614 10.7938 10.7309L10.825 7.73082C10.8281 7.46992 10.619 7.25494 10.3551 7.25299C10.0938 7.25299 9.88255 7.46479 9.88107 7.72514L9.8666 13.5275C9.8666 13.6682 9.78035 13.7904 9.64717 13.8379C9.51421 13.8859 9.37088 13.8456 9.2818 13.7366L7.63617 11.7766C7.52099 11.6554 7.30134 11.6405 7.15925 11.7795C7.0517 11.8875 7.03005 12.0563 7.10559 12.1862L10.1695 17.5195L3.24017 17.5197C3.10755 17.5197 3 17.6271 3 17.7598C3 17.8926 3.10755 18 3.24017 18H18.6126C18.7452 18 18.8528 17.8926 18.8528 17.7598C18.8529 17.6271 18.7453 17.5197 18.6127 17.5197L18.6127 17.5196Z" fill="#D1147C"/>
<path d="M7.9949 11.458L8.0333 11.5038H9.3909L9.39398 10.2582C8.83355 9.93609 8.48892 9.36107 8.48892 8.71749V6.98334C8.48892 5.98883 9.32517 5.17958 10.3529 5.17958C11.3896 5.17958 12.2167 5.9935 12.2167 6.98334V8.71749C12.2167 9.36405 11.8517 9.95785 11.2785 10.2762L11.2776 10.3622C11.5935 10.2585 11.9051 10.2545 12.1683 10.3566C12.3389 10.4225 12.4763 10.5285 12.5704 10.6636C12.9918 10.5704 13.3132 10.5935 13.5569 10.719L13.557 4.24028C13.557 4.10766 13.4494 4.00011 13.3168 4.00011L7.41998 4C7.28736 4 7.17981 4.10755 7.17981 4.24017V11.2311C7.25569 11.21 7.33419 11.1965 7.4169 11.2004C7.63781 11.2051 7.84311 11.2966 7.99474 11.458L7.9949 11.458Z" fill="#D1147C"/>
<path d="M11.7364 8.71748V6.98334C11.7364 6.25841 11.1243 5.65991 10.353 5.65991C9.59008 5.65991 8.96936 6.25359 8.96936 6.98334V8.71748C8.96936 9.08798 9.12716 9.42806 9.39557 9.67189L9.40047 7.72343C9.40366 7.1989 9.83032 6.77302 10.3516 6.77302C10.896 6.77644 11.3113 7.21506 11.305 7.73688L11.2846 9.69205C11.5664 9.44539 11.7364 9.09288 11.7364 8.71748H11.7364Z" fill="#D1147C"/>
</svg>
