<svg width="14" height="14" viewBox="0 0 14 14" fill="none" xmlns="http://www.w3.org/2000/svg">
<path d="M11.6249 10.198L9.82606 8.76863C9.53119 8.53283 9.17727 8.38552 8.79396 8.35602C8.23363 8.32652 7.70282 8.54762 7.349 8.94542C7.26054 9.03382 7.12787 9.04862 7.02461 8.97492C6.28737 8.38552 5.62389 7.72229 5.03402 6.98548C4.96027 6.88228 4.96027 6.74968 5.06354 6.66129C5.49108 6.27817 5.72702 5.68867 5.63858 5.06978C5.59436 4.74558 5.44687 4.43618 5.24045 4.17087L3.81021 2.37306C3.4711 1.96055 2.95501 1.69525 2.40948 1.69525C2.29151 1.69525 2.17354 1.70995 2.05558 1.72475C1.53946 1.82796 1.09722 2.06366 0.758015 2.40267C0.25672 2.90367 -0.451107 4.06788 0.389397 6.33722C0.920208 7.76663 1.96714 9.29919 3.3236 10.6549C5.38782 12.7327 7.77652 14 9.59012 14C10.4011 14 11.0941 13.7348 11.5954 13.2485C11.9198 12.9243 12.1557 12.5117 12.2589 12.0107C12.4211 11.3328 12.1704 10.6255 11.6249 10.1981L11.6249 10.198ZM11.3299 11.7895C11.2562 12.0991 11.1235 12.3495 10.9171 12.5559C10.5927 12.88 10.1356 13.0275 9.59012 13.0275C8.10093 13.0275 5.93342 11.8928 4.0166 9.99181C1.39204 7.38338 0.241946 4.28892 1.43627 3.09529C1.6574 2.87429 1.92285 2.7416 2.26195 2.66799C2.32089 2.65329 2.36521 2.65329 2.42415 2.65329C2.6748 2.65329 2.91073 2.7712 3.07294 2.97749L4.50319 4.80462C4.81288 5.20252 4.70961 5.77723 4.28206 6.02772L3.92816 6.23402C3.69222 6.38142 3.61846 6.69081 3.78067 6.92662C4.6801 8.19393 5.78595 9.29914 7.054 10.198C7.27513 10.3602 7.59953 10.2864 7.747 10.0506L7.95343 9.69695C8.11562 9.43175 8.38097 9.29905 8.66115 9.29905C8.83805 9.29905 9.02977 9.35795 9.17727 9.47585L11.0056 10.92C11.2857 11.156 11.4037 11.4801 11.3299 11.7896L11.3299 11.7895Z" fill="#868686"/>
<path d="M7.85026 4.18565C7.49636 4.09725 7.17194 4.37725 7.18677 4.73086C7.20148 4.96666 7.36367 5.15816 7.59962 5.20247C7.8798 5.27617 8.14515 5.40877 8.36638 5.62977C8.5875 5.85077 8.73499 6.11606 8.79392 6.39607C8.85285 6.61707 9.04457 6.79398 9.26581 6.80869C9.61971 6.83819 9.89978 6.49917 9.81133 6.14558C9.69336 5.67397 9.45743 5.23197 9.10361 4.87827C8.74961 4.53937 8.30734 4.30356 7.85026 4.18568V4.18565Z" fill="#868686"/>
<path d="M11.3744 6.97077C11.6988 7.00027 11.9641 6.72027 11.9347 6.39606C11.8462 5.32035 11.3892 4.27403 10.5635 3.44883C9.73781 2.62363 8.69088 2.16681 7.61454 2.07842C7.29015 2.04892 7.00998 2.31422 7.03949 2.63842C7.0542 2.90362 7.26062 3.11003 7.52607 3.13942C8.36657 3.21312 9.17746 3.56672 9.82623 4.20042C10.4602 4.83403 10.8288 5.65933 10.8878 6.49924C10.9025 6.74974 11.1236 6.95603 11.3743 6.97074L11.3744 6.97077Z" fill="#868686"/>
<path d="M12.0231 1.99002C10.7551 0.722708 9.10367 0.0595016 7.43751 0.000583284C7.12782 -0.0141158 6.87718 0.251085 6.89198 0.560584C6.90669 0.825782 7.12792 1.04688 7.4081 1.04688C8.80882 1.09108 10.2096 1.65109 11.2712 2.7268C12.3476 3.80251 12.9079 5.18774 12.9521 6.58768C12.9668 6.85287 13.1733 7.07397 13.4387 7.10349C13.7484 7.11819 14.0137 6.88249 13.999 6.55828C13.9548 4.90775 13.2912 3.25738 12.0232 1.99007L12.0231 1.99002Z" fill="#868686"/>
</svg>
