<svg width="116" height="130" viewBox="0 0 116 130" fill="none" xmlns="http://www.w3.org/2000/svg">
<path d="M65.2038 99.6261C92.7148 99.6261 115.017 77.3241 115.017 49.8131C115.017 22.3021 92.7148 0 65.2038 0C37.6928 0 15.3907 22.3021 15.3907 49.8131C15.3907 77.3241 37.6928 99.6261 65.2038 99.6261Z" fill="#F2F2F2"/>
<path d="M97.7558 22.2763H6.50513C6.30946 22.2721 6.15422 22.1101 6.15841 21.9144C6.16247 21.7246 6.31535 21.5717 6.50513 21.5677H97.7558C97.9515 21.5719 98.1067 21.7339 98.1025 21.9296C98.0984 22.1193 97.9456 22.2722 97.7558 22.2763Z" fill="#CACACA"/>
<path d="M66.6579 34.2166H41.4326C39.5379 34.2166 38.002 35.7526 38.002 37.6473V37.6473C38.002 39.542 39.5379 41.0779 41.4326 41.0779H66.6579C68.5526 41.0779 70.0885 39.542 70.0885 37.6473C70.0885 35.7526 68.5526 34.2166 66.6579 34.2166Z" fill="white"/>
<path d="M25.137 47.9392H82.9535C84.8482 47.9392 86.3842 49.4752 86.3842 51.3699C86.3842 53.2646 84.8482 54.8006 82.9535 54.8006H25.137C23.2423 54.8006 21.7063 53.2646 21.7063 51.3699C21.7063 49.4752 23.2423 47.9392 25.137 47.9392Z" fill="white"/>
<path d="M25.137 61.6619H82.9535C84.8482 61.6619 86.3842 63.1979 86.3842 65.0926C86.3842 66.9873 84.8482 68.5233 82.9535 68.5233H25.137C23.2423 68.5233 21.7063 66.9873 21.7063 65.0926C21.7063 63.1979 23.2423 61.6619 25.137 61.6619Z" fill="white"/>
<path d="M17.972 128.996L17.836 128.983C13.2193 128.506 9.04585 126.024 6.42437 122.194C5.70632 121.126 5.12551 119.973 4.69562 118.761L4.6543 118.645L4.77663 118.635C6.23709 118.518 7.73743 118.27 8.40393 118.152L4.10614 116.696L4.07957 116.568C3.82476 115.371 4.32395 114.14 5.34029 113.458C6.35938 112.743 7.71078 112.72 8.75347 113.4C9.2214 113.699 9.71083 113.995 10.1841 114.281C11.8105 115.265 13.4923 116.282 14.7532 117.674C16.6653 119.827 17.5033 122.728 17.034 125.569L17.972 128.996Z" fill="#F2F2F2"/>
<path d="M33.5945 126.859L35.7125 126.859L36.7203 118.688L33.5939 118.688L33.5945 126.859Z" fill="#A0616A"/>
<path d="M33.5196 129.068L40.0335 129.068V128.986C40.0334 127.586 38.8983 126.451 37.4981 126.45H37.4979L36.3081 125.548L34.0881 126.451L33.5195 126.451L33.5196 129.068Z" fill="#2F2E41"/>
<path d="M16.6189 120.992L18.3131 122.263L24.0226 116.332L21.5218 114.456L16.6189 120.992Z" fill="#A0616A"/>
<path d="M15.233 122.715L20.4436 126.624L20.493 126.558C21.3332 125.438 21.1065 123.848 19.9865 123.008L19.9864 123.008L19.5764 121.572L17.2588 120.962L16.8039 120.621L15.233 122.715H15.233Z" fill="#2F2E41"/>
<path d="M23.66 88.5168C23.66 88.5168 23.777 91.7064 23.9245 94.2644C23.9487 94.6839 22.9658 95.1396 22.9913 95.596C23.0082 95.8988 23.1929 96.1931 23.2101 96.5088C23.2282 96.842 22.9731 97.137 22.9913 97.4815C23.009 97.8182 23.3 98.2043 23.3176 98.5489C23.5064 102.257 24.1912 106.697 23.5055 107.938C23.1676 108.549 18.8605 117.023 18.8605 117.023C18.8605 117.023 21.2603 120.622 21.9459 119.422C22.8515 117.838 29.8309 110.423 29.8309 109.007C29.8309 107.593 31.4456 96.9947 31.4456 96.9947L32.5715 103.267L33.0878 104.509L32.9256 105.239L33.2592 106.224L33.2772 107.198L33.602 109.007C33.602 109.007 32.625 123.104 33.1752 123.497C33.7271 123.891 36.3995 124.599 36.7149 123.891C37.0286 123.183 39.0704 109.179 39.0704 109.179C39.0704 109.179 39.3995 102.761 39.756 96.7959C39.7766 96.4496 40.02 96.0314 40.0389 95.6902C40.0611 95.2943 39.9069 94.7801 39.9274 94.3961C39.9497 93.9556 40.1451 93.6453 40.164 93.2236C40.3097 89.965 39.4918 85.997 39.2312 85.6061C38.4444 84.4268 37.7365 83.484 37.7365 83.484C37.7365 83.484 27.1393 80.0022 24.3076 83.5402L23.66 88.5167L23.66 88.5168Z" fill="#2F2E41"/>
<path d="M34.2293 55.7168L30.0284 54.8766L28.0679 57.5372C24.4099 61.1341 24.3548 64.3086 25.0078 69.397V76.5386L24.5352 81.3262C24.5352 81.3262 22.862 84.8259 24.5877 85.6407C26.3134 86.4555 37.6487 86.3861 38.7309 86.0608C39.8131 85.7355 38.8751 85.3362 38.5909 83.8203C38.057 80.9728 38.4141 82.3464 38.4509 81.4397C38.9776 68.4347 37.7507 63.0956 37.6261 61.6922L35.4896 57.8173L34.2293 55.7168Z" fill="#3F3D56"/>
<path d="M56.3708 66.2025C55.933 67.0321 54.9056 67.3497 54.076 66.9119C53.9876 66.8652 53.9034 66.8108 53.8245 66.7493L44.7522 72.5098L44.7784 69.3734L53.5914 64.2591C54.2192 63.5552 55.2986 63.4936 56.0025 64.1213C56.5914 64.6466 56.7437 65.507 56.3708 66.2025Z" fill="#A0616A"/>
<path d="M30.9125 59.349L29.8796 59.2395C28.9253 59.1406 27.9889 59.5493 27.4126 60.3164C27.1919 60.6073 27.0334 60.9405 26.9469 61.2953L26.9462 61.2982C26.6872 62.3661 27.0935 63.4852 27.9774 64.1381L31.5448 66.7682C34.0483 70.151 38.7533 72.3953 44.2723 74.2186L52.8509 68.8908L49.8166 65.2159L43.9325 68.3694L35.1862 61.5988L35.1811 61.5947L31.8522 59.45L30.9125 59.349L30.9125 59.349Z" fill="#3F3D56"/>
<path d="M32.8099 53.654C35.5155 53.654 37.7088 51.4607 37.7088 48.7551C37.7088 46.0495 35.5155 43.8562 32.8099 43.8562C30.1043 43.8562 27.911 46.0495 27.911 48.7551C27.911 51.4607 30.1043 53.654 32.8099 53.654Z" fill="#A0616A"/>
<path d="M32.923 53.655C32.8835 53.6563 32.8439 53.6572 32.8044 53.6582C32.7875 53.7022 32.7692 53.7457 32.7482 53.7884L32.923 53.655V53.655Z" fill="#2F2E41"/>
<path d="M34.2675 48.891C34.2751 48.9393 34.2869 48.9868 34.3026 49.0331C34.2961 48.9846 34.2843 48.9369 34.2675 48.891Z" fill="#2F2E41"/>
<path d="M37.7714 44.0658C37.5697 44.6919 37.3898 43.8977 36.7264 44.0405C35.9285 44.2124 34.9999 44.1533 34.3464 43.6642C33.3727 42.9498 32.111 42.7575 30.9687 43.1494C29.8505 43.545 27.9772 43.8239 27.6859 44.9736C27.5846 45.3733 27.5444 45.807 27.2989 46.1382C27.0843 46.4278 26.7456 46.5929 26.4623 46.8158C25.5058 47.5683 26.2368 49.7064 26.6895 50.8362C27.1422 51.9659 28.1807 52.7889 29.3224 53.2105C30.4271 53.6184 31.6261 53.6903 32.8045 53.6583C33.0095 53.1267 32.9209 52.5127 32.7518 51.9616C32.5687 51.365 32.2976 50.7893 32.2211 50.1699C32.1446 49.5506 32.3126 48.8471 32.8319 48.501C33.3092 48.1829 34.086 48.3767 34.2676 48.891C34.1616 48.248 34.8129 47.6259 35.4845 47.5164C36.2055 47.399 36.9265 47.6593 37.6455 47.7888C38.3644 47.9184 38.1092 44.8916 37.7714 44.0658Z" fill="#2F2E41"/>
<path d="M65.1697 56.8588C65.6264 51.3408 61.5234 46.4974 56.0054 46.0407C50.4874 45.584 45.6439 49.687 45.1872 55.205C44.7306 60.723 48.8336 65.5665 54.3516 66.0232C59.8696 66.4798 64.713 62.3768 65.1697 56.8588Z" fill="#7B2C82"/>
<path d="M57.812 51.8547L55.1785 54.4882L52.545 51.8547C52.1187 51.4284 51.4275 51.4284 51.0012 51.8547C50.5749 52.281 50.5749 52.9722 51.0012 53.3985L53.6347 56.032L51.0012 58.6654C50.5753 59.0921 50.576 59.7833 51.0027 60.2092C51.4288 60.6345 52.1189 60.6345 52.545 60.2092L55.1785 57.5757L57.812 60.2092C58.2387 60.6351 58.9298 60.6345 59.3557 60.2078C59.7811 59.7816 59.7811 59.0916 59.3557 58.6654L56.7223 56.032L59.3557 53.3985C59.782 52.9722 59.782 52.281 59.3557 51.8547C58.9294 51.4284 58.2383 51.4284 57.812 51.8547Z" fill="white"/>
<path d="M51.2279 47.6056C51.5234 48.4958 51.0412 49.4571 50.151 49.7526C50.0561 49.7841 49.9586 49.8072 49.8596 49.8215L47.7356 60.3562L45.4905 58.166L47.9012 48.2658C47.828 47.3255 48.5308 46.5039 49.471 46.4306C50.2578 46.3693 50.9841 46.855 51.2279 47.6056Z" fill="#A0616A"/>
<path d="M28.6573 61.2318L27.8632 61.9013C27.1311 62.5215 26.7778 63.4801 26.9324 64.4271C26.9895 64.7878 27.1202 65.1329 27.3163 65.4409L27.3179 65.4433C27.9092 66.3696 28.9981 66.8511 30.0812 66.6653L34.4488 65.9119C38.623 66.4473 43.4998 64.6059 48.6363 61.8856L50.7307 52.0068L45.9783 51.6522L44.1803 58.0813L33.2394 59.7054L33.233 59.7063L29.3807 60.6236L28.6573 61.2318L28.6573 61.2318Z" fill="#3F3D56"/>
<path d="M53.5268 129.238L0.232756 129.298C0.103793 129.297 -0.000416472 129.192 1.25146e-06 129.064C0.000415053 128.935 0.104379 128.831 0.232756 128.831L53.5268 128.77C53.6558 128.771 53.76 128.876 53.7596 129.005C53.7592 129.133 53.6552 129.237 53.5268 129.238Z" fill="#CACACA"/>
<path d="M11.1348 17.7883C12.0507 17.7883 12.7932 17.0292 12.7932 16.0928C12.7932 15.1565 12.0507 14.3974 11.1348 14.3974C10.2188 14.3974 9.47632 15.1565 9.47632 16.0928C9.47632 17.0292 10.2188 17.7883 11.1348 17.7883Z" fill="#3F3D56"/>
<path d="M16.864 17.7883C17.78 17.7883 18.5225 17.0292 18.5225 16.0929C18.5225 15.1565 17.78 14.3974 16.864 14.3974C15.9481 14.3974 15.2056 15.1565 15.2056 16.0929C15.2056 17.0292 15.9481 17.7883 16.864 17.7883Z" fill="#3F3D56"/>
<path d="M22.5933 17.7883C23.5092 17.7883 24.2517 17.0292 24.2517 16.0929C24.2517 15.1565 23.5092 14.3974 22.5933 14.3974C21.6773 14.3974 20.9348 15.1565 20.9348 16.0929C20.9348 17.0292 21.6773 17.7883 22.5933 17.7883Z" fill="#3F3D56"/>
<path d="M29.1261 17.4329C29.0751 17.4329 29.0243 17.4131 28.9859 17.3739L27.8669 16.2299C27.7923 16.1537 27.7923 16.0319 27.8669 15.9557L28.9859 14.8118C29.0618 14.7345 29.1861 14.7332 29.2632 14.8088C29.3407 14.8845 29.342 15.0087 29.2663 15.0861L28.2814 16.0928L29.2663 17.0996C29.342 17.177 29.3407 17.3012 29.2632 17.3769C29.2251 17.4143 29.1756 17.4329 29.1261 17.4329Z" fill="#3F3D56"/>
<path d="M31.0066 17.4329C30.957 17.4329 30.9075 17.4143 30.8694 17.3769C30.792 17.3012 30.7906 17.1771 30.8664 17.0996L31.8511 16.0928L30.8664 15.0861C30.7906 15.0087 30.792 14.8845 30.8694 14.8088C30.9467 14.7329 31.071 14.7344 31.1467 14.8118L32.2657 15.9557C32.3403 16.0319 32.3403 16.1537 32.2657 16.2299L31.1467 17.3739C31.1083 17.4131 31.0575 17.4329 31.0066 17.4329Z" fill="#3F3D56"/>
<path d="M89.5486 14.5937H87.4678C87.2305 14.5937 87.0383 14.7859 87.0383 15.0232V17.106C87.0383 17.3433 87.2305 17.5354 87.4678 17.5354H89.5486C89.7859 17.5354 89.98 17.3433 89.98 17.106V15.0232C89.98 14.7859 89.7859 14.5937 89.5486 14.5937Z" fill="#3F3D56"/>
<path d="M84.4496 14.5937H82.3688C82.1315 14.5937 81.9393 14.7859 81.9393 15.0232V17.106C81.9393 17.3433 82.1315 17.5354 82.3688 17.5354H84.4496C84.6869 17.5354 84.881 17.3433 84.881 17.106V15.0232C84.881 14.7859 84.6869 14.5937 84.4496 14.5937Z" fill="#3F3D56"/>
<path d="M94.3534 14.6918H92.2726C92.0353 14.6918 91.8431 14.884 91.8431 15.1213V17.204C91.8431 17.4413 92.0353 17.6335 92.2726 17.6335H94.3534C94.5907 17.6335 94.7849 17.4413 94.7849 17.204V15.1213C94.7849 14.884 94.5907 14.6918 94.3534 14.6918Z" fill="#3F3D56"/>
<path d="M62.9904 15.4841H46.358C46.0677 15.4841 45.8344 15.7194 45.8344 16.0077C45.8344 16.296 46.0677 16.5313 46.358 16.5313H62.9904C63.2787 16.5313 63.5141 16.296 63.5141 16.0077C63.5141 15.7194 63.2787 15.4841 62.9904 15.4841Z" fill="#3F3D56"/>
</svg>
