<svg width="36" height="40" viewBox="0 0 36 40" fill="none" xmlns="http://www.w3.org/2000/svg">
<path d="M30.5841 15.3312C30.573 16.2436 30.6796 17.1593 30.5185 18.0672C30.3531 18.9727 29.8791 19.7929 29.177 20.3882C28.4749 20.9835 27.5882 21.3171 26.6679 21.3322C25.3132 21.3422 23.9574 21.3322 22.6017 21.3322C22.3394 21.3322 22.0771 21.3455 21.816 21.3455C19.9935 21.3455 18.1709 21.3455 16.3484 21.3455C16.1851 21.3455 15.9728 21.42 15.9628 21.1233C15.9495 20.751 15.9117 20.3809 15.885 20.012C16.3673 20.012 16.8496 20.012 17.3297 20.0042C18.0273 19.994 18.6928 19.7092 19.1819 19.2116C19.6709 18.714 19.9442 18.0437 19.9423 17.346C19.9423 15.1234 19.946 12.9045 19.9534 10.6894C21.5526 10.5416 22.5461 9.54584 22.6117 8.02226C22.8184 8.02226 23.0251 8.00893 23.2318 8.00893L29.6017 7.99559L30.5963 8.02226L30.5841 14.0077C30.3496 14.0077 30.1129 13.9888 29.8784 14.0077C29.7178 14.0285 29.5703 14.1072 29.4634 14.2288C29.3565 14.3505 29.2975 14.5069 29.2975 14.6689C29.2975 14.8309 29.3565 14.9873 29.4634 15.109C29.5703 15.2306 29.7178 15.3093 29.8784 15.3301C30.114 15.3457 30.3507 15.3312 30.5841 15.3312ZM26.6056 14.6445C26.6056 15.0045 26.5879 15.3668 26.6056 15.7257C26.6254 15.9618 26.7254 16.1841 26.889 16.3555C27.0525 16.5269 27.2698 16.6372 27.5047 16.6681C27.9436 16.717 28.4004 16.4003 28.5426 15.9469C28.8871 14.8445 28.0437 13.5076 26.9068 13.3498C26.7034 13.3209 26.589 13.3676 26.5968 13.6043C26.6145 13.9455 26.6068 14.2933 26.6068 14.64L26.6056 14.6445ZM23.9385 15.3368C24.173 15.3368 24.4075 15.3501 24.6409 15.3368C24.7273 15.3345 24.8125 15.315 24.8912 15.2792C24.97 15.2434 25.0407 15.1922 25.0993 15.1285C25.1578 15.0649 25.203 14.9901 25.2321 14.9087C25.2612 14.8273 25.2737 14.7408 25.2688 14.6545C25.2698 14.5713 25.2544 14.4887 25.2235 14.4114C25.1926 14.3342 25.1468 14.2638 25.0887 14.2043C25.0306 14.1447 24.9614 14.0972 24.8849 14.0644C24.8085 14.0316 24.7263 14.0143 24.6431 14.0132C24.1753 13.9955 23.7052 13.9955 23.2373 14.0132C23.1541 14.014 23.0719 14.0311 22.9953 14.0636C22.9188 14.0961 22.8493 14.1434 22.791 14.2027C22.7327 14.262 22.6867 14.3323 22.6555 14.4094C22.6244 14.4865 22.6087 14.569 22.6094 14.6522C22.6042 14.7387 22.6164 14.8253 22.6453 14.9069C22.6742 14.9885 22.7192 15.0635 22.7777 15.1274C22.8362 15.1912 22.9069 15.2427 22.9857 15.2787C23.0644 15.3147 23.1496 15.3344 23.2362 15.3368C23.4718 15.3457 23.7096 15.3312 23.9441 15.3312L23.9385 15.3368ZM25.9333 11.6784C25.9348 11.4808 25.8778 11.2872 25.7694 11.1219C25.6609 10.9567 25.506 10.8273 25.3241 10.7501C25.1422 10.6729 24.9415 10.6512 24.7473 10.688C24.5531 10.7247 24.3742 10.8181 24.2331 10.9565C24.0919 11.0948 23.9949 11.2718 23.9543 11.4653C23.9138 11.6587 23.9314 11.8598 24.005 12.0432C24.0785 12.2266 24.2048 12.3841 24.3678 12.4958C24.5309 12.6075 24.7233 12.6684 24.9209 12.6708C25.0532 12.6723 25.1845 12.6476 25.3073 12.5983C25.4301 12.549 25.542 12.476 25.6365 12.3834C25.7311 12.2908 25.8064 12.1805 25.8583 12.0588C25.9102 11.937 25.9376 11.8063 25.9389 11.674L25.9333 11.6784ZM29.9251 11.6784C29.9279 11.4803 29.8719 11.2859 29.7641 11.1197C29.6563 10.9535 29.5016 10.8231 29.3195 10.7449C29.1375 10.6668 28.9364 10.6445 28.7416 10.6808C28.5469 10.7171 28.3673 10.8104 28.2257 10.9489C28.0841 11.0874 27.9868 11.2649 27.9461 11.4588C27.9055 11.6526 27.9233 11.8542 27.9974 12.0379C28.0715 12.2217 28.1984 12.3793 28.3621 12.4907C28.5259 12.6022 28.719 12.6626 28.9171 12.6641C29.1825 12.6659 29.4378 12.5629 29.6275 12.3775C29.8173 12.1921 29.9262 11.9393 29.9306 11.674L29.9251 11.6784ZM27.2991 17.9983C26.9268 17.9983 26.5545 18.0072 26.1822 17.9983C25.9733 17.9906 25.9211 18.0639 25.96 18.2639C26.0173 18.5682 26.1787 18.843 26.4164 19.0413C26.6542 19.2395 26.9535 19.3489 27.2631 19.3506C27.5727 19.3523 27.8732 19.2463 28.1132 19.0506C28.3531 18.855 28.5175 18.582 28.5782 18.2784C28.6282 18.0461 28.5515 17.9894 28.3326 17.9983C27.9892 18.0094 27.6436 17.9983 27.2991 17.9983Z" fill="#FAB991"/>
<path d="M29.604 7.99004L23.234 8.00338C23.0273 8.00338 22.8206 8.01227 22.6139 8.01672C22.4483 8.01672 22.2805 8.00338 22.1172 8.00338H11.9844C11.8433 4.5217 14.4759 1.12781 17.9787 0.252115C19.3734 -0.0968308 20.787 0.0298563 22.1961 0.0187434C20.6469 0.392138 19.8846 1.51899 19.9457 3.08258C19.9857 4.10719 19.9535 5.13402 19.9535 6.16086V7.40773C20.398 6.03084 21.5204 5.29627 22.864 5.32628C25.1188 5.36851 27.3747 5.33961 29.6306 5.33517C29.7895 5.33517 29.964 5.39629 30.104 5.25626C30.4374 5.43074 30.7975 5.2996 31.1431 5.33628C31.3187 5.35517 31.4954 5.35628 31.6721 5.36517C31.0498 5.53964 30.6464 5.96305 30.6186 6.58759C30.5841 7.31882 30.2129 7.72 29.604 7.99004Z" fill="#93C840"/>
<path d="M28.9472 29.3402L18.7489 29.3335L17.2986 29.328C17.2553 28.6156 17.3775 27.8944 17.2075 27.1876C16.9341 26.0552 16.3529 25.1451 15.3027 24.5828C15.3639 24.0938 15.6295 23.9693 16.1184 23.976C18.2777 24.0082 20.4391 23.9904 22.5995 23.9904L26.5479 24.0015C28.8338 24.0071 30.5919 25.7718 30.5975 28.0644C30.5975 28.1333 30.5975 28.2033 30.5975 28.2722C30.5797 28.6056 30.7308 29.0135 30.5397 29.2446C30.3485 29.4758 29.9107 29.2857 29.5873 29.3435L28.9472 29.3402Z" fill="#A6C3DC"/>
<path d="M11.9843 8.00226H22.117C22.2826 8.00226 22.4504 8.01115 22.6138 8.01559C22.5482 9.53806 21.5547 10.5338 19.9556 10.6827C19.6379 10.6609 19.3192 10.7041 19.0188 10.8094C17.4629 11.2739 16.4406 12.8097 16.6428 14.3655C16.8651 16.0658 18.1664 17.2393 19.9445 17.336C19.9475 18.0345 19.6747 18.7059 19.1856 19.2045C18.6964 19.703 18.0302 19.9884 17.3318 19.9987C16.8495 20.0087 16.3672 19.9987 15.8871 20.0064C15.6649 19.1374 15.4226 18.2784 14.9848 17.486C14.2569 16.1714 13.2223 15.1634 11.9609 14.3744C11.9654 12.4171 11.9695 10.4604 11.9732 8.50456C11.972 8.33009 11.9798 8.16895 11.9843 8.00226Z" fill="#483D4C"/>
<path d="M11.9587 14.3711C13.2201 15.1623 14.2547 16.1703 14.9826 17.4827C15.4204 18.2751 15.6638 19.1341 15.8849 20.0031C15.9116 20.3743 15.9494 20.7443 15.9627 21.1144C15.9727 21.4145 16.185 21.3367 16.3483 21.3367C18.1709 21.3411 19.9934 21.3411 21.8159 21.3367C22.0771 21.3367 22.3393 21.3278 22.6016 21.3233C22.6016 22.2079 22.6016 23.0925 22.6016 23.9771C20.4412 23.9771 18.2798 23.9949 16.1205 23.9627C15.6316 23.956 15.366 24.0804 15.3048 24.5694C15.2393 24.6894 15.1737 24.8095 15.1104 24.9317C14.254 26.6224 12.8275 27.956 11.083 28.6968C10.5129 28.9457 9.9084 29.079 9.31164 29.238C8.08921 29.3869 6.8868 29.3491 5.69994 28.9924C2.19937 27.94 0.0434579 24.7283 0.0112305 21.57C0.476862 22.1435 0.900264 22.119 1.31811 21.4945C1.35478 21.8279 1.3759 22.1612 1.42924 22.4857C2.06934 26.2441 5.83663 28.709 9.55723 27.7977C13.2567 26.8976 15.4538 23.0125 14.3358 19.3697C13.6501 17.1315 11.5976 14.8334 8.14811 14.6467C8.87823 14.2277 8.68042 13.6587 8.22368 13.3365C9.41388 13.3365 10.5263 13.6576 11.5876 14.1799L11.9587 14.3711Z" fill="#EF7434"/>
<path d="M28.9472 29.3402H29.584C30.8442 29.8247 30.8064 31.076 30.0129 31.825C28.3727 33.3808 26.8024 35.0033 25.2144 36.6114C24.9916 36.8484 24.7212 37.0354 24.4208 37.1602C24.1204 37.2849 23.797 37.3444 23.4719 37.3348C21.5338 37.3181 19.5946 37.3348 17.6553 37.3226C17.5395 37.3148 17.4234 37.3342 17.3164 37.3791C17.2093 37.4241 17.1142 37.4934 17.0386 37.5815C16.7796 37.8693 16.4918 38.1372 16.2218 38.4105C16.1307 38.5039 15.9829 38.5739 16.0317 38.7495C15.9706 38.6962 15.9062 38.645 15.8473 38.5895C15.2083 37.9816 14.6315 37.3081 13.9581 36.7403C13.9547 36.7189 13.9547 36.6972 13.9581 36.6758C14.4626 36.1813 14.976 35.6957 15.4694 35.1911C15.6362 35.0155 15.8383 34.8774 16.0625 34.7858C16.2866 34.6942 16.5277 34.6513 16.7696 34.6599C18.1965 34.6655 19.6234 34.6599 21.0492 34.6533C21.796 34.6533 22.5884 34.8133 23.2785 34.6166C23.9686 34.4199 24.3798 33.6542 24.9099 33.1375C25.9923 32.0851 27.0513 31.0093 28.1115 29.9336C28.3468 29.681 28.6312 29.4791 28.9472 29.3402Z" fill="#F0925B"/>
<path d="M30.1041 5.25515C29.9652 5.39517 29.7896 5.33405 29.6307 5.33405C27.3748 5.33405 25.1189 5.36739 22.864 5.32516C21.5205 5.30071 20.3992 6.02972 19.9536 7.40661V6.15974C19.9536 5.13291 19.9858 4.10607 19.9458 3.08146C19.8847 1.51787 20.647 0.391024 22.1962 0.0176297C25.6945 -0.220187 28.8472 1.9735 30.0508 5.05623C30.0721 5.12154 30.0899 5.18794 30.1041 5.25515Z" fill="#60AA46"/>
<path d="M13.9581 36.6747C13.9547 36.6961 13.9547 36.7178 13.9581 36.7392L10.722 39.9742L3.83197 39.9942H2.69067C2.84292 39.8263 2.93627 39.7163 3.03851 39.6141C5.06254 37.5849 7.08658 35.5568 9.11061 33.5298C9.87407 32.7652 9.87407 32.7652 10.7253 33.3364C10.7698 33.4931 10.9076 33.5731 11.012 33.6787C11.9907 34.6803 12.9727 35.679 13.9581 36.6747Z" fill="#F9A120"/>
<path d="M13.9581 36.6747C12.975 35.6768 11.9915 34.6766 11.0077 33.6742C10.9032 33.5631 10.7654 33.4886 10.7209 33.3319C11.071 32.7385 11.6222 32.3318 12.1001 31.8606C13.008 30.9716 14.1159 30.6204 15.3862 30.6493C17.0742 30.6871 18.7645 30.6582 20.4536 30.6582C21.5649 30.6582 22.424 31.3249 22.5984 32.3484C22.7729 33.372 22.0128 34.4132 21.1482 34.5799C21.1115 34.5877 21.0815 34.6244 21.0493 34.6477C19.6235 34.6477 18.1966 34.6599 16.7697 34.6544C16.5276 34.6465 16.2865 34.6902 16.0626 34.7825C15.8386 34.8749 15.6368 35.0138 15.4706 35.19C14.9761 35.6946 14.4627 36.1802 13.9581 36.6747ZM19.5335 32.6118C19.5335 33.612 19.6446 33.7487 20.3925 33.7498C21.2438 33.7498 21.6994 33.3742 21.7027 32.6707C21.7061 31.9673 21.2504 31.575 20.4103 31.575C19.6524 31.575 19.5335 31.7161 19.5335 32.6118Z" fill="#FBB991"/>
<path d="M9.30957 29.2479C9.90633 29.089 10.5109 28.9557 11.081 28.7067C12.8255 27.966 14.2519 26.6324 15.1083 24.9417C15.1716 24.8194 15.2372 24.6994 15.3028 24.5794C16.3529 25.1417 16.9341 26.0519 17.2075 27.1843C17.3776 27.8911 17.2553 28.6123 17.2987 29.3246C14.7516 29.3246 12.2045 29.3246 9.65741 29.3246C9.53739 29.3335 9.40514 29.3646 9.30957 29.2479Z" fill="#D7E5EE"/>
<path d="M1.31599 21.5045C0.902592 22.129 0.474743 22.1535 0.00911143 21.58C-0.213147 17.0126 3.66193 13.1342 8.22601 13.3465C8.68275 13.6687 8.88056 14.2355 8.15044 14.6567C6.81689 14.6567 5.55002 14.9645 4.42428 15.7069C2.34838 17.0737 1.34711 19.0307 1.31599 21.5045Z" fill="#F9A120"/>
<path d="M29.604 7.99004C30.213 7.71999 30.5853 7.32326 30.6186 6.5887C30.6464 5.96193 31.0498 5.53853 31.6721 5.36628C32.6823 5.3585 33.6924 5.32516 34.7015 5.35183C35.4061 5.36961 35.9473 6.0186 35.9173 6.72983C35.9018 7.0722 35.7544 7.3953 35.506 7.63145C35.2576 7.8676 34.9275 7.99849 34.5848 7.9967C33.408 8.00893 32.2311 7.9967 31.0554 7.9967C30.9031 7.9967 30.7509 8.0056 30.5986 8.01004L29.604 7.99004Z" fill="#60AB46"/>
<path d="M10.7188 39.9741L13.9548 36.7392C14.6327 37.307 15.2095 37.9805 15.844 38.5884C15.9029 38.6439 15.9674 38.6995 16.0285 38.7484C16.3041 38.9706 16.4286 39.2396 16.2874 39.5863C16.1463 39.933 15.8763 40.0053 15.5218 39.9997C13.9237 39.9786 12.3212 39.9808 10.7188 39.9741Z" fill="#EE6625"/>
<path d="M30.5842 15.3312C30.3497 15.3312 30.113 15.3501 29.8785 15.3312C29.7179 15.3104 29.5703 15.2318 29.4635 15.1101C29.3566 14.9884 29.2976 14.832 29.2976 14.67C29.2976 14.5081 29.3566 14.3516 29.4635 14.23C29.5703 14.1083 29.7179 14.0297 29.8785 14.0088C30.113 13.991 30.3497 14.0088 30.5842 14.0088V15.3312Z" fill="#F0925B"/>
<path d="M19.9445 17.3393C18.1665 17.2427 16.8629 16.0691 16.6429 14.3689C16.4406 12.8131 17.4641 11.2739 19.0188 10.8127C19.3193 10.7074 19.638 10.6643 19.9556 10.686C19.9512 12.902 19.9475 15.1197 19.9445 17.3393Z" fill="#EF915B"/>
<path d="M26.6067 14.64C26.6067 14.2933 26.6145 13.9455 26.6067 13.5998C26.5989 13.3631 26.7178 13.3165 26.9168 13.3454C28.0536 13.5032 28.8971 14.84 28.5526 15.9424C28.4103 16.3959 27.9536 16.7126 27.5146 16.6637C27.2797 16.6328 27.0624 16.5225 26.8989 16.3511C26.7354 16.1796 26.6354 15.9574 26.6156 15.7213C26.5934 15.3624 26.6156 15.0001 26.6156 14.64H26.6067Z" fill="#F0925B"/>
<path d="M23.9441 15.3312C23.7096 15.3312 23.4751 15.3446 23.2417 15.3312C23.1552 15.3289 23.07 15.3091 22.9912 15.2731C22.9124 15.2372 22.8417 15.1857 22.7832 15.1218C22.7247 15.058 22.6797 14.983 22.6508 14.9014C22.6219 14.8197 22.6097 14.7331 22.615 14.6467C22.6142 14.5635 22.6299 14.481 22.661 14.4039C22.6922 14.3267 22.7382 14.2565 22.7965 14.1971C22.8549 14.1378 22.9243 14.0905 23.0009 14.058C23.0774 14.0255 23.1597 14.0084 23.2428 14.0077C23.7107 13.9899 24.1808 13.9899 24.6486 14.0077C24.7318 14.0087 24.814 14.0261 24.8904 14.0589C24.9669 14.0916 25.0362 14.1392 25.0943 14.1987C25.1524 14.2583 25.1982 14.3287 25.2291 14.4059C25.2599 14.4831 25.2753 14.5657 25.2743 14.6489C25.2792 14.7353 25.2668 14.8217 25.2376 14.9032C25.2085 14.9846 25.1634 15.0594 25.1048 15.123C25.0462 15.1866 24.9755 15.2379 24.8967 15.2736C24.818 15.3094 24.7329 15.329 24.6464 15.3312C24.413 15.3457 24.1785 15.3312 23.9441 15.3312Z" fill="#F0925B"/>
<path d="M25.9388 11.674C25.9388 11.8718 25.8801 12.0652 25.7702 12.2296C25.6603 12.3941 25.5041 12.5223 25.3214 12.598C25.1386 12.6737 24.9375 12.6935 24.7435 12.6549C24.5495 12.6163 24.3713 12.5211 24.2314 12.3812C24.0915 12.2413 23.9963 12.0631 23.9577 11.8691C23.9191 11.6751 23.9389 11.474 24.0146 11.2912C24.0903 11.1085 24.2185 10.9523 24.383 10.8424C24.5475 10.7325 24.7408 10.6738 24.9386 10.6738C25.2033 10.6758 25.4565 10.7819 25.6436 10.969C25.8307 11.1561 25.9368 11.4093 25.9388 11.674Z" fill="#4A3F4D"/>
<path d="M29.9307 11.674C29.9307 11.8718 29.8721 12.0652 29.7622 12.2296C29.6523 12.3941 29.4961 12.5223 29.3133 12.598C29.1306 12.6737 28.9295 12.6935 28.7355 12.6549C28.5414 12.6163 28.3632 12.5211 28.2234 12.3812C28.0835 12.2413 27.9882 12.0631 27.9496 11.8691C27.911 11.6751 27.9309 11.474 28.0066 11.2912C28.0823 11.1085 28.2104 10.9523 28.3749 10.8424C28.5394 10.7325 28.7328 10.6738 28.9306 10.6738C29.195 10.6764 29.4479 10.7826 29.6349 10.9696C29.8219 11.1566 29.9281 11.4095 29.9307 11.674Z" fill="#4A3F4D"/>
<path d="M27.2992 17.9983C27.6437 17.9983 27.9893 18.0083 28.3327 17.9983C28.555 17.9894 28.6283 18.0461 28.5783 18.2784C28.5177 18.582 28.3533 18.855 28.1133 19.0506C27.8734 19.2463 27.5728 19.3523 27.2633 19.3506C26.9537 19.3489 26.6543 19.2395 26.4166 19.0413C26.1788 18.843 26.0174 18.5682 25.9601 18.2639C25.9212 18.0639 25.9735 17.9906 26.1824 17.9983C26.5547 18.0083 26.9269 17.9983 27.2992 17.9983Z" fill="#4A3F4D"/>
<path d="M1.31592 21.5045C1.34703 19.0307 2.34831 17.0737 4.42754 15.7068C5.55328 14.9645 6.81459 14.6589 8.1537 14.6567C11.5987 14.8434 13.6557 17.1415 14.3414 19.3797C15.4582 23.0225 13.2612 26.9076 9.56282 27.8077C5.84221 28.7134 2.07493 26.2519 1.43483 22.4957C1.3737 22.1679 1.35704 21.8345 1.31592 21.5045ZM4.23639 22.0057H4.22861C5.30546 23.2514 6.37563 24.5038 7.46136 25.7418C7.77919 26.1041 8.16592 26.0874 8.50709 25.7418C8.65156 25.594 8.78158 25.4307 8.91716 25.274C9.96177 24.0715 11.0286 22.8891 12.0432 21.66C12.476 21.128 12.6852 20.4486 12.6267 19.7653C12.5681 19.0819 12.2464 18.448 11.7294 17.9973C11.2124 17.5467 10.5405 17.3144 9.8556 17.3497C9.17065 17.3849 8.52617 17.6848 8.05813 18.1861C7.947 18.1984 7.88588 18.1206 7.81364 18.055C7.49334 17.7551 7.10415 17.5386 6.6804 17.4247C6.25666 17.3107 5.81138 17.3028 5.38386 17.4017C4.95633 17.5005 4.5597 17.703 4.22897 17.9914C3.89823 18.2798 3.64354 18.6451 3.48738 19.0552C3.29396 19.5451 3.25415 20.0823 3.37325 20.5954C3.49234 21.1085 3.7647 21.5732 4.15416 21.9279L4.23639 22.0057Z" fill="#D7E5EE"/>
<path d="M19.5334 32.6118C19.5334 31.7161 19.6524 31.575 20.4103 31.575C21.2504 31.575 21.706 31.9617 21.7027 32.6707C21.6994 33.3797 21.2437 33.7498 20.3925 33.7498C19.6412 33.7487 19.5334 33.6076 19.5334 32.6118Z" fill="#F0925B"/>
<path d="M8.05827 18.1795C8.52631 17.6781 9.1708 17.3782 9.85575 17.343C10.5407 17.3078 11.2125 17.54 11.7295 17.9907C12.2465 18.4414 12.5682 19.0752 12.6268 19.7586C12.6853 20.4419 12.4762 21.1213 12.0434 21.6534C11.031 22.8825 9.96192 24.0649 8.9173 25.2673C8.78172 25.424 8.6517 25.5873 8.50724 25.7352C8.16607 26.0852 7.77934 26.1019 7.46151 25.7352C6.37578 24.4972 5.3056 23.2447 4.22876 21.999C4.58993 22.0223 4.87998 21.9068 5.0689 21.5811C5.25782 21.2555 5.08445 20.9999 4.9022 20.7466C4.86123 20.6914 4.8241 20.6335 4.79107 20.5732C4.66255 20.31 4.62556 20.0113 4.68595 19.7247C4.74634 19.438 4.90066 19.1797 5.12446 18.9907C5.62454 18.5695 6.34688 18.5318 6.79807 18.9429C7.10034 19.2196 7.38705 19.4786 7.81601 19.2419C8.27498 18.9896 8.13606 18.574 8.05827 18.1795Z" fill="#60AB46"/>
<path d="M8.05825 18.1795C8.13938 18.574 8.27496 18.9896 7.81044 19.2463C7.38148 19.483 7.09476 19.2241 6.79249 18.9474C6.34797 18.5362 5.61897 18.574 5.11889 18.9952C4.89508 19.1842 4.74076 19.4425 4.68037 19.7291C4.61998 20.0158 4.65698 20.3144 4.7855 20.5776C4.81852 20.6379 4.85565 20.6958 4.89663 20.751C5.07888 21.0044 5.25446 21.2555 5.06332 21.5856C4.87218 21.9156 4.58435 22.0301 4.22318 22.0034H4.23096L4.14428 21.9145C3.75482 21.5599 3.48246 21.0952 3.36337 20.5821C3.24427 20.069 3.28408 19.5318 3.47751 19.0418C3.63367 18.6318 3.88835 18.2664 4.21909 17.9781C4.54983 17.6897 4.94646 17.4872 5.37398 17.3883C5.8015 17.2895 6.24678 17.2974 6.67053 17.4113C7.09428 17.5253 7.48347 17.7418 7.80377 18.0417C7.886 18.1095 7.94712 18.1917 8.05825 18.1795Z" fill="#93C840"/>
<path d="M4.14966 21.9167L4.23634 22.0057L4.14966 21.9167Z" fill="#60AB46"/>
</svg>
