<svg width="20" height="20" viewBox="0 0 20 20" fill="none" xmlns="http://www.w3.org/2000/svg">
<path d="M19.99 15.7875C19.99 16.0431 19.9427 16.3766 19.848 16.7884C19.7534 17.2001 19.654 17.5243 19.5499 17.7609C19.3512 18.2342 18.7738 18.7359 17.8178 19.2659C16.9282 19.7486 16.0479 19.99 15.1771 19.99C14.9215 19.99 14.6731 19.9734 14.4318 19.9404C14.1905 19.9072 13.9184 19.8481 13.6154 19.7629C13.3126 19.6777 13.0878 19.6091 12.9411 19.557C12.7944 19.505 12.5317 19.408 12.1531 19.266C11.7746 19.1241 11.5426 19.0389 11.4575 19.0104C10.5299 18.6791 9.70163 18.2863 8.97293 17.832C7.76147 17.0844 6.50974 16.0645 5.21767 14.7725C3.92565 13.4803 2.90577 12.2285 2.15796 11.0172C1.70366 10.2884 1.31089 9.46025 0.979557 8.53268C0.951111 8.44748 0.865915 8.2156 0.723965 7.83703C0.582015 7.45846 0.484967 7.19574 0.432957 7.04907C0.380948 6.90238 0.312343 6.67761 0.227147 6.37473C0.14195 6.07185 0.0828263 5.7997 0.0496394 5.55832C0.0165924 5.31695 0 5.06846 0 4.81287C0 3.94206 0.241368 3.06179 0.7241 2.17216C1.25412 1.21618 1.7558 0.6389 2.22906 0.440071C2.46555 0.336049 2.78974 0.236631 3.2015 0.14195C3.61325 0.0472726 3.9468 0 4.20239 0C4.33485 0 4.43427 0.0142228 4.50051 0.0425286C4.6709 0.0992786 4.92176 0.459033 5.25291 1.12152C5.35708 1.3014 5.49902 1.55684 5.67891 1.88817C5.85879 2.21948 6.02444 2.51996 6.17588 2.78965C6.32731 3.05946 6.474 3.31253 6.61594 3.54916C6.64439 3.58695 6.72722 3.70533 6.86442 3.90403C7.00163 4.10273 7.10342 4.27074 7.16965 4.4081C7.23589 4.54531 7.26907 4.68028 7.26907 4.81275C7.26907 5.00211 7.13424 5.23875 6.86442 5.52264C6.59461 5.80654 6.30124 6.06687 5.98415 6.3035C5.66707 6.54013 5.37367 6.79097 5.10388 7.05591C4.83406 7.32084 4.69923 7.53863 4.69923 7.70904C4.69923 7.79424 4.72293 7.90077 4.7702 8.0285C4.81747 8.15622 4.85777 8.25327 4.89081 8.3195C4.924 8.38574 4.99024 8.49938 5.08951 8.66029C5.18894 8.82121 5.24332 8.91114 5.2528 8.93011C5.97215 10.2267 6.79556 11.3389 7.72309 12.2665C8.65062 13.194 9.76281 14.0175 11.0594 14.7368C11.0784 14.7462 11.1682 14.8006 11.3293 14.9C11.4902 14.9995 11.6037 15.0657 11.67 15.0987C11.7363 15.1319 11.8333 15.1721 11.9611 15.2194C12.0888 15.2668 12.1953 15.2903 12.2805 15.2903C12.4509 15.2903 12.6686 15.1555 12.9336 14.8857C13.1987 14.6159 13.4496 14.3225 13.6861 14.0054C13.9227 13.6883 14.183 13.3949 14.4669 13.1251C14.7508 12.8553 14.9874 12.7205 15.1768 12.7205C15.3093 12.7205 15.4442 12.7537 15.5815 12.8199C15.7187 12.8861 15.8867 12.9879 16.0855 13.1251C16.2842 13.2623 16.4026 13.3452 16.4404 13.3736C16.677 13.5156 16.9303 13.6622 17.1999 13.8137C17.4697 13.9651 17.7702 14.1308 18.1014 14.3106C18.4327 14.4905 18.6882 14.6325 18.868 14.7366C19.5306 15.0679 19.8903 15.3188 19.947 15.489C19.9755 15.5553 19.9896 15.6547 19.9896 15.7872L19.99 15.7875Z" fill="#7B2C82"/>
</svg>
