<svg width="38" height="40" viewBox="0 0 38 40" fill="none" xmlns="http://www.w3.org/2000/svg">
<path d="M35.7719 26.7355C35.8869 27.7027 36.1212 28.6485 36.2942 29.6039C36.4533 30.4842 36.6822 31.3418 36.9208 32.2037C37.3356 33.7084 36.1685 34.7434 34.7466 34.4886C33.6847 34.2984 32.6906 33.9298 31.7147 33.4902C31.6395 33.4569 31.5546 33.3559 31.4654 33.4526C31.402 33.5224 31.4718 33.602 31.4858 33.6783C31.8673 35.673 32.3725 37.6366 32.9507 39.5818C33.0442 39.8935 33.0227 40.0031 32.6594 39.9999C30.6368 39.9838 28.613 39.9892 26.5893 39.987C26.6452 37.8322 26.672 35.6773 26.8042 33.5246L26.8279 33.5074L26.8042 33.4902C26.7946 33.43 26.786 33.3698 26.7774 33.3086C26.9106 33.0238 26.8247 32.7175 26.858 32.423H29.5448C29.4642 32.2338 29.3374 32.208 29.2407 32.1468C28.0176 31.4009 26.8418 30.5863 25.6833 29.7437C25.4544 29.5771 25.3909 29.4212 25.55 29.1912C25.9659 28.3637 26.4162 27.5523 26.7731 26.6946C26.8881 26.4797 27.0203 26.4603 27.2438 26.5796C28.0413 27.0095 28.8559 27.4072 29.6587 27.8166C29.7662 27.8876 29.8898 27.9972 29.8576 27.735C29.8329 27.52 29.8028 27.3104 29.777 27.0987C29.6251 25.8391 29.4739 24.5792 29.3234 23.3188C29.5846 23.0147 29.7458 22.6514 29.9231 22.2968C29.9569 22.2395 29.974 22.1739 29.9724 22.1075C29.9709 22.041 29.9509 21.9763 29.9145 21.9206C29.7963 21.7293 29.7254 21.5015 29.5824 21.3338C29.3385 21.0468 29.3503 20.5815 28.9483 20.4138C28.8914 20.273 28.9483 20.0839 28.7742 19.9925C28.7798 19.9014 28.754 19.8112 28.7012 19.7367C28.541 19.5218 28.7259 19.5433 28.8505 19.5272C29.7211 19.6615 30.5905 19.7991 31.4611 19.9291C33.6106 20.2515 34.7487 21.38 35.1313 23.5145C35.3259 24.5913 35.5021 25.6747 35.7719 26.7355ZM30.7904 27.6522C30.7904 27.8113 30.7904 27.9746 30.7851 28.1305C30.7797 28.2863 30.7851 28.4411 30.9689 28.527C31.33 28.6947 31.6814 28.8828 32.0436 29.0558C32.2166 29.1397 32.337 29.1493 32.2585 28.8882C32.1393 28.5099 32.0329 28.1283 31.92 27.7479C31.6492 26.8107 31.3826 25.8735 31.0785 24.8461C30.8904 25.8445 30.7088 26.7355 30.7904 27.6522Z" fill="#EDF2F4"/>
<path d="M18.8018 9.97701C18.359 8.55943 18.5503 7.16441 19.0049 5.79949C20.2688 2.00458 23.9294 -0.348032 27.9177 0.0420997C31.6159 0.403213 34.91 3.57048 35.456 7.26329C35.6563 8.59171 35.5698 9.94763 35.2023 11.2398C34.852 10.7788 34.4962 10.3252 33.8353 10.3338C33.8557 10.0985 33.774 9.96627 33.5129 10.0114C33.5107 9.95219 33.4881 9.89555 33.4489 9.85108C33.4097 9.80662 33.3564 9.77707 33.2979 9.76744C32.7605 9.6116 32.2232 9.43642 31.6783 9.26876C30.9894 8.49387 30.1113 8.10481 29.0989 7.99841C29.0924 7.97858 29.0884 7.95799 29.0871 7.93715C29.2418 7.77164 29.4331 7.82968 29.6083 7.86837C29.7663 7.89954 29.9748 7.99197 30.0146 7.78991C30.0543 7.58786 29.8136 7.54272 29.6481 7.52445C29.4643 7.50296 29.2762 7.52445 29.0903 7.51585C28.856 7.50188 28.6099 7.57926 28.3896 7.43847C28.2803 7.36329 28.1751 7.2822 28.0747 7.19558C26.8194 6.00584 25.8962 4.56676 25.0772 3.05783C24.9214 2.77194 24.7741 2.73003 24.4829 2.84288C22.098 3.73814 20.6783 5.46417 20.0904 7.91566C19.3639 8.41649 18.9877 9.13657 18.8018 9.97701Z" fill="#0C3038"/>
<path d="M29.661 27.8167C28.855 27.4072 28.0489 27.0063 27.2461 26.5796C27.0225 26.4603 26.8903 26.4818 26.7753 26.6946C26.7657 26.5334 26.7668 26.3722 26.7442 26.2121C26.699 25.8961 26.6786 25.5672 26.4508 25.3104C26.3989 25.2391 26.3249 25.187 26.2404 25.1621C26.1559 25.1372 26.0655 25.141 25.9833 25.1728C25.8156 25.2341 25.8672 25.3931 25.8693 25.5221C25.8693 25.6822 25.8876 25.8445 25.8876 26.0046C25.8876 26.1046 25.9295 26.2379 25.7898 26.2776C25.6823 26.3099 25.6297 26.2013 25.5749 26.1282C25.3051 25.7607 25.0375 25.3953 24.772 25.0213C24.657 24.8547 24.5324 24.7236 24.3142 24.7708C24.096 24.8181 24.1336 25.0352 24.0917 25.1943C23.6242 24.9965 23.5157 25.0868 23.5769 25.6242L23.5404 25.6575C23.4082 25.5887 23.2792 25.5307 23.1556 25.6801C23.0546 25.8026 23.0847 25.9187 23.147 26.0444C23.1868 26.1229 23.2545 26.197 23.2222 26.2991L23.2287 26.2927C23.1212 26.2529 23.0137 26.1454 22.9063 26.2626C22.7988 26.3797 22.8805 26.4926 22.9213 26.599C23.0452 26.8935 23.2125 27.1678 23.4179 27.4126C24.0047 28.1573 24.7742 28.6797 25.5544 29.1902C25.3954 29.4245 25.4588 29.576 25.6877 29.7426C26.8463 30.5852 28.022 31.3998 29.2451 32.1457C29.3418 32.2048 29.4686 32.2328 29.5493 32.4219H20.8138C20.2882 32.5144 20.2979 32.136 20.2549 31.7921C20.0894 30.4931 19.9206 29.1941 19.7487 27.8951C19.736 27.8432 19.7188 27.7925 19.6971 27.7436C19.5757 26.7494 19.4639 25.7532 19.3274 24.7612C19.2393 24.1163 19.1995 23.4597 19.0415 22.8266C19.0415 22.7192 19.0415 22.6192 19.0415 22.515C21.1838 22.52 23.3258 22.5261 25.4674 22.5332C26.1445 22.5332 26.1563 22.5407 26.1036 21.8486C26.0596 21.2575 26.0467 20.6728 26.1982 20.0957C26.8925 20.0957 27.5879 20.1054 28.2811 20.0957C28.5691 20.0903 28.7432 20.1344 28.711 20.4837C28.6938 20.6492 28.7604 20.8233 28.7819 20.9942C28.9248 22.127 29.0602 23.2608 29.2118 24.3936C29.3633 25.5264 29.5063 26.6742 29.661 27.8167Z" fill="#4C8AB1"/>
<path d="M19.0414 22.8234C19.1994 23.4607 19.2392 24.1131 19.3273 24.7579C19.4638 25.7499 19.5756 26.7462 19.697 27.7404C19.0328 28.0467 18.3729 28.3648 17.7023 28.656C16.6752 29.1062 15.5898 29.4094 14.4781 29.5567C13.8332 29.6405 13.1959 29.3793 12.5876 29.1397C9.91792 28.0896 7.46106 26.6312 5.0085 25.1631C4.93075 25.1115 4.85 25.0644 4.76668 25.0223C4.50445 24.9063 4.3787 24.7289 4.48618 24.4366C4.86234 23.8992 5.09233 23.2952 5.35672 22.7063C5.46419 22.4655 5.70063 22.2506 5.61358 21.94C5.85755 21.6917 6.08647 21.7691 6.3659 21.9088C8.80556 23.1071 11.2528 24.2872 13.6989 25.4694C13.9633 25.5973 14.2362 25.708 14.5028 25.8316C14.5607 25.8664 14.626 25.8871 14.6934 25.892C14.7608 25.8968 14.8284 25.8857 14.8908 25.8596C15.621 25.505 16.3126 25.0757 16.9543 24.5785C17.0617 24.5914 17.1251 24.5204 17.2036 24.471C17.9125 24.0397 18.5356 23.4811 19.0414 22.8234Z" fill="#EDF2F4"/>
<path d="M33.8352 10.3381C34.4962 10.3295 34.852 10.7831 35.2023 11.2441C35.3089 11.5691 35.3299 11.9161 35.2632 12.2516C35.1966 12.5871 35.0446 12.8997 34.8219 13.1593C34.3425 13.442 33.8406 13.6731 33.2732 13.5441C33.0002 13.4828 32.9088 13.5731 32.8003 13.7988C31.9319 15.6151 30.5164 16.7995 28.6088 17.4056C28.3938 17.4733 28.1649 17.4723 27.9704 17.5991C26.9319 17.7157 25.8836 17.7157 24.845 17.5991C24.3979 17.439 23.9347 17.3111 23.5048 17.1112C21.5982 16.2288 20.4149 14.7585 19.999 12.6854C20.4687 12.8262 20.9072 13.04 21.4059 13.1217C22.5881 13.3162 24.4689 12.6811 24.8966 11.012C25.0191 10.5337 25.3706 10.8121 25.6146 10.767C25.8585 10.7218 25.8779 10.9271 25.88 11.1162C25.8911 11.4931 26.0072 11.8594 26.2153 12.1738C26.9676 13.3678 28.0693 13.8214 29.4492 13.7429C30.9539 13.658 32.336 12.3952 32.2371 10.9378C32.2274 10.7863 32.2651 10.6821 32.4338 10.6455C32.9002 10.5391 33.3527 10.3564 33.8352 10.3381ZM25.5802 14.5296C25.7168 14.5512 25.8566 14.5431 25.9899 14.506C26.1232 14.4689 26.247 14.4037 26.3529 14.3147C26.4094 14.2774 26.4538 14.2243 26.4803 14.162C26.5069 14.0997 26.5145 14.0309 26.5023 13.9643C26.4593 13.7945 26.3056 13.8095 26.1734 13.8128C25.7328 13.8235 25.2964 13.8224 24.8687 13.6806C24.729 13.6344 24.5334 13.5581 24.4495 13.7601C24.4196 13.8437 24.4182 13.9348 24.4457 14.0192C24.4731 14.1036 24.5277 14.1765 24.6011 14.2265C24.7344 14.3421 24.8903 14.4287 25.0588 14.4808C25.2273 14.533 25.4049 14.5496 25.5802 14.5296ZM25.8822 11.918C25.865 11.6353 25.7285 11.4172 25.434 11.4032C25.118 11.3892 25.2739 11.6687 25.2373 11.8234C25.2137 11.9309 25.2126 12.0384 25.1847 12.1362C25.104 12.4307 25.2663 12.4704 25.4867 12.4178C25.736 12.3608 25.8607 12.1813 25.8822 11.9202V11.918Z" fill="#F8C0AF"/>
<path d="M27.9683 17.5948C28.1628 17.468 28.3982 17.469 28.6067 17.4013C30.5165 16.7952 31.9319 15.6108 32.7982 13.7945C32.9056 13.5688 32.9981 13.4785 33.271 13.5398C33.8385 13.6688 34.3404 13.4377 34.8197 13.155C34.9046 15.0573 35.5301 16.8092 36.2975 18.5287C37.4572 21.1242 37.4292 23.7058 36.1041 26.2465C36.0241 26.4301 35.9107 26.5974 35.7698 26.7398C35.4968 25.679 35.3238 24.5957 35.1314 23.5155C34.7488 21.3811 33.6064 20.2494 31.4612 19.9302C30.5906 19.8002 29.7212 19.6626 28.8506 19.5282C28.6206 19.4154 28.3605 19.4509 28.123 19.3799C28.0722 18.7852 28.0206 18.1902 27.9683 17.5948Z" fill="#0C3038"/>
<path d="M19.997 12.68C20.4129 14.7532 21.5962 16.2266 23.5028 17.1058C23.9327 17.3057 24.3959 17.4336 24.843 17.5937L24.9171 19.2789C24.8236 19.2789 24.7301 19.2886 24.6377 19.2875C22.7813 19.2639 20.9252 19.2399 19.0695 19.2155C18.9018 19.2155 18.7309 19.1747 18.5869 19.3326C18.1237 19.8442 17.8109 20.4203 17.8013 21.1242C17.7948 21.5735 17.8883 22.0184 18.1667 22.3709C18.3816 22.6471 18.7513 22.4204 19.0372 22.5117C19.0372 22.6192 19.0372 22.7192 19.0372 22.8234C18.5351 23.4825 17.9158 24.0432 17.2102 24.4774C17.1317 24.5258 17.0651 24.5967 16.9608 24.5849C16.0677 21.5251 17.1091 18.9092 18.9039 16.519C19.6692 15.499 19.8916 14.4092 19.8078 13.2023C19.7917 12.9669 19.8196 12.7187 19.7122 12.4919C19.8766 12.4511 19.9185 12.5951 19.997 12.68Z" fill="#0C3038"/>
<path d="M1.52313 22.4257C0.670858 21.7218 0.250634 20.7857 0.0356859 19.7206C-0.21043 18.4879 0.849265 17.0445 2.20451 17.2724C2.32395 17.2826 2.44404 17.2826 2.56348 17.2724C2.65053 17.3637 2.73114 17.368 2.80637 17.2573C2.94824 17.2229 3.09333 17.1961 3.23627 17.1498C4.50769 16.75 5.68453 17.5153 5.86294 18.8533C5.99298 19.8302 5.79415 20.7438 5.36211 21.6165C4.99132 22.1667 4.50231 22.5021 3.81663 22.5278C3.48668 22.5397 3.16103 22.6235 2.83109 22.659C2.40119 22.7052 1.97774 22.7235 1.60266 22.4515L1.51775 22.4193L1.52313 22.4257ZM5.2944 18.7534C5.30085 18.5169 4.82904 17.7506 4.53133 17.6249C4.47266 17.5911 4.40486 17.5767 4.33754 17.5837C4.27022 17.5906 4.2068 17.6186 4.15625 17.6636C4.04232 17.771 4.11971 17.8721 4.18311 17.986C4.36797 18.3084 4.59259 18.6104 4.70007 18.9758C4.74413 19.1274 4.84516 19.2413 5.02249 19.1994C5.19982 19.1575 5.29117 19.0296 5.2944 18.7534ZM5.13426 20.0914C5.32986 20.0914 5.44916 20.0366 5.44809 19.8453C5.45036 19.8153 5.4463 19.7851 5.43617 19.7568C5.42605 19.7284 5.41009 19.7025 5.38932 19.6808C5.36855 19.659 5.34343 19.6418 5.31561 19.6303C5.28778 19.6189 5.25785 19.6134 5.22776 19.6142C5.15352 19.6057 5.07887 19.6265 5.01981 19.6723C4.96075 19.7181 4.92197 19.7852 4.91179 19.8593C4.8817 20.0323 5.01067 20.085 5.13426 20.0914Z" fill="#8CBA40"/>
<path d="M20.8136 32.423H23.4553C23.4381 32.7454 23.4198 33.0603 23.4027 33.3785C23.3543 34.7595 23.3446 36.1416 23.4155 37.5205C23.4585 38.3491 23.5069 39.181 23.7122 39.9924H20.0258C19.5959 39.9924 19.5594 39.9419 19.64 39.5346C20.0366 37.5409 20.4245 35.5473 20.661 33.5268C20.7018 33.1571 20.7609 32.7906 20.8136 32.423Z" fill="#EDF2F4"/>
<path d="M23.7123 39.9924C23.507 39.1821 23.4587 38.3502 23.4157 37.5205C23.3448 36.1416 23.3544 34.7595 23.4028 33.3795C24.5259 33.3161 25.6501 33.3032 26.7743 33.3075L26.8001 33.4891L26.7872 33.5063L26.8011 33.5235C26.6722 35.673 26.6453 37.8311 26.5862 39.986L23.7123 39.9924Z" fill="#404551"/>
<path d="M19.9969 12.68C19.9173 12.594 19.8765 12.4511 19.7142 12.4908C19.3262 11.9836 18.9372 11.4795 18.8351 10.8153C18.7921 10.5348 18.819 10.2564 18.8018 9.97701C18.9877 9.13656 19.3638 8.41648 20.0914 7.91243C20.6449 7.54487 21.2511 7.4159 21.9185 7.43094C22.6591 7.4377 23.3735 7.7058 23.9357 8.18795C24.4979 8.6701 24.8717 9.33531 24.9912 10.0662C25.0213 10.2554 24.9912 10.4617 25.2803 10.423C25.5296 10.3897 25.8488 10.5681 25.9563 10.1382C26.0511 9.75992 26.2375 9.41074 26.4991 9.12151C27.1966 8.34018 28.0951 8.0414 29.1075 8.00271C30.1231 8.11018 31.0012 8.49816 31.6868 9.27305C31.9201 9.60622 31.9566 10.1887 32.2941 10.2833C32.6487 10.3833 33.1055 10.121 33.5171 10.0157C33.7783 9.96626 33.86 10.0985 33.8395 10.3381C33.3548 10.3607 32.9045 10.5434 32.4359 10.6444C32.2672 10.681 32.2296 10.7852 32.2393 10.9368C32.3381 12.3941 30.9496 13.6569 29.4514 13.7418C28.0714 13.8203 26.9709 13.3667 26.2175 12.1727C26.0094 11.8583 25.8932 11.492 25.8822 11.1152C25.8822 10.926 25.8585 10.7218 25.6167 10.7659C25.3749 10.8099 25.0213 10.5326 24.8988 11.0109C24.4689 12.68 22.587 13.3152 21.408 13.1206C20.905 13.0346 20.4665 12.8208 19.9969 12.68ZM19.9324 8.49494C19.7594 8.58737 19.6712 8.75718 19.5713 8.90872C18.8985 9.93294 19.0264 11.3441 19.8464 12.0255C19.9004 12.1339 19.9878 12.2221 20.0957 12.277C20.8481 12.7681 21.6563 12.9551 22.5354 12.7477C23.5263 12.5145 24.2625 11.9642 24.5613 10.9539C24.8601 9.94369 24.4893 9.14516 23.7466 8.48204C22.688 7.54379 20.8717 7.46856 19.9324 8.49494ZM29.043 8.39821C28.6411 8.36846 28.2375 8.42716 27.8608 8.57017C26.2841 9.17633 25.6952 10.8798 26.656 12.234C27.5362 13.4764 29.4868 13.8128 30.8292 12.9207C31.9587 12.1684 32.2565 10.7659 31.5041 9.64921C30.9141 8.78082 30.0565 8.42508 29.043 8.40359V8.39821Z" fill="#ECE9E8"/>
<path d="M1.59944 22.4537C1.97452 22.7256 2.40119 22.7073 2.82787 22.6611C3.15781 22.6257 3.48346 22.5418 3.8134 22.53C4.50124 22.5042 4.9881 22.1689 5.35888 21.6186C5.43519 21.7347 5.47496 21.8819 5.6179 21.941C5.70495 22.2516 5.46958 22.4666 5.36103 22.7073C5.09665 23.2963 4.86665 23.9046 4.49049 24.4377C3.58448 24.0529 2.66343 23.7832 1.65855 23.9218C1.48229 23.9465 1.33612 23.9272 1.27486 23.7348C1.22543 23.5736 1.30388 23.493 1.66392 23.3199C1.4436 23.1276 1.17276 23.1351 0.929873 23.0706C0.814875 23.0394 0.695579 23.0298 0.578432 23.0072C0.418295 22.976 0.29255 22.8997 0.31297 22.7159C0.318495 22.6341 0.356178 22.5577 0.417794 22.5036C0.479411 22.4494 0.559955 22.4218 0.641841 22.4268C0.935246 22.415 1.22972 22.4268 1.52313 22.4215H1.51453C1.5242 22.4827 1.55322 22.4902 1.59944 22.4537Z" fill="#F8C0AF"/>
<path d="M2.52705 16.9048C1.83277 17.4024 1.0439 17.2541 0.586065 16.5598C0.444199 16.3449 0.466769 16.2374 0.712885 16.1611C0.92742 16.0848 1.15703 16.0605 1.38278 16.0904C1.60852 16.1203 1.82391 16.2035 2.01117 16.3331C2.10145 16.3922 2.15196 16.5888 2.325 16.4685C2.21752 16.5759 2.3078 16.6007 2.38948 16.6297L2.52705 16.9048Z" fill="#53A34B"/>
<path d="M2.52689 16.9048C2.48068 16.8113 2.43339 16.7178 2.3861 16.6243C2.3861 16.5609 2.44521 16.4749 2.32161 16.4631C2.32161 16.4265 2.32161 16.3889 2.32161 16.3556C2.31194 16.2417 2.03358 16.1503 2.28292 16.016C2.53226 15.8816 2.57848 16.0826 2.64511 16.2428C2.7599 16.5673 2.81524 16.9099 2.80847 17.2541C2.73324 17.3616 2.65263 17.3616 2.56558 17.2691C2.55161 17.1488 2.53979 17.0273 2.52689 16.9048Z" fill="#404551"/>
<path d="M23.2222 26.3002C23.2545 26.1981 23.1868 26.1239 23.147 26.0455C23.0847 25.9197 23.0546 25.8037 23.1556 25.6811C23.2792 25.5318 23.4082 25.5898 23.5404 25.6586C23.5576 25.6994 23.5758 25.7392 23.593 25.78C23.6511 25.7209 23.621 25.6725 23.5769 25.6253C23.5156 25.0879 23.6242 24.9965 24.0917 25.1954C24.1336 25.0363 24.0831 24.8214 24.3142 24.7719C24.5452 24.7225 24.657 24.8557 24.772 25.0223C25.0332 25.3963 25.3094 25.7617 25.5748 26.1293C25.6297 26.2024 25.6823 26.3109 25.7898 26.2787C25.9295 26.2389 25.8876 26.1057 25.8876 26.0057C25.8876 25.8445 25.8715 25.6833 25.8693 25.5232C25.8693 25.3942 25.8156 25.2351 25.9832 25.1739C26.0654 25.1421 26.1558 25.1383 26.2404 25.1632C26.3249 25.1881 26.3989 25.2402 26.4508 25.3114C26.6786 25.5704 26.699 25.8972 26.7442 26.2131C26.7667 26.3722 26.7657 26.5356 26.7753 26.6957C26.4185 27.5555 25.9682 28.3648 25.5523 29.1923C24.772 28.6818 24.0025 28.1595 23.4157 27.4147C23.2104 27.1699 23.043 26.8957 22.9192 26.6011C22.8783 26.4937 22.7977 26.3744 22.9041 26.2647C23.0105 26.1551 23.1191 26.2551 23.2265 26.2948C23.2405 26.312 23.2265 26.3873 23.2824 26.3195L23.2222 26.3002Z" fill="#F8C0AF"/>
<path d="M26.7743 33.3086C25.6501 33.3086 24.5259 33.3172 23.4028 33.3806C23.42 33.0582 23.4383 32.7433 23.4555 32.4241H26.8549C26.8216 32.7175 26.9043 33.0238 26.7743 33.3086Z" fill="#51B8AF"/>
<path d="M29.661 27.8167C29.5063 26.6731 29.3472 25.5296 29.1989 24.385C29.0506 23.2404 28.9162 22.1184 28.769 20.9856C28.7475 20.8147 28.6809 20.6406 28.698 20.4751C28.7346 20.1258 28.5605 20.0817 28.2682 20.0871C27.5749 20.1022 26.8796 20.0871 26.1853 20.0871C26.1853 20.0592 26.1907 20.0323 26.1939 20.0044L27.7286 19.9807C27.7449 19.9862 27.762 19.9891 27.7791 19.9893H28.3778H28.7679C28.9431 20.0807 28.8851 20.2698 28.942 20.4106C29.028 21.3843 29.1505 22.3527 29.3171 23.3124C29.469 24.5734 29.6202 25.8334 29.7706 27.0923C29.7964 27.3072 29.8265 27.5157 29.8512 27.7285C29.8921 27.9972 29.7685 27.8876 29.661 27.8167Z" fill="#4A7D9E"/>
<path d="M30.7906 27.6522C30.709 26.7355 30.8906 25.8445 31.0701 24.845C31.3689 25.8735 31.6408 26.8107 31.9116 27.7468L30.7906 27.6522Z" fill="#0C3038"/>
<path d="M29.3258 23.3189C29.1592 22.3516 29.0367 21.3843 28.9507 20.4171C29.3526 20.589 29.3408 21.0501 29.5848 21.337C29.7277 21.5047 29.7997 21.7325 29.9169 21.9238C29.9532 21.9795 29.9733 22.0442 29.9748 22.1107C29.9763 22.1772 29.9592 22.2427 29.9255 22.3C29.7481 22.6514 29.5912 23.0201 29.3258 23.3189Z" fill="#ECE9E8"/>
<path d="M30.7904 27.6522L31.9114 27.7479C32.0242 28.1283 32.1263 28.5099 32.2499 28.8882C32.3327 29.1493 32.2123 29.1397 32.035 29.0558C31.6771 28.8828 31.3256 28.6947 30.9602 28.5271C30.7754 28.4411 30.77 28.296 30.7765 28.1305C30.7829 27.965 30.7894 27.8113 30.7904 27.6522Z" fill="white"/>
<path d="M28.7765 19.9925H28.3864C28.5347 19.7034 28.3111 19.6604 28.123 19.5927C28.123 19.5196 28.123 19.4476 28.123 19.3778C28.3616 19.4487 28.6217 19.4132 28.8517 19.5261C28.7271 19.5422 28.5422 19.5196 28.7023 19.7357C28.7558 19.8102 28.782 19.9009 28.7765 19.9925Z" fill="#ECE9E8"/>
<path d="M26.8011 33.5236L26.7871 33.5074L26.8 33.4902L26.8247 33.5064L26.8011 33.5236Z" fill="#51B8AF"/>
<path d="M29.1 8.00271C28.0876 8.0414 27.1891 8.34018 26.4916 9.12151C26.23 9.41074 26.0436 9.75991 25.9488 10.1382C25.8414 10.5681 25.519 10.3897 25.2728 10.423C24.9816 10.4617 25.0138 10.2554 24.9837 10.0662C24.8631 9.33629 24.4888 8.67234 23.9267 8.19127C23.3646 7.7102 22.6508 7.44286 21.911 7.43632C21.2469 7.42127 20.6407 7.55024 20.084 7.9178C20.6719 5.46632 22.0916 3.74028 24.4765 2.84502C24.7677 2.73755 24.9149 2.77731 25.0708 3.05997C25.893 4.56461 26.8162 6.00799 28.0725 7.20202C28.1726 7.28836 28.2774 7.36908 28.3864 7.44384C28.1338 7.64052 27.8049 7.57281 27.5266 7.68888C27.4084 7.73832 27.2858 7.78561 27.3342 7.9393C27.374 8.06827 27.4857 8.06182 27.5986 8.02313C27.6864 7.99051 27.7776 7.9678 27.8705 7.95542C28.2735 7.9135 28.6765 7.74047 29.0828 7.9436C29.086 7.96394 29.0918 7.9838 29.1 8.00271ZM22.2464 6.61629C22.194 6.60509 22.1408 6.59861 22.0873 6.59694C21.9368 6.59694 21.7101 6.52064 21.6875 6.73988C21.6617 7.0032 21.91 6.94731 22.069 6.95483C22.7107 6.98142 23.341 7.13369 23.924 7.403C24.0498 7.45889 24.2056 7.59323 24.2937 7.38366C24.3819 7.17408 24.1788 7.13969 24.0562 7.08273C23.4883 6.81299 22.8739 6.65465 22.2464 6.61629Z" fill="#F8C0AF"/>
<path d="M29.088 7.94147C28.6818 7.73297 28.2788 7.91137 27.8757 7.95329C27.7829 7.96567 27.6917 7.98838 27.6038 8.021C27.491 8.05969 27.3792 8.06614 27.3394 7.93717C27.2911 7.78348 27.4136 7.73619 27.5318 7.68675C27.808 7.57068 28.1369 7.63839 28.3916 7.44171C28.613 7.58358 28.8591 7.5062 29.0934 7.52017C29.2793 7.53091 29.4674 7.50727 29.6512 7.52877C29.8167 7.54704 30.0585 7.5782 30.0177 7.79423C29.9769 8.01025 29.7694 7.9017 29.6114 7.87268C29.4341 7.83829 29.2428 7.77596 29.088 7.94147Z" fill="#19272B"/>
<path d="M33.5129 10.0157C33.1013 10.1232 32.6445 10.3833 32.2898 10.2833C31.9524 10.1888 31.9158 9.60624 31.6826 9.27307C32.22 9.44073 32.7574 9.61591 33.3023 9.77175C33.3599 9.78227 33.4123 9.8122 33.4506 9.85658C33.4889 9.90096 33.5109 9.95712 33.5129 10.0157Z" fill="#F8C0AF"/>
<path d="M26.2023 20.0108C26.2023 20.0388 26.197 20.0656 26.1938 20.0936C26.0422 20.6707 26.0551 21.2554 26.0992 21.8465C26.1518 22.5386 26.14 22.5343 25.4629 22.5311C23.3213 22.5225 21.1794 22.5164 19.037 22.5128C18.7512 22.4215 18.3847 22.6482 18.1665 22.372C17.8881 22.0195 17.7946 21.5746 17.8011 21.1253C17.8108 20.4214 18.1235 19.8453 18.5867 19.3337C18.7307 19.1757 18.9016 19.2144 19.0693 19.2166C20.925 19.2395 22.7811 19.2635 24.6375 19.2886C24.73 19.2886 24.8235 19.2832 24.917 19.2811L26.5183 19.2983C26.4474 19.5497 26.2077 19.7282 26.2023 20.0108Z" fill="white"/>
<path d="M26.5185 19.2972L24.9172 19.28L24.843 17.5937C25.8815 17.7103 26.9298 17.7103 27.9684 17.5937C28.0214 18.1877 28.0737 18.7824 28.1253 19.3778C28.1253 19.4509 28.1253 19.5229 28.1253 19.5927L27.79 19.9904C27.7728 19.9902 27.7557 19.9873 27.7394 19.9818C27.6051 19.4401 27.3117 19.2746 26.5185 19.2972Z" fill="#F3B0A6"/>
<path d="M25.5801 14.5296C25.4046 14.5492 25.227 14.5321 25.0584 14.4793C24.8899 14.4266 24.7341 14.3394 24.6011 14.2233C24.5277 14.1733 24.4731 14.1004 24.4456 14.016C24.4182 13.9316 24.4196 13.8404 24.4495 13.7569C24.5334 13.5548 24.729 13.6311 24.8687 13.6774C25.2986 13.8192 25.7285 13.8203 26.1734 13.8096C26.3056 13.8096 26.4593 13.7913 26.5023 13.9611C26.5145 14.0277 26.5069 14.0965 26.4803 14.1588C26.4538 14.2211 26.4094 14.2742 26.3529 14.3115C26.2472 14.401 26.1235 14.4669 25.9902 14.5045C25.8569 14.5422 25.7171 14.5507 25.5801 14.5296Z" fill="#F26F73"/>
<path d="M25.8821 11.9201C25.8606 12.1813 25.7359 12.3608 25.4866 12.4199C25.2663 12.4726 25.104 12.4328 25.1846 12.1383C25.2125 12.0373 25.2136 11.9287 25.2372 11.8256C25.2738 11.6708 25.1179 11.3957 25.4339 11.4053C25.7284 11.4193 25.8649 11.6375 25.8821 11.9201Z" fill="#F3B0A6"/>
<path d="M5.29429 18.7533C5.29429 19.0296 5.20293 19.1542 5.0256 19.1961C4.84827 19.2381 4.74402 19.1241 4.70318 18.9726C4.5957 18.6072 4.37108 18.3052 4.18623 17.9828C4.12282 17.8753 4.04544 17.7732 4.15936 17.6603C4.20991 17.6153 4.27334 17.5874 4.34066 17.5804C4.40798 17.5735 4.47577 17.5879 4.53444 17.6216C4.82892 17.7538 5.30181 18.5169 5.29429 18.7533Z" fill="#AECC4A"/>
<path d="M5.13436 20.0914C5.01077 20.085 4.8818 20.0323 4.91189 19.8593C4.92208 19.7852 4.96085 19.7181 5.01991 19.6723C5.07897 19.6265 5.15362 19.6057 5.22787 19.6142C5.25795 19.6134 5.28788 19.6189 5.31571 19.6303C5.34354 19.6418 5.36865 19.659 5.38942 19.6808C5.41019 19.7025 5.42615 19.7284 5.43627 19.7568C5.4464 19.7851 5.45046 19.8153 5.44819 19.8453C5.44926 20.0366 5.32997 20.0957 5.13436 20.0914Z" fill="#AECC4A"/>
<path d="M1.59955 22.4537C1.55334 22.4902 1.52432 22.4827 1.51465 22.4214L1.59955 22.4537Z" fill="white"/>
<path d="M29.0429 8.40361C30.0564 8.43047 30.9141 8.78621 31.4998 9.65461C32.2521 10.7713 31.9544 12.177 30.8248 12.9261C29.4825 13.8182 27.5318 13.4818 26.6516 12.2394C25.6908 10.8852 26.2798 9.18172 27.8564 8.57556C28.2345 8.43193 28.6396 8.37322 29.0429 8.40361ZM29.1805 10.7132C29.1805 9.96736 28.8753 9.51811 28.4604 9.4848C28.0767 9.4547 27.6726 9.85451 27.5866 10.3854C27.5157 10.8261 27.5802 11.2452 27.9456 11.5547C28.0344 11.6386 28.1483 11.6907 28.2698 11.7032C28.3912 11.7156 28.5134 11.6876 28.6173 11.6235C28.7817 11.5318 28.9197 11.3994 29.0183 11.2391C29.1169 11.0788 29.1727 10.8959 29.1805 10.7079V10.7132Z" fill="#F8C0AF"/>
<path d="M19.9324 8.49494C20.8717 7.46856 22.688 7.53949 23.7467 8.48527C24.4893 9.14946 24.8579 9.95766 24.5613 10.9572C24.2647 11.9567 23.5263 12.5177 22.5354 12.7509C21.6563 12.9583 20.8449 12.7713 20.0958 12.2802C19.9878 12.2253 19.9004 12.1371 19.8464 12.0287C19.7948 11.5934 19.7658 11.1558 19.7594 10.7175C19.7411 9.96948 19.8668 9.23543 19.9324 8.49494ZM21.9067 10.1146C21.9067 10.7121 22.2023 11.1324 22.6117 11.1657C23.0212 11.199 23.364 10.869 23.4887 10.2962C23.5117 10.2061 23.5257 10.1139 23.5306 10.0211C23.5371 9.4665 23.2082 9.00222 22.7966 8.97427C22.385 8.94633 22.0034 9.35258 21.9293 9.9093C21.9185 9.98883 21.9121 10.0684 21.9067 10.1146Z" fill="#F8C0AF"/>
<path d="M19.9324 8.49493C19.8669 9.23543 19.7411 9.96948 19.7594 10.7186C19.7658 11.1568 19.7949 11.5945 19.8465 12.0298C19.0264 11.3441 18.8985 9.93294 19.5713 8.91301C19.6713 8.75717 19.7594 8.58736 19.9324 8.49493Z" fill="#0C3038"/>
<path d="M2.3217 16.4642C2.4453 16.476 2.38941 16.562 2.38619 16.6254C2.30451 16.5953 2.21745 16.5716 2.3217 16.4642Z" fill="white"/>
<path d="M23.5724 25.6252C23.6165 25.6725 23.6466 25.7209 23.5885 25.78C23.5714 25.7392 23.5531 25.6994 23.5359 25.6586L23.5724 25.6252Z" fill="#4C8AB1"/>
<path d="M23.2222 26.3002L23.2845 26.3185C23.2318 26.3862 23.2426 26.3109 23.2286 26.2937L23.2222 26.3002Z" fill="#4C8AB1"/>
<path d="M26.5184 19.2972C27.3115 19.2746 27.6049 19.4401 27.7371 19.9861L26.2024 20.0097C26.2078 19.7282 26.4474 19.5498 26.5184 19.2972Z" fill="#E8CFD8"/>
<path d="M27.7876 19.9947L28.1229 19.597C28.311 19.6647 28.5345 19.7045 28.3862 19.9968L27.7876 19.9947Z" fill="#51B8AF"/>
<path d="M22.2464 6.61631C22.8738 6.654 23.4882 6.81161 24.0562 7.0806C24.1788 7.13756 24.3787 7.18807 24.2938 7.38153C24.2088 7.57498 24.0498 7.45676 23.924 7.40087C23.3407 7.13142 22.71 6.97915 22.068 6.95271C21.9089 6.95271 21.6606 7.00322 21.6864 6.73776C21.709 6.52281 21.9358 6.60019 22.0862 6.59482C22.1402 6.59713 22.1938 6.60432 22.2464 6.61631Z" fill="#19272B"/>
<path d="M29.1806 10.7078C29.1719 10.895 29.1157 11.0768 29.0171 11.2361C28.9186 11.3954 28.781 11.5269 28.6174 11.6181C28.5135 11.6822 28.3913 11.7102 28.2699 11.6978C28.1484 11.6853 28.0345 11.6332 27.9457 11.5494C27.5803 11.2398 27.5158 10.8207 27.5867 10.38C27.6727 9.84912 28.0768 9.44931 28.4605 9.47941C28.8753 9.51272 29.1816 9.96197 29.1806 10.7078ZM27.8038 10.6272C27.8371 10.8841 27.9113 11.1517 28.209 11.127C28.526 11.1001 28.6174 10.8185 28.6109 10.5305C28.6056 10.2715 28.5164 10.0136 28.2165 10.035C27.8887 10.0587 27.8307 10.3499 27.8038 10.6272Z" fill="#19272B"/>
<path d="M21.9067 10.1146C21.9121 10.0684 21.9186 9.98884 21.9293 9.9093C22.0035 9.35259 22.3818 8.94204 22.7966 8.97428C23.2115 9.00652 23.5371 9.46651 23.5307 10.0211C23.5257 10.1139 23.5117 10.2061 23.4888 10.2962C23.3673 10.869 23.032 11.2001 22.6118 11.1657C22.1915 11.1313 21.911 10.7121 21.9067 10.1146ZM22.1658 10.0533C22.1658 10.3585 22.2378 10.6197 22.5236 10.624C22.8514 10.6294 22.9535 10.3349 22.9611 10.0598C22.9686 9.81903 22.9009 9.54282 22.5946 9.54067C22.256 9.53744 22.1851 9.81473 22.1658 10.0533Z" fill="#19272B"/>
<path d="M27.8037 10.6272C27.8306 10.3499 27.8886 10.0587 28.2164 10.035C28.5163 10.0135 28.6055 10.2715 28.6108 10.5305C28.6173 10.8185 28.5259 11.1001 28.2089 11.127C27.9112 11.1517 27.837 10.8841 27.8037 10.6272Z" fill="#EDF2F4"/>
<path d="M22.1657 10.0533C22.185 9.81474 22.256 9.53745 22.5956 9.54068C22.9019 9.54068 22.9696 9.81904 22.9621 10.0598C22.9535 10.3349 22.8546 10.6294 22.5247 10.624C22.2377 10.6197 22.1614 10.3586 22.1657 10.0533Z" fill="#EDF2F4"/>
</svg>
