<svg width="40" height="40" viewBox="0 0 40 40" fill="none" xmlns="http://www.w3.org/2000/svg">
<path d="M14.4368 24.5772C12.8237 23.3906 11.6203 21.731 10.9937 19.829C10.9408 19.6724 10.855 19.6501 10.6973 19.6681C9.95641 19.7549 9.34674 19.4628 8.87255 18.9166C8.0533 17.9735 7.71883 16.8844 8.03743 15.6471C8.09458 15.3943 8.20298 15.156 8.3559 14.9468C8.50883 14.7376 8.70304 14.562 8.92653 14.4309C9.20173 14.2764 9.15516 14.1303 9.08424 13.9017C8.36767 11.5646 8.33168 9.22435 9.10753 6.89575C9.40919 5.99077 9.89925 5.20222 10.6952 4.63065C10.7699 4.57663 10.8243 4.49911 10.8497 4.41049C11.3948 2.74554 12.6184 1.73048 14.1458 1.03825C15.7821 0.297333 17.5265 0.0612974 19.3026 0.00625773C22.8558 -0.0995878 25.865 1.13669 28.2592 3.76166C30.2322 5.92302 30.954 8.51624 30.6937 11.4111C30.6202 12.2798 30.4869 13.1424 30.2946 13.9927C30.2741 14.0448 30.2751 14.1029 30.2973 14.1542C30.3195 14.2056 30.3612 14.2461 30.4132 14.2668C31.4949 14.9538 31.8654 15.8545 31.6082 17.1405C31.4356 17.9989 31.043 18.7282 30.338 19.268C30.0209 19.5283 29.6252 19.6738 29.215 19.6808C29.0711 19.6808 28.9684 19.6978 28.9144 19.8608C28.2793 21.7522 27.1563 23.2986 25.5273 24.5465C25.739 24.6132 25.8999 24.6609 26.0566 24.7201C27.5141 25.2494 28.5387 26.2369 29.1155 27.6764C29.1464 27.7794 29.2045 27.8722 29.2837 27.945C29.3628 28.0178 29.4601 28.068 29.5654 28.0903C30.9903 28.4628 32.3879 28.9328 33.7484 29.4969C34.6242 29.8701 35.3812 30.4759 35.9373 31.2487C37.7959 33.7297 39.0618 36.4912 39.8747 39.4708C39.9806 39.8444 39.8631 39.9862 39.4778 40H0.632472C-0.022712 40 -0.0936272 39.9132 0.0831349 39.2866C0.843567 36.538 2.06664 33.939 3.69988 31.6012C4.46884 30.4883 5.57264 29.6496 6.8509 29.2069C8.45975 28.6195 10.0982 28.1421 11.7547 27.7156C11.94 27.6669 12.0416 27.6097 12.0807 27.398C12.3263 26.075 13.0704 25.1541 14.3289 24.6609C14.368 24.6372 14.4042 24.6092 14.4368 24.5772ZM30.0131 11.7424C30.0332 11.4429 30.0374 11.1433 30.0713 10.8427C30.1158 10.4617 30.1697 10.0616 30.029 9.67842C30.0402 9.19715 29.9828 8.71673 29.8585 8.25163C29.7161 7.43727 29.4239 6.65636 28.997 5.94843C28.925 5.80977 28.8647 5.6637 28.78 5.53351C28.3069 4.80847 27.838 4.07919 27.1193 3.56161C27.0929 3.50199 27.0571 3.44697 27.0134 3.39861C26.3254 2.85139 25.6374 2.30099 24.8521 1.89878C22.9657 0.910618 20.833 0.491435 18.713 0.692137C17.4238 0.80645 16.1558 0.970511 14.9428 1.43306C13.8335 1.85644 12.8259 2.42271 12.1146 3.41872C12.0013 3.57537 11.833 3.71826 11.7822 3.89396C11.5536 4.68463 11.0202 5.25091 10.4496 5.79918C9.8421 6.51047 9.59018 7.37099 9.42295 8.26539C9.24102 9.12509 9.16354 10.0036 9.1922 10.8819C9.27794 12.4315 9.64099 13.9017 10.4063 15.2597C10.456 14.6468 10.5428 14.0498 10.5841 13.4508C10.6402 12.6379 10.8222 11.8461 10.9281 11.0428C11.1017 10.3664 11.2805 9.69219 11.5748 9.05605C11.7007 8.78403 11.832 8.51412 12.2099 8.60092C13.6123 8.92586 15.0243 9.21059 16.4437 9.4318C17.5551 9.60433 18.6611 9.82873 19.7916 9.85519C19.8244 9.87636 19.8561 9.9134 19.89 9.91552C20.9082 10.0023 21.9244 10.1134 22.9437 10.159C23.8772 10.2002 24.8161 10.2045 25.7486 10.159C26.4609 10.1219 27.1838 10.0965 27.8729 9.86366H28.345C28.468 10.0341 28.5505 10.2303 28.5863 10.4373C28.6995 10.9041 28.6921 11.3984 28.8943 11.8461L29.342 14.7389C29.4606 14.6913 29.4479 14.6204 29.469 14.5611C29.7389 13.6402 29.8776 12.695 30.0131 11.7424ZM16.9496 27.8563C16.9685 27.8911 16.9924 27.9228 17.0205 27.9505C18.8347 29.2292 21.4269 29.208 23.0347 27.8108C23.0834 27.7706 23.168 27.7367 23.1755 27.6902C23.2813 27.0424 23.5089 26.4105 23.4242 25.7056C21.1959 26.5661 18.727 26.5661 16.4987 25.7056C16.4045 26.3946 16.6406 27.0128 16.7305 27.6468C16.7464 27.7568 16.8459 27.8182 16.9496 27.8563ZM21.7741 38.6409C21.8545 38.6981 21.8905 38.6219 21.9328 38.5827C23.2125 37.3824 24.489 36.179 25.775 34.984C25.9317 34.8379 25.92 34.695 25.8809 34.5225C25.72 33.8874 25.5605 33.2488 25.4024 32.6067C25.3051 32.2119 25.3696 32.1124 25.7676 32.0499C26.2968 31.9674 26.8176 31.8891 27.3923 31.8023C26.5816 30.2887 25.8047 28.8259 25.014 27.3695C24.8986 27.1578 24.689 27.0255 24.4848 26.9037C24.0614 26.6497 24.0212 26.6709 23.9312 27.1514C23.3861 30.0251 22.8315 32.8967 22.298 35.7725C22.1202 36.7251 21.881 37.6777 21.7889 38.6473C21.7784 38.6519 21.7685 38.6576 21.7592 38.6642C21.7592 38.6642 21.7645 38.678 21.7677 38.6854L21.7741 38.6409ZM11.0911 16.0323C11.0545 17.037 11.1614 18.0417 11.4086 19.0161C12.5539 23.6532 17.264 26.5491 21.8937 25.496C26.2217 24.5106 29.0912 20.4694 28.8001 15.9244C28.6942 14.2097 28.328 12.5278 28.0126 10.8438C27.9734 10.6321 27.9195 10.5262 27.657 10.5823C26.5403 10.8078 25.4056 10.8396 24.2699 10.829C20.4595 10.7951 16.7136 10.1939 12.9899 9.42757C12.1432 9.25398 12.1432 9.24128 11.8764 10.0891C11.271 12.0229 11.1472 14.0234 11.0911 16.0323ZM12.6618 30.2156C11.3112 29.9701 9.80399 31.0412 9.5923 32.4204C9.39225 33.6905 9.52562 34.9787 9.52138 36.2584C9.52138 36.6172 9.79658 36.814 10.1649 36.8215C10.5333 36.8289 10.8773 36.8289 11.2329 36.8215C11.4774 36.8162 11.7187 36.8458 11.7113 37.1485C11.7039 37.4512 11.4541 37.4661 11.216 37.4597C10.8868 37.4544 10.5566 37.4597 10.2274 37.4597C9.39754 37.4523 8.87572 36.9305 8.87255 36.0911C8.87255 35.0591 8.87255 34.0282 8.87255 32.9973C8.87324 32.261 9.10657 31.5438 9.53921 30.948C9.97185 30.3523 10.5817 29.9085 11.2816 29.6801C11.5335 29.5964 11.9018 29.6801 12.0151 29.426C12.1209 29.1942 12.0225 28.8799 12.0447 28.6036C12.067 28.3274 11.9632 28.3125 11.7272 28.3835C11.198 28.5422 10.6592 28.6618 10.1289 28.8153C8.6471 29.2387 7.17796 29.6864 5.80091 30.3924C5.54582 30.5236 5.44104 30.6358 5.55323 30.9555C6.49385 33.6369 7.41964 36.325 8.33062 39.0199C8.42588 39.2993 8.55501 39.3713 8.83339 39.3702C11.723 39.3607 14.6115 39.3649 17.5011 39.3618C17.5985 39.3618 17.7064 39.4041 17.8186 39.3046L15.6033 37.2173C15.5324 37.1506 15.4678 37.0956 15.3651 37.1697C14.6242 37.6989 13.7774 37.3761 12.9804 37.4523C12.9401 37.456 12.8995 37.451 12.8613 37.4376C12.8232 37.4241 12.7884 37.4026 12.7593 37.3745C12.7303 37.3463 12.7076 37.3122 12.693 37.2745C12.6784 37.2368 12.6721 37.1963 12.6745 37.1559C12.671 37.1129 12.6767 37.0696 12.6913 37.029C12.7059 36.9883 12.729 36.9513 12.759 36.9203C12.7891 36.8893 12.8255 36.8651 12.8657 36.8494C12.9058 36.8336 12.9489 36.8266 12.9921 36.8289C13.2154 36.8172 13.4408 36.8289 13.6642 36.8289C13.9944 36.8289 14.3247 36.8289 14.6538 36.8204C14.7068 36.8241 14.7598 36.8139 14.8076 36.7907C14.8553 36.7674 14.8961 36.7321 14.9259 36.6881C14.9872 36.5611 14.838 36.5145 14.7703 36.4499C14.3518 36.0463 13.9284 35.6483 13.5001 35.256C13.4176 35.1916 13.3578 35.1026 13.3294 35.0019C13.3011 34.9012 13.3056 34.794 13.3424 34.6961C13.5276 34.025 13.6801 33.3455 13.8494 32.6543C13.2556 32.5654 12.6851 32.4828 12.1114 32.3929C11.7092 32.3304 11.6267 32.1621 11.8182 31.7927C12.1008 31.2614 12.3803 30.7427 12.6618 30.2125V30.2156ZM22.0387 39.3596C25.1569 39.3596 28.165 39.3596 31.1731 39.366C31.4018 39.366 31.4907 39.2887 31.5584 39.0813C32.4941 36.3385 33.4368 33.5988 34.3866 30.8624C34.4554 30.6644 34.4438 30.5639 34.248 30.4591C32.7757 29.6684 31.1784 29.2196 29.5908 28.7465C29.4659 28.7095 29.3928 28.7222 29.4098 28.8905C29.5325 30.0643 29.4405 31.2413 29.4616 32.4172C29.4616 32.6289 29.504 32.7263 29.7347 32.7993C30.1604 32.9347 30.5244 33.2162 30.7625 33.5941C31.0005 33.9721 31.0973 34.422 31.0355 34.8644C30.97 35.3159 30.7447 35.7289 30.4004 36.0283C30.0562 36.3278 29.6159 36.4937 29.1597 36.496C28.7035 36.4983 28.2615 36.3368 27.9143 36.0409C27.567 35.745 27.3375 35.3343 27.2674 34.8834C27.1987 34.435 27.2939 33.9768 27.5355 33.5929C27.7771 33.2089 28.1491 32.925 28.5831 32.793C28.8001 32.7231 28.8371 32.6321 28.8361 32.4363C28.8287 31.418 28.8361 30.3998 28.8276 29.3816C28.8276 29.1593 28.7747 28.937 28.7556 28.7137C28.758 28.6549 28.7381 28.5974 28.7001 28.5525C28.6621 28.5077 28.6086 28.4787 28.5503 28.4713C27.7226 28.2691 26.898 28.0574 26.0216 27.8362C26.0756 27.9611 26.1 28.0331 26.1349 28.0987C26.7834 29.3216 27.4326 30.5434 28.0825 31.7642C28.2941 32.159 28.2126 32.3188 27.784 32.3865C27.3024 32.4627 26.8208 32.5474 26.3371 32.5982C26.118 32.6226 26.0513 32.6575 26.1254 32.902C26.2915 33.4841 26.4027 34.0822 26.5689 34.6643C26.6089 34.7681 26.6143 34.882 26.5841 34.9891C26.554 35.0961 26.49 35.1905 26.4016 35.2581C25.684 35.9207 24.9738 36.5928 24.2625 37.2628C23.5512 37.9328 22.8219 38.6177 22.0387 39.3596ZM4.95838 31.1121C4.90745 31.156 4.85904 31.2026 4.81337 31.2519C2.92615 33.5932 1.65812 36.2509 0.797592 39.1194C0.702331 39.4369 0.914022 39.3565 1.06538 39.3565C2.81889 39.3565 4.57275 39.3565 6.32696 39.3565H7.79398C6.84455 36.5992 5.90782 33.8779 4.95838 31.1121ZM39.1857 39.3596C38.3082 36.324 36.9936 33.5572 34.9719 31.0846L32.1268 39.3596H39.1857ZM17.2756 30.3331C17.2682 30.6718 17.3709 30.9862 17.4312 31.3048C17.9213 33.8938 18.4198 36.4817 18.9025 39.0728C18.9459 39.3046 19.0231 39.3755 19.2528 39.3649C19.6605 39.3342 20.0698 39.3342 20.4775 39.3649C20.8797 39.4062 21.0067 39.2443 21.0712 38.8727C21.4745 36.6701 21.9021 34.4706 22.3192 32.2701C22.4409 31.6276 22.5552 30.9841 22.678 30.3172C20.7685 30.9142 19.3809 30.9862 17.2756 30.3331ZM18.1806 38.7521C18.1404 38.497 18.1213 38.3583 18.0949 38.2229C17.7152 36.2146 17.3342 34.206 16.9517 32.1971C16.6247 30.4728 16.2934 28.7507 15.9769 27.0244C15.9219 26.727 15.8139 26.691 15.5683 26.8318C15.2423 27.0191 14.9608 27.2393 14.783 27.5854C14.458 28.2204 14.1278 28.8502 13.7764 29.4684C13.6462 29.6959 13.6938 29.77 13.914 29.8918C15.1841 30.5734 15.8478 31.635 15.8457 33.0936C15.8457 33.9001 15.906 34.713 15.8287 35.5121C15.7514 36.3113 16.0012 36.8511 16.6226 37.3242C17.1476 37.7201 17.6048 38.2176 18.1774 38.7521H18.1806ZM10.492 19.0542C10.6709 19.0839 10.7587 18.977 10.6963 18.7081C10.5544 18.079 10.4771 17.4371 10.4655 16.7923C10.4662 16.6872 10.4336 16.5846 10.3724 16.4991C10.0495 16.0509 9.77358 15.5706 9.5489 15.066C9.46528 14.8797 9.38378 14.8638 9.23137 14.9866C8.93264 15.2086 8.72286 15.5298 8.63969 15.8926C8.41318 16.9765 8.74553 17.891 9.51927 18.6531C9.75424 18.8902 10.058 19.0161 10.4888 19.0542H10.492ZM28.4508 27.7664C27.8083 26.2676 26.3561 25.2166 24.8372 25.1107C24.5472 25.0906 24.3366 25.2705 24.1302 25.4145C23.9555 25.5362 24.1037 26.0432 24.3091 26.1162C24.7731 26.274 25.1829 26.5599 25.4914 26.9408C25.5464 27.0312 25.632 27.0988 25.7327 27.1313C26.6228 27.3388 27.5141 27.5483 28.4476 27.7664H28.4508ZM12.5422 31.8012C13.1095 31.888 13.6303 31.9663 14.15 32.0489C14.5543 32.1124 14.6221 32.2108 14.5268 32.5982C14.3702 33.2333 14.2093 33.8747 14.0505 34.5151C14.0209 34.6379 13.9447 34.7808 14.0632 34.8898C14.4252 35.2359 14.7967 35.5735 15.2095 35.9556C15.2095 34.9067 15.2413 33.9446 15.2011 32.9782C15.1545 31.8383 14.6178 30.9798 13.5869 30.4496C13.3932 30.3501 13.2905 30.3606 13.19 30.5681C12.9931 30.9703 12.773 31.3598 12.539 31.8012H12.5422ZM29.1303 35.8678C29.7792 35.8794 30.4005 35.2719 30.41 34.6135C30.4195 33.9552 29.8151 33.3434 29.1589 33.3307C28.5027 33.318 27.8888 33.9266 27.8792 34.5849C27.8697 35.2433 28.4741 35.8561 29.1303 35.8678ZM31.0514 16.5055C31.0334 15.8418 30.8397 15.3168 30.3253 14.9485C30.2269 14.8786 30.084 14.7484 30.0343 14.9834C29.8765 15.737 29.4076 16.3986 29.433 17.2136C29.4468 17.6539 29.3272 18.0984 29.2658 18.5419C29.2446 18.7018 29.1007 18.9187 29.2351 19.0077C29.3695 19.0966 29.5833 18.9632 29.7485 18.8828C29.9509 18.7841 30.131 18.6451 30.2777 18.4742C30.7554 17.9271 31.0288 17.2314 31.0514 16.5055ZM16.9676 28.6777C16.992 29.5044 17.0131 29.5435 17.7329 29.7848C19.2296 30.2963 20.8566 30.278 22.3414 29.733C22.8844 29.5414 22.9913 29.3424 22.9161 28.7243C20.9389 29.8007 18.9692 29.788 16.9676 28.6841V28.6777ZM12.7581 27.452C13.226 27.3462 13.6589 27.235 14.095 27.1429C14.2249 27.1231 14.3422 27.0537 14.422 26.9492C14.7309 26.5488 15.1555 26.2532 15.6382 26.1025C15.744 26.0697 15.8224 26.0474 15.8499 25.9098C15.8654 25.8091 15.8586 25.7062 15.83 25.6084C15.8014 25.5106 15.7517 25.4202 15.6844 25.3437C15.6171 25.2672 15.5338 25.2064 15.4404 25.1656C15.347 25.1248 15.2458 25.1049 15.1439 25.1075C14.0378 25.1679 12.882 26.2845 12.7581 27.4584V27.452ZM13.9034 27.8754C12.6597 28.0426 12.6597 28.0426 12.6745 29.209C12.6745 29.2355 12.6745 29.262 12.6745 29.2874C12.6851 29.3816 12.6279 29.5054 12.7994 29.5224C12.9201 29.534 13.0111 29.5552 13.0894 29.4091C13.3477 28.9084 13.624 28.4078 13.9034 27.8849V27.8754Z" fill="#3F3730"/>
<path d="M11.091 16.0323C11.1471 14.0213 11.2709 12.0229 11.8817 10.087C12.1495 9.24024 12.1452 9.25188 12.9952 9.42547C16.7188 10.1865 20.4615 10.793 24.2751 10.8269C25.4098 10.8374 26.5444 10.8057 27.6622 10.5802C27.9247 10.5273 27.9797 10.6332 28.0178 10.8417C28.3354 12.5278 28.6952 14.2097 28.8053 15.9223C29.0985 20.4673 26.2269 24.5085 21.8989 25.4939C17.2692 26.547 12.5591 23.6511 11.4138 19.014C11.1651 18.0405 11.0564 17.0365 11.091 16.0323ZM24.0782 18.0932C24.3287 18.0931 24.5735 18.0191 24.782 17.8803C24.9905 17.7415 25.1532 17.5442 25.2499 17.3131C25.3465 17.0821 25.3727 16.8276 25.3251 16.5818C25.2776 16.3359 25.1584 16.1096 24.9825 15.9312C24.8067 15.7529 24.5821 15.6305 24.3369 15.5795C24.0917 15.5285 23.8369 15.5511 23.6045 15.6445C23.3721 15.7378 23.1726 15.8978 23.0308 16.1043C22.8891 16.3108 22.8116 16.5546 22.8081 16.805C22.8058 17.1442 22.9384 17.4705 23.1765 17.712C23.4147 17.9535 23.739 18.0906 24.0782 18.0932ZM17.1094 16.8124C17.1072 16.5603 17.03 16.3144 16.8876 16.1063C16.7452 15.8982 16.5441 15.7371 16.3098 15.6437C16.0756 15.5503 15.8189 15.5287 15.5723 15.5817C15.3258 15.6347 15.1006 15.7599 14.9254 15.9413C14.7503 16.1228 14.6331 16.3522 14.5888 16.6005C14.5446 16.8488 14.5752 17.1046 14.6769 17.3354C14.7785 17.5662 14.9465 17.7615 15.1596 17.8964C15.3726 18.0314 15.621 18.0999 15.8731 18.0932C16.2051 18.0819 16.5197 17.942 16.7504 17.703C16.9811 17.464 17.1098 17.1446 17.1094 16.8124ZM15.9451 13.0147C15.2032 13.0027 14.476 13.2217 13.8641 13.6413C13.6821 13.7598 13.5466 13.9038 13.6842 14.1261C13.8218 14.3483 14.0081 14.3092 14.1976 14.1853C14.501 13.9763 14.8384 13.8212 15.1946 13.727C16.0319 13.5238 16.777 13.7704 17.4894 14.1875C17.6767 14.2933 17.8662 14.3494 18.0059 14.1292C18.1456 13.9091 18.0165 13.7577 17.8291 13.6455C17.1941 13.2687 16.523 13.0232 15.9408 13.0126L15.9451 13.0147ZM26.2957 14.0001C26.2998 13.9351 26.2854 13.8702 26.2541 13.8131C26.2228 13.7559 26.176 13.7088 26.1189 13.6773C25.9644 13.5788 25.8014 13.4846 25.6426 13.3989C24.3905 12.7416 23.2082 12.9829 22.0545 13.6741C21.8925 13.7715 21.8004 13.9207 21.9084 14.1081C22.0164 14.2954 22.1857 14.3293 22.3794 14.2139C22.5043 14.1409 22.6324 14.0721 22.7615 14.0022C23.7427 13.5132 24.7059 13.5111 25.6437 14.1197C25.7158 14.1775 25.797 14.223 25.884 14.2541C26.1211 14.3219 26.2481 14.198 26.2915 14.0001H26.2957ZM19.945 23.812C20.6505 23.8017 21.3379 23.5874 21.9243 23.1949C22.1148 23.07 22.2799 22.925 22.1148 22.6837C21.9497 22.4424 21.7623 22.545 21.5665 22.6678C20.4901 23.3463 19.4105 23.3516 18.3382 22.6551C18.1361 22.5239 17.9413 22.4646 17.7953 22.7027C17.6492 22.9409 17.8069 23.0647 17.9868 23.1854C18.5645 23.5787 19.2442 23.7953 19.9429 23.8088L19.945 23.812ZM19.8973 20.9542C20.0763 20.9574 20.2535 20.9196 20.4156 20.8436C20.5776 20.7677 20.72 20.6556 20.832 20.516C20.8578 20.4901 20.8783 20.4594 20.8923 20.4256C20.9063 20.3919 20.9135 20.3557 20.9135 20.3191C20.9135 20.2825 20.9063 20.2463 20.8923 20.2125C20.8783 20.1788 20.8578 20.1481 20.832 20.1222C20.7134 19.9836 20.5483 19.9391 20.4149 20.0682C20.0974 20.3762 19.8127 20.371 19.4972 20.0682C19.3628 19.937 19.1988 19.992 19.0823 20.1286C19.057 20.155 19.0372 20.1861 19.0239 20.2202C19.0106 20.2543 19.0042 20.2906 19.005 20.3272C19.0058 20.3638 19.0137 20.3998 19.0285 20.4333C19.0432 20.4668 19.0644 20.497 19.0908 20.5223C19.2924 20.7651 19.5813 20.919 19.8952 20.951L19.8973 20.9542Z" fill="#F5CFBE"/>
<path d="M12.6618 30.2125C12.3802 30.7417 12.1008 31.2614 11.8288 31.7843C11.6372 32.1537 11.7229 32.322 12.122 32.3844C12.6935 32.4744 13.2662 32.5569 13.86 32.6458C13.6906 33.337 13.5424 34.0165 13.353 34.6876C13.3162 34.7856 13.3116 34.8927 13.34 34.9934C13.3684 35.0941 13.4282 35.1832 13.5107 35.2475C13.939 35.6392 14.3624 36.0371 14.7808 36.4415C14.8486 36.506 14.9978 36.5473 14.9364 36.6796C14.9066 36.7236 14.8658 36.759 14.8181 36.7822C14.7704 36.8054 14.7173 36.8157 14.6644 36.8119C14.3352 36.8204 14.005 36.8193 13.6747 36.8204C13.4514 36.8204 13.2259 36.813 13.0026 36.8204C12.9595 36.8181 12.9164 36.8251 12.8762 36.8409C12.836 36.8567 12.7997 36.8808 12.7696 36.9118C12.7395 36.9428 12.7164 36.9799 12.7018 37.0205C12.6873 37.0611 12.6815 37.1044 12.6851 37.1475C12.6826 37.1878 12.6889 37.2283 12.7035 37.266C12.7182 37.3037 12.7408 37.3378 12.7699 37.366C12.7989 37.3941 12.8337 37.4157 12.8719 37.4291C12.9101 37.4425 12.9507 37.4476 12.991 37.4438C13.788 37.3676 14.6347 37.6926 15.3757 37.1612C15.4815 37.0871 15.5429 37.1422 15.6138 37.2088L17.8292 39.2961C17.7127 39.3956 17.6048 39.3533 17.5116 39.3533C14.622 39.3533 11.7335 39.3533 8.84393 39.3617C8.56556 39.3617 8.43643 39.2908 8.34117 39.0114C7.42878 36.3187 6.50298 33.6306 5.56378 30.947C5.45158 30.6295 5.55637 30.5152 5.81146 30.3839C7.18745 29.6779 8.66082 29.2334 10.1395 28.8068C10.6687 28.6533 11.2096 28.5337 11.7377 28.375C11.9717 28.3041 12.0754 28.3104 12.0553 28.5951C12.0352 28.8799 12.1294 29.1858 12.0256 29.4176C11.9124 29.6726 11.5441 29.588 11.2921 29.6716C10.5922 29.9 9.9824 30.3438 9.54976 30.9396C9.11712 31.5353 8.88379 32.2525 8.8831 32.9888C8.8831 34.0197 8.8831 35.0507 8.8831 36.0826C8.8831 36.9188 9.41232 37.4438 10.2379 37.4512C10.5671 37.4512 10.8973 37.4512 11.2265 37.4512C11.4647 37.4512 11.7155 37.4438 11.7219 37.14C11.7282 36.8363 11.488 36.8077 11.2435 36.813C10.8878 36.8193 10.5311 36.8193 10.1755 36.813C9.81983 36.8066 9.53087 36.6087 9.53193 36.2499C9.53193 34.9702 9.4028 33.6831 9.60285 32.4119C9.80819 31.038 11.3112 29.9669 12.6618 30.2125Z" fill="#EEEFEF"/>
<path d="M22.0386 39.3596C22.825 38.6187 23.5405 37.9413 24.2613 37.266C24.9821 36.5907 25.6828 35.9239 26.4005 35.2613C26.4888 35.1937 26.5528 35.0993 26.583 34.9923C26.6131 34.8852 26.6078 34.7713 26.5677 34.6675C26.4015 34.0854 26.2904 33.4873 26.1242 32.9052C26.0544 32.6607 26.1242 32.6258 26.3359 32.6014C26.8196 32.5474 27.3012 32.4628 27.7828 32.3897C28.2115 32.322 28.2909 32.1622 28.0813 31.7673C27.4342 30.5452 26.785 29.3234 26.1337 28.1019C26.0988 28.0363 26.0745 27.9643 26.0205 27.8394C26.8969 28.0606 27.7214 28.2723 28.5491 28.4745C28.6075 28.4819 28.661 28.5109 28.699 28.5557C28.737 28.6006 28.7568 28.6581 28.7545 28.7169C28.7735 28.9402 28.8243 29.1625 28.8264 29.3848C28.8349 30.403 28.8264 31.4212 28.8349 32.4395C28.8349 32.6353 28.7989 32.7263 28.5819 32.7962C28.1479 32.9281 27.776 33.2121 27.5343 33.5961C27.2927 33.98 27.1975 34.4382 27.2663 34.8866C27.3364 35.3374 27.5659 35.7482 27.9131 36.0441C28.2604 36.34 28.7023 36.5015 29.1585 36.4992C29.6148 36.4969 30.055 36.331 30.3993 36.0315C30.7435 35.7321 30.9689 35.3191 31.0344 34.8676C31.0962 34.4253 30.9996 33.9755 30.7617 33.5976C30.5239 33.2197 30.1601 32.9381 29.7346 32.8025C29.5039 32.7295 29.4647 32.6321 29.4615 32.4204C29.4404 31.2445 29.5324 30.0675 29.4097 28.8936C29.3927 28.7253 29.4658 28.7126 29.5907 28.7497C31.1783 29.2228 32.7745 29.6716 34.2479 30.4623C34.4437 30.5681 34.4595 30.6676 34.3865 30.8655C33.436 33.6027 32.4933 36.3423 31.5583 39.0845C31.4874 39.2961 31.4017 39.3692 31.173 39.3692C28.1617 39.3565 25.1536 39.3596 22.0386 39.3596Z" fill="#EEEFEF"/>
<path d="M28.997 5.95161C29.424 6.65954 29.7161 7.44045 29.8586 8.25481H9.43042C9.59766 7.36041 9.8538 6.49989 10.4571 5.7886C10.5037 6.03099 10.6984 5.95055 10.8392 5.95055C16.8943 5.95408 22.9469 5.95443 28.997 5.95161Z" fill="#685B5D"/>
<path d="M28.997 5.95159C22.9427 5.95159 16.8886 5.95159 10.835 5.95159C10.6942 5.95159 10.4995 6.03203 10.4529 5.78965C11.0234 5.2456 11.5568 4.67933 11.7855 3.88443C11.8363 3.70872 12.0046 3.56689 12.1178 3.40918C12.1919 3.57536 12.338 3.57112 12.4872 3.57112L27.1193 3.56477C27.838 4.08236 28.3069 4.81163 28.78 5.53668C28.8647 5.66687 28.925 5.81505 28.997 5.95159Z" fill="#706264"/>
<path d="M4.95825 31.1122C5.91086 33.8758 6.84442 36.5971 7.79385 39.3575H6.32683C4.57333 39.3575 2.81947 39.3575 1.06525 39.3575C0.913893 39.3575 0.702203 39.4358 0.797464 39.1204C1.65799 36.252 2.92602 33.5942 4.81324 31.2529C4.85888 31.2033 4.9073 31.1563 4.95825 31.1122Z" fill="#E3E3E4"/>
<path d="M39.1855 39.3596H32.1267L34.9718 31.0846C36.9935 33.5572 38.3081 36.324 39.1855 39.3596Z" fill="#E3E3E4"/>
<path d="M17.2757 30.3331C19.3841 30.9862 20.7686 30.9142 22.6738 30.3215C22.551 30.9883 22.4367 31.6318 22.315 32.2743C21.8979 34.4749 21.4682 36.6743 21.067 38.877C20.9993 39.2485 20.8755 39.4062 20.4733 39.3692C20.0656 39.3384 19.6563 39.3384 19.2486 39.3692C19.0189 39.3797 18.9417 39.3088 18.8983 39.077C18.4156 36.4859 17.9171 33.898 17.427 31.309C17.3677 30.9862 17.2651 30.6718 17.2757 30.3331Z" fill="#FCCE97"/>
<path d="M27.1192 3.56479L12.4871 3.57432C12.3378 3.57432 12.1918 3.57432 12.1177 3.41238C12.83 2.41637 13.8366 1.8448 14.9469 1.42671C16.1599 0.967344 17.4279 0.803284 18.7171 0.685795C20.8372 0.485094 22.9698 0.904276 24.8562 1.89243C25.6373 2.301 26.3253 2.85139 27.0133 3.40179C27.057 3.45015 27.0928 3.50518 27.1192 3.56479Z" fill="#79696A"/>
<path d="M9.42614 8.25479H29.8543C29.9786 8.71989 30.0359 9.20031 30.0247 9.68159C29.5791 9.68159 29.1335 9.68159 28.689 9.68159C28.5567 9.68159 28.3831 9.62232 28.3492 9.84247H27.8771C27.8549 9.64772 27.7078 9.67418 27.5786 9.67418H20.1663C20.017 9.67418 19.872 9.67418 19.8001 9.83824C18.6696 9.80966 17.5635 9.58527 16.4522 9.41486C15.0285 9.19364 13.6166 8.90892 12.2183 8.58397C11.8394 8.49718 11.7082 8.76708 11.5833 9.03911C11.289 9.67418 11.1101 10.3495 10.9366 11.0258C10.3576 10.974 9.75638 11.1634 9.20069 10.8649C9.1708 9.989 9.24649 9.11264 9.42614 8.25479Z" fill="#615658"/>
<path d="M21.7836 38.6473C21.8757 37.6756 22.1149 36.7294 22.2927 35.7725C22.822 32.8967 23.3808 30.0251 23.9259 27.1514C24.0159 26.6709 24.054 26.6497 24.4795 26.9037C24.6848 27.0255 24.8944 27.1578 25.0087 27.3695C25.7973 28.8259 26.5763 30.2887 27.3871 31.8023C26.8123 31.8891 26.2873 31.9674 25.7623 32.0499C25.3644 32.1124 25.2998 32.2119 25.3972 32.6067C25.5552 33.246 25.7147 33.8846 25.8756 34.5225C25.919 34.695 25.9306 34.84 25.7698 34.984C24.4837 36.179 23.2072 37.3824 21.9276 38.5827C21.8852 38.6219 21.8492 38.6981 21.7688 38.6409L21.7836 38.6473Z" fill="#E3E3E4"/>
<path d="M18.1774 38.7521C17.6048 38.2176 17.1475 37.7201 16.6194 37.3179C15.998 36.8448 15.7493 36.2954 15.8255 35.5058C15.9017 34.7162 15.8414 33.8938 15.8424 33.0872C15.8424 31.6287 15.1809 30.5671 13.9108 29.8854C13.6906 29.7679 13.643 29.6938 13.7732 29.462C14.1246 28.8439 14.4548 28.212 14.7798 27.579C14.9576 27.2329 15.2391 27.0128 15.5651 26.8254C15.8107 26.6846 15.9187 26.7196 15.9737 27.0181C16.2912 28.7444 16.6215 30.4665 16.9485 32.1907C17.3296 34.1997 17.7106 36.2083 18.0917 38.2165C18.1224 38.3583 18.1372 38.497 18.1774 38.7521Z" fill="#E3E3E4"/>
<path d="M16.9495 27.8563C16.8437 27.8182 16.7452 27.7568 16.7304 27.6446C16.6404 27.0096 16.4044 26.3925 16.4986 25.7034C18.7269 26.564 21.1958 26.564 23.4241 25.7034C23.5088 26.4084 23.2791 27.0403 23.1754 27.688C23.1679 27.7346 23.0833 27.7685 23.0346 27.8076C22.8507 27.7373 22.6566 27.6976 22.4598 27.6902C20.7907 27.6965 19.1215 27.6902 17.4523 27.6902C17.266 27.6954 17.0818 27.6923 16.9495 27.8563Z" fill="#ECB6A4"/>
<path d="M10.4887 19.0542C10.0579 19.0161 9.75414 18.8902 9.51387 18.6531C8.73802 17.891 8.40778 16.9765 8.63429 15.8926C8.71746 15.5298 8.92724 15.2086 9.22597 14.9866C9.37944 14.8638 9.46094 14.8807 9.5435 15.066C9.76852 15.5707 10.0448 16.0509 10.368 16.4991C10.4292 16.5846 10.4618 16.6872 10.4612 16.7923C10.4728 17.4371 10.5501 18.079 10.6919 18.7081C10.7554 18.977 10.6676 19.0839 10.4887 19.0542Z" fill="#ECB6A4"/>
<path d="M28.4477 27.7664C27.5141 27.5483 26.6229 27.343 25.7296 27.1313C25.6289 27.0988 25.5432 27.0312 25.4882 26.9408C25.1798 26.5599 24.7699 26.274 24.3059 26.1162C24.1006 26.0432 23.9524 25.5362 24.1271 25.4145C24.3335 25.2705 24.5441 25.0906 24.8341 25.1107C26.353 25.2166 27.8052 26.2676 28.4477 27.7664Z" fill="#FFFEFE"/>
<path d="M12.5391 31.8012C12.773 31.3598 12.9931 30.9703 13.1868 30.5681C13.2874 30.3564 13.3901 30.3501 13.5838 30.4496C14.6147 30.9788 15.1513 31.8383 15.1979 32.9782C15.2381 33.9403 15.2064 34.9067 15.2064 35.9556C14.7936 35.5735 14.4221 35.2359 14.0601 34.8898C13.9447 34.7839 14.0177 34.6379 14.0474 34.5151C14.203 33.88 14.3649 33.2375 14.5237 32.5982C14.6189 32.2108 14.5512 32.1124 14.1469 32.0489C13.6272 31.9663 13.1064 31.888 12.5391 31.8012Z" fill="#E3E3E4"/>
<path d="M16.9497 27.8564C17.082 27.6923 17.2672 27.6955 17.4525 27.6955C19.1217 27.6955 20.7908 27.6955 22.46 27.6955C22.6567 27.7029 22.8509 27.7426 23.0348 27.813C21.427 29.2112 18.8348 29.2323 17.0206 27.9537C16.9922 27.925 16.9683 27.8922 16.9497 27.8564Z" fill="#F0C0AF"/>
<path d="M29.1304 35.8678C28.4721 35.8561 27.8677 35.2327 27.8793 34.5849C27.891 33.9372 28.5144 33.3201 29.159 33.3307C29.8036 33.3413 30.4217 33.9657 30.4101 34.6135C30.3984 35.2613 29.7814 35.8752 29.1304 35.8678Z" fill="#615658"/>
<path d="M31.0514 16.5055C31.0278 17.2318 30.7533 17.9275 30.2744 18.4742C30.1278 18.6451 29.9477 18.7841 29.7452 18.8827C29.5801 18.9632 29.3737 19.1018 29.2319 19.0076C29.09 18.9134 29.2414 18.7017 29.2626 18.5419C29.3218 18.0984 29.4436 17.6539 29.4298 17.2136C29.4044 16.3985 29.8733 15.737 30.031 14.9834C30.0808 14.7484 30.2236 14.8775 30.3221 14.9485C30.8386 15.32 31.0355 15.845 31.0514 16.5055Z" fill="#ECB6A4"/>
<path d="M9.19531 10.8713C9.751 11.1698 10.3522 10.9772 10.9312 11.0322C10.8253 11.8356 10.6433 12.6273 10.5872 13.4402C10.5459 14.0393 10.4591 14.6362 10.4094 15.2491C9.6441 13.8911 9.28105 12.4209 9.19531 10.8713Z" fill="#544C4D"/>
<path d="M16.9675 28.6841C18.967 29.788 20.9389 29.8007 22.9161 28.7306C22.9912 29.3488 22.8843 29.5478 22.3413 29.7393C20.8565 30.2843 19.2295 30.3026 17.7328 29.7912C17.013 29.5499 16.9919 29.5107 16.9675 28.6841Z" fill="#F2A669"/>
<path d="M12.7581 27.4584C12.8819 26.2845 14.0377 25.1679 15.1385 25.1192C15.2404 25.1166 15.3416 25.1364 15.435 25.1772C15.5284 25.218 15.6117 25.2788 15.679 25.3553C15.7464 25.4318 15.7961 25.5222 15.8247 25.62C15.8533 25.7179 15.86 25.8208 15.8445 25.9215C15.8223 26.0591 15.7387 26.0813 15.6328 26.1141C15.1501 26.2648 14.7255 26.5605 14.4167 26.9609C14.3368 27.0653 14.2196 27.1348 14.0896 27.1546C13.6588 27.2414 13.2259 27.3493 12.7581 27.4584Z" fill="#FFFEFE"/>
<path d="M19.8 9.84673C19.872 9.67949 20.0117 9.68267 20.1663 9.68267H27.5829C27.712 9.68267 27.8591 9.6562 27.8814 9.85096C27.1923 10.0838 26.4694 10.1092 25.757 10.1463C24.8245 10.195 23.8857 10.1907 22.9521 10.1463C21.9328 10.1008 20.9167 9.98962 19.8985 9.90282C19.8646 9.90494 19.8329 9.86789 19.8 9.84673Z" fill="#5C5253"/>
<path d="M28.3535 9.84672C28.3874 9.62656 28.5652 9.6869 28.6933 9.68584C29.1378 9.67949 29.5834 9.68584 30.029 9.68584C30.1698 10.0679 30.1158 10.468 30.0714 10.8501C30.0375 11.1507 30.0333 11.4503 30.0132 11.7509C29.648 11.8483 29.2723 11.8324 28.9029 11.8345C28.7039 11.3868 28.7081 10.8925 28.5948 10.4257C28.5598 10.2168 28.4773 10.0187 28.3535 9.84672Z" fill="#5C5253"/>
<path d="M28.9028 11.8292C29.2754 11.8292 29.6437 11.843 30.0132 11.7456C29.8777 12.6929 29.739 13.6402 29.468 14.5611C29.4511 14.6203 29.4596 14.6913 29.341 14.7389L28.9028 11.8292Z" fill="#544C4D"/>
<path d="M13.9033 27.8849C13.6238 28.4078 13.3476 28.9084 13.0893 29.4186C13.0152 29.5647 12.92 29.5435 12.7993 29.5319C12.6278 29.5149 12.685 29.3911 12.6744 29.2969C12.6744 29.2715 12.6744 29.245 12.6744 29.2186C12.6596 28.0522 12.6596 28.0522 13.9033 27.8849Z" fill="#EEEFEF"/>
<path d="M21.7741 38.6409L21.7624 38.6854C21.7624 38.678 21.7518 38.6663 21.7539 38.6642C21.7632 38.6576 21.7731 38.6519 21.7836 38.6473L21.7741 38.6409Z" fill="#E3E3E4"/>
<path d="M24.0784 18.0932C23.8263 18.0931 23.58 18.0181 23.3708 17.8777C23.1615 17.7373 22.9987 17.5378 22.9032 17.3046C22.8076 17.0714 22.7836 16.815 22.8342 16.5681C22.8848 16.3212 23.0076 16.095 23.1872 15.9181C23.3667 15.7413 23.5948 15.6218 23.8424 15.575C24.0901 15.5281 24.346 15.556 24.5778 15.6551C24.8095 15.7542 25.0065 15.9199 25.1438 16.1313C25.281 16.3427 25.3523 16.5901 25.3485 16.8421C25.3411 17.1748 25.2043 17.4916 24.9671 17.7252C24.73 17.9588 24.4112 18.0908 24.0784 18.0932ZM24.7134 16.7955C24.7081 16.6725 24.6672 16.5538 24.5957 16.4536C24.5242 16.3535 24.4251 16.2763 24.3105 16.2314C24.1959 16.1865 24.0707 16.1759 23.9502 16.2009C23.8297 16.2258 23.719 16.2852 23.6317 16.3719C23.5443 16.4586 23.484 16.5688 23.4581 16.6891C23.4322 16.8094 23.4418 16.9346 23.4858 17.0496C23.5297 17.1645 23.6061 17.2642 23.7057 17.3366C23.8053 17.4089 23.9237 17.4508 24.0466 17.457C24.3599 17.4581 24.7039 17.1151 24.7103 16.7965L24.7134 16.7955Z" fill="#3F3730"/>
<path d="M17.1093 16.8124C17.1114 17.0645 17.0385 17.3115 16.8998 17.5219C16.7611 17.7324 16.5629 17.8968 16.3304 17.9943C16.098 18.0918 15.8418 18.1179 15.5944 18.0693C15.3471 18.0207 15.1198 17.8996 14.9415 17.7215C14.7632 17.5433 14.6419 17.3161 14.5931 17.0688C14.5443 16.8215 14.5702 16.5653 14.6675 16.3328C14.7648 16.1002 14.929 15.9019 15.1394 15.763C15.3497 15.6241 15.5967 15.551 15.8487 15.5529C16.1812 15.5583 16.4985 15.6927 16.7337 15.9277C16.9689 16.1628 17.1036 16.48 17.1093 16.8124ZM15.8392 16.1911C15.6708 16.1862 15.5073 16.2484 15.3847 16.364C15.2621 16.4796 15.1905 16.6392 15.1856 16.8077C15.1807 16.9761 15.2429 17.1396 15.3585 17.2621C15.4741 17.3847 15.6337 17.4563 15.8021 17.4613C16.1197 17.4613 16.4637 17.1236 16.4732 16.805C16.4735 16.7224 16.4572 16.6407 16.4253 16.5645C16.3933 16.4884 16.3463 16.4195 16.2872 16.3619C16.228 16.3043 16.1578 16.2592 16.0809 16.2294C16.0039 16.1995 15.9217 16.1854 15.8392 16.1879V16.1911Z" fill="#3F3730"/>
<path d="M15.9409 13.0125C16.5231 13.021 17.1941 13.2666 17.825 13.6476C18.0123 13.7598 18.1425 13.908 18.0017 14.1313C17.861 14.3547 17.6726 14.2996 17.4852 14.1896C16.7729 13.7725 16.0277 13.5259 15.1905 13.7291C14.8342 13.8233 14.4969 13.9784 14.1934 14.1874C14.0039 14.3113 13.8155 14.343 13.6801 14.1282C13.5446 13.9133 13.6801 13.7619 13.86 13.6434C14.4714 13.2223 15.1986 13.0018 15.9409 13.0125Z" fill="#3F3730"/>
<path d="M26.2916 14.0001C26.2482 14.198 26.1212 14.3176 25.8798 14.2615C25.7928 14.2304 25.7116 14.1849 25.6396 14.1271C24.7018 13.5185 23.7343 13.5206 22.7574 14.0096C22.6283 14.0742 22.5002 14.143 22.3753 14.2213C22.1816 14.3346 22.0154 14.306 21.9043 14.1155C21.7931 13.9249 21.8884 13.7789 22.0503 13.6815C23.1998 12.9903 24.3863 12.749 25.6385 13.4063C25.8015 13.492 25.956 13.5862 26.1148 13.6847C26.1706 13.7157 26.2168 13.7616 26.248 13.8173C26.2792 13.873 26.2943 13.9363 26.2916 14.0001Z" fill="#3F3730"/>
<path d="M19.943 23.8088C19.2432 23.7948 18.5627 23.577 17.9849 23.1822C17.8049 23.0615 17.6557 22.9229 17.7933 22.6995C17.9309 22.4762 18.1341 22.5207 18.3363 22.6519C19.4085 23.3484 20.4881 23.3431 21.5645 22.6646C21.7604 22.5418 21.9509 22.4423 22.1128 22.6805C22.2748 22.9186 22.1128 23.0668 21.9223 23.1917C21.3359 23.5841 20.6485 23.7985 19.943 23.8088Z" fill="#3F3730"/>
<path d="M19.8954 20.951C19.5808 20.9171 19.2923 20.7608 19.092 20.5159C19.0656 20.4907 19.0444 20.4604 19.0297 20.4269C19.0149 20.3935 19.007 20.3574 19.0062 20.3208C19.0054 20.2843 19.0118 20.2479 19.0251 20.2138C19.0384 20.1797 19.0582 20.1486 19.0835 20.1222C19.2 19.9857 19.364 19.9306 19.4984 20.0619C19.816 20.3678 20.0996 20.3731 20.4161 20.0619C20.5495 19.9327 20.7146 19.9772 20.8332 20.1159C20.859 20.1417 20.8795 20.1724 20.8935 20.2062C20.9075 20.24 20.9147 20.2762 20.9147 20.3127C20.9147 20.3493 20.9075 20.3855 20.8935 20.4193C20.8795 20.4531 20.859 20.4837 20.8332 20.5096C20.7212 20.6502 20.5784 20.7632 20.4158 20.8397C20.2531 20.9163 20.0751 20.9543 19.8954 20.951Z" fill="#3F3730"/>
<path d="M24.7102 16.7965C24.7039 17.1141 24.3599 17.456 24.0434 17.4581C23.9205 17.4518 23.8021 17.41 23.7025 17.3376C23.6029 17.2653 23.5265 17.1656 23.4826 17.0507C23.4386 16.9357 23.429 16.8105 23.4549 16.6902C23.4808 16.5698 23.5411 16.4596 23.6285 16.373C23.7158 16.2863 23.8265 16.2269 23.947 16.2019C24.0675 16.177 24.1927 16.1876 24.3073 16.2325C24.4219 16.2773 24.521 16.3545 24.5925 16.4547C24.664 16.5548 24.7049 16.6736 24.7102 16.7965Z" fill="#424042"/>
<path d="M15.8393 16.1879C15.9214 16.1852 16.0032 16.199 16.0799 16.2285C16.1565 16.2579 16.2265 16.3024 16.2857 16.3593C16.3449 16.4162 16.3921 16.4844 16.4245 16.5599C16.4569 16.6353 16.4739 16.7165 16.4744 16.7987C16.4649 17.1162 16.1188 17.456 15.8033 17.4549C15.6349 17.45 15.4753 17.3784 15.3597 17.2558C15.2441 17.1332 15.1819 16.9697 15.1868 16.8013C15.1917 16.6329 15.2633 16.4733 15.3859 16.3577C15.5085 16.242 15.672 16.1798 15.8404 16.1847L15.8393 16.1879Z" fill="#424042"/>
</svg>
