<svg width="24" height="20" viewBox="0 0 24 20" fill="none" xmlns="http://www.w3.org/2000/svg">
<path d="M1.19101 2.60551H21.8296C22.2773 2.60551 22.6869 2.76748 23.0203 3.04376C23.0203 2.32462 22.4869 1.73867 21.8296 1.73867H1.19101C0.971898 1.73867 0.795639 1.54331 0.795639 1.30528C0.795639 1.06706 0.971894 0.87188 1.19101 0.87188H21.8296C22.725 0.88135 23.0203 1.21476 23.0203 1.30528C23.0203 0.586139 22.4869 0.00019562 21.8296 0.00019562L1.19101 2.94968e-05C0.533666 -0.00478801 0.000244141 0.581124 0.000244141 1.30026C0.000244141 2.01957 0.533666 2.60547 1.19101 2.60547V2.60551Z" fill="#7B2C82"/>
<path d="M16.6709 13.0413V10.4312C16.6709 9.47382 17.3854 8.69272 18.257 8.69272H23.0201V4.77756C23.0201 4.05842 22.4867 3.47248 21.8293 3.47248L1.19077 3.47231C0.743082 3.47231 0.333415 3.31034 0 3.03407V18.6901C0 19.4141 0.533422 20 1.19077 20H21.8293C22.4867 20 23.0201 19.4141 23.0201 18.6949V14.7798H18.257C17.3854 14.7798 16.6709 14.0033 16.6709 13.0411V13.0413Z" fill="#7B2C82"/>
<path d="M23.42 9.56427H23.4105H18.2571C17.8188 9.56427 17.4617 9.95483 17.4617 10.4359V13.046C17.4617 13.5271 17.8188 13.9177 18.2571 13.9177H23.4156C23.6348 13.9177 23.811 13.7223 23.811 13.4843L23.8108 9.99771C23.8157 9.75949 23.6394 9.56432 23.4203 9.56432L23.42 9.56427ZM20.6385 13.0794C19.8954 13.0794 19.2952 12.4792 19.2952 11.741C19.2952 11.0027 19.8954 10.4025 20.6385 10.4025C21.3815 10.4025 21.9817 11.0027 21.9817 11.741C21.9816 12.4792 21.3815 13.0794 20.6385 13.0794Z" fill="#7B2C82"/>
</svg>
