<svg width="21" height="21" viewBox="0 0 21 21" fill="none" xmlns="http://www.w3.org/2000/svg">
<rect width="21" height="21" rx="5" fill="#D1147C" fill-opacity="0.2"/>
<path d="M4.42792 14.4828H3.45363C3.20308 14.4828 3 14.2566 3 13.9775V7.70766C3 7.42861 3.2031 7.20241 3.45363 7.20241H4.42792C4.67846 7.20241 4.88154 7.42862 4.88154 7.70766V13.9775C4.88154 14.2566 4.67845 14.4828 4.42792 14.4828Z" fill="#D1147C"/>
<path d="M16.7367 14.4729H17.711C17.9615 14.4729 18.1646 14.2467 18.1646 13.9676V7.69778C18.1646 7.41872 17.9615 7.19252 17.711 7.19252H16.7367C16.4862 7.19252 16.2831 7.41873 16.2831 7.69778V13.9676C16.2831 14.2467 16.4862 14.4729 16.7367 14.4729Z" fill="#D1147C"/>
<path d="M13.1026 8.06741L12.401 7.37588C11.8222 6.62661 10.7678 6.54451 10.1005 7.1962L7.98731 9.26036C7.6273 9.61185 7.59373 10.2518 7.9166 10.6474C8.23403 11.0363 8.78302 11.0733 9.1412 10.7293L10.9824 8.94096C11.0979 8.82882 11.2712 8.83759 11.3772 8.96081L15.3361 13.5636H15.5835L15.5834 8.06724L13.1026 8.06741Z" fill="#D1147C"/>
<path d="M13.903 13.2856L10.9691 9.86379L9.58096 11.2688C8.96611 11.8948 8.01184 11.8463 7.45083 11.1606C6.89105 10.4764 6.93445 9.41654 7.5478 8.79189L9.05452 7.25751C8.20928 6.76578 7.13882 7.04896 6.59493 7.9663H5.61406V13.8059H6.47447L7.86882 15.3936C8.09877 15.6777 8.47372 15.7488 8.7753 15.5658C9.17605 15.3226 9.28205 14.7437 9.01566 14.3466L9.74324 15.2521C9.94645 15.5051 10.2722 15.5851 10.5523 15.451L10.5702 15.4423C11.0335 15.2202 11.1662 14.5622 10.8342 14.1433C10.3505 13.533 9.9056 12.951 9.9056 12.951L11.3031 14.7061C11.532 14.9911 11.9053 15.067 12.2099 14.8905L12.2282 14.88C12.6863 14.6146 12.7279 13.9051 12.3805 13.4843C11.7137 12.6766 10.9904 11.7428 10.9904 11.7428C10.9904 11.7428 12.2659 13.268 12.9324 14.0607C13.141 14.3088 13.4654 14.3882 13.7482 14.2605L13.7674 14.2518C14.1447 13.9901 14.0669 13.5762 13.9031 13.2856L13.903 13.2856Z" fill="#D1147C"/>
</svg>
