<svg width="22" height="20" viewBox="0 0 22 20" fill="none" xmlns="http://www.w3.org/2000/svg">
<path d="M21.169 8.7391L11.1739 0.17188C10.9062 -0.0572933 10.5121 -0.0572933 10.2444 0.17188L0.249268 8.7391C0.0222366 8.93329 -0.0591518 9.24885 0.0443688 9.52871C0.148603 9.80857 0.415615 9.99491 0.71404 9.99491H2.85584V18.5621C2.85584 19.3496 3.49624 19.99 4.28371 19.99H7.85339V14.2785C7.85339 13.4911 8.49379 12.8507 9.28126 12.8507H12.137C12.9245 12.8507 13.5649 13.4911 13.5649 14.2785V19.99H17.1345C17.922 19.99 18.5624 19.3496 18.5624 18.5621V9.99491H20.7042C21.0026 9.99491 21.2697 9.80857 21.3739 9.52871C21.4774 9.24885 21.396 8.93329 21.169 8.7391Z" fill="#7B2C82"/>
</svg>
