<svg width="205" height="179" viewBox="0 0 205 179" fill="none" xmlns="http://www.w3.org/2000/svg">
<path d="M69.0575 14.9087H47.9978V81.6516H69.0575V14.9087Z" fill="#F5F5F5"/>
<path d="M69.0577 14.9087H58.5278V81.4677H69.0577V14.9087Z" fill="#EBEBEB"/>
<path d="M57.8396 8.35645H50.4031V14.9091H57.8396V8.35645Z" fill="#F5F5F5"/>
<path d="M57.8397 8.35645H56.0671V14.9091H57.8397V8.35645Z" fill="#EBEBEB"/>
<path d="M46.2432 14.9091V14.5266H69.6739V14.9091" fill="#E0E0E0"/>
<path d="M53.9378 17.7666H52.1553V21.5251H53.9378V17.7666Z" fill="#FAFAFA"/>
<path d="M58.5276 23.0006C58.5276 23.0402 56.1701 23.0725 53.2632 23.0725C50.355 23.0725 47.9978 23.0402 47.9978 23.0006C47.9978 22.9609 50.3545 22.9287 53.2632 22.9287C56.1705 22.9287 58.5276 22.9609 58.5276 23.0006Z" fill="#E0E0E0"/>
<path d="M64.5587 17.7666H62.7761V21.5251H64.5587V17.7666Z" fill="#E0E0E0"/>
<path d="M69.1495 23.0006C69.1495 23.0402 66.7923 23.0725 63.885 23.0725C60.9768 23.0725 58.6196 23.0402 58.6196 23.0006C58.6196 22.9609 60.9763 22.9287 63.885 22.9287C66.7919 22.9287 69.1495 22.9609 69.1495 23.0006Z" fill="#E0E0E0"/>
<path d="M64.5587 25.2292H62.7761V28.9878H64.5587V25.2292Z" fill="#E0E0E0"/>
<path d="M69.1495 30.4632C69.1495 30.5029 66.7923 30.5351 63.885 30.5351C60.9768 30.5351 58.6196 30.5029 58.6196 30.4632C58.6196 30.4236 60.9763 30.3914 63.885 30.3914C66.7919 30.3914 69.1495 30.4236 69.1495 30.4632Z" fill="#E0E0E0"/>
<path d="M64.5587 32.9172H62.7761V36.6758H64.5587V32.9172Z" fill="#E0E0E0"/>
<path d="M69.1495 38.151C69.1495 38.1906 66.7923 38.2229 63.885 38.2229C60.9768 38.2229 58.6196 38.1906 58.6196 38.151C58.6196 38.1113 60.9763 38.0791 63.885 38.0791C66.7919 38.0791 69.1495 38.1113 69.1495 38.151Z" fill="#E0E0E0"/>
<path d="M64.5587 40.6047H62.7761V44.3633H64.5587V40.6047Z" fill="#E0E0E0"/>
<path d="M69.1495 45.8387C69.1495 45.8784 66.7923 45.9106 63.885 45.9106C60.9768 45.9106 58.6196 45.8784 58.6196 45.8387C58.6196 45.7991 60.9763 45.7668 63.885 45.7668C66.7919 45.7668 69.1495 45.7991 69.1495 45.8387Z" fill="#E0E0E0"/>
<path d="M64.5587 48.0728H62.7761V51.8313H64.5587V48.0728Z" fill="#E0E0E0"/>
<path d="M69.1495 53.3067C69.1495 53.3464 66.7923 53.3786 63.885 53.3786C60.9768 53.3786 58.6196 53.3464 58.6196 53.3067C58.6196 53.2671 60.9763 53.2349 63.885 53.2349C66.7919 53.2349 69.1495 53.2671 69.1495 53.3067Z" fill="#E0E0E0"/>
<path d="M64.5587 55.571H62.7761V59.3296H64.5587V55.571Z" fill="#E0E0E0"/>
<path d="M64.5587 63.167H62.7761V66.926H64.5587V63.167Z" fill="#E0E0E0"/>
<path d="M69.1495 60.8053C69.1495 60.8449 66.7923 60.8772 63.885 60.8772C60.9768 60.8772 58.6196 60.8449 58.6196 60.8053C58.6196 60.7656 60.9763 60.7334 63.885 60.7334C66.7919 60.7334 69.1495 60.7656 69.1495 60.8053Z" fill="#E0E0E0"/>
<path d="M53.9378 25.343H52.1553V29.1016H53.9378V25.343Z" fill="#FAFAFA"/>
<path d="M58.5276 30.577C58.5276 30.6166 56.1701 30.6489 53.2632 30.6489C50.355 30.6489 47.9978 30.6166 47.9978 30.577C47.9978 30.5374 50.3545 30.5051 53.2632 30.5051C56.1705 30.5056 58.5276 30.5378 58.5276 30.577Z" fill="#E0E0E0"/>
<path d="M53.9378 32.9194H52.1553V36.6784H53.9378V32.9194Z" fill="#FAFAFA"/>
<path d="M58.5276 38.1537C58.5276 38.1933 56.1701 38.2255 53.2632 38.2255C50.355 38.2255 47.9978 38.1933 47.9978 38.1537C47.9978 38.114 50.3545 38.0818 53.2632 38.0818C56.1705 38.0818 58.5276 38.114 58.5276 38.1537Z" fill="#E0E0E0"/>
<path d="M53.9378 40.4963H52.1553V44.2549H53.9378V40.4963Z" fill="#FAFAFA"/>
<path d="M58.5276 45.7298C58.5276 45.7695 56.1701 45.8017 53.2632 45.8017C50.355 45.8017 47.9978 45.7695 47.9978 45.7298C47.9978 45.6902 50.3545 45.658 53.2632 45.658C56.1705 45.6584 58.5276 45.6906 58.5276 45.7298Z" fill="#E0E0E0"/>
<path d="M53.9378 48.0728H52.1553V51.8313H53.9378V48.0728Z" fill="#FAFAFA"/>
<path d="M58.5276 53.3067C58.5276 53.3464 56.1701 53.3786 53.2632 53.3786C50.355 53.3786 47.9978 53.3464 47.9978 53.3067C47.9978 53.2671 50.3545 53.2349 53.2632 53.2349C56.1705 53.2349 58.5276 53.2671 58.5276 53.3067Z" fill="#E0E0E0"/>
<path d="M53.9378 55.6497H52.1553V59.4086H53.9378V55.6497Z" fill="#FAFAFA"/>
<path d="M58.5276 60.8836C58.5276 60.9233 56.1701 60.9555 53.2632 60.9555C50.355 60.9555 47.9978 60.9233 47.9978 60.8836C47.9978 60.844 50.3545 60.8118 53.2632 60.8118C56.1705 60.8118 58.5276 60.844 58.5276 60.8836Z" fill="#E0E0E0"/>
<path d="M53.9378 63.2258H52.1553V66.9844H53.9378V63.2258Z" fill="#FAFAFA"/>
<path d="M146.183 29.0603H125.124V95.8032H146.183V29.0603Z" fill="#F5F5F5"/>
<path d="M146.184 29.0603H135.654V95.6193H146.184V29.0603Z" fill="#EBEBEB"/>
<path d="M134.965 22.5083H127.528V29.0609H134.965V22.5083Z" fill="#F5F5F5"/>
<path d="M134.965 22.5083H133.193V29.0609H134.965V22.5083Z" fill="#EBEBEB"/>
<path d="M123.369 29.0605V28.6785H146.799V29.0605" fill="#E0E0E0"/>
<path d="M131.064 31.9182H129.281V35.6768H131.064V31.9182Z" fill="#FAFAFA"/>
<path d="M135.653 37.1522C135.653 37.1918 133.296 37.2241 130.389 37.2241C127.481 37.2241 125.124 37.1918 125.124 37.1522C125.124 37.1126 127.48 37.0803 130.389 37.0803C133.296 37.0803 135.653 37.1126 135.653 37.1522Z" fill="#E0E0E0"/>
<path d="M141.685 31.9182H139.902V35.6768H141.685V31.9182Z" fill="#E0E0E0"/>
<path d="M146.275 37.1522C146.275 37.1918 143.918 37.2241 141.01 37.2241C138.102 37.2241 135.745 37.1918 135.745 37.1522C135.745 37.1126 138.102 37.0803 141.01 37.0803C143.918 37.0803 146.275 37.1126 146.275 37.1522Z" fill="#E0E0E0"/>
<path d="M141.685 39.3806H139.902V43.1396H141.685V39.3806Z" fill="#E0E0E0"/>
<path d="M146.275 44.6146C146.275 44.6542 143.918 44.6865 141.01 44.6865C138.102 44.6865 135.745 44.6542 135.745 44.6146C135.745 44.575 138.102 44.5427 141.01 44.5427C143.918 44.5432 146.275 44.575 146.275 44.6146Z" fill="#E0E0E0"/>
<path d="M141.685 47.0686H139.902V50.8271H141.685V47.0686Z" fill="#E0E0E0"/>
<path d="M146.275 52.3026C146.275 52.3422 143.918 52.3745 141.01 52.3745C138.102 52.3745 135.745 52.3422 135.745 52.3026C135.745 52.263 138.102 52.2307 141.01 52.2307C143.918 52.2307 146.275 52.263 146.275 52.3026Z" fill="#E0E0E0"/>
<path d="M141.685 54.7563H139.902V58.5149H141.685V54.7563Z" fill="#E0E0E0"/>
<path d="M146.275 59.9903C146.275 60.03 143.918 60.0622 141.01 60.0622C138.102 60.0622 135.745 60.03 135.745 59.9903C135.745 59.9507 138.102 59.9185 141.01 59.9185C143.918 59.9185 146.275 59.9507 146.275 59.9903Z" fill="#E0E0E0"/>
<path d="M141.685 62.2244H139.902V65.9829H141.685V62.2244Z" fill="#E0E0E0"/>
<path d="M146.275 67.4581C146.275 67.4978 143.918 67.53 141.01 67.53C138.102 67.53 135.745 67.4978 135.745 67.4581C135.745 67.4185 138.102 67.3862 141.01 67.3862C143.918 67.3867 146.275 67.4189 146.275 67.4581Z" fill="#E0E0E0"/>
<path d="M141.685 69.7224H139.902V73.481H141.685V69.7224Z" fill="#E0E0E0"/>
<path d="M141.685 77.3188H139.902V81.0774H141.685V77.3188Z" fill="#E0E0E0"/>
<path d="M146.275 74.9566C146.275 74.9963 143.918 75.0285 141.01 75.0285C138.102 75.0285 135.745 74.9963 135.745 74.9566C135.745 74.917 138.102 74.8848 141.01 74.8848C143.918 74.8848 146.275 74.917 146.275 74.9566Z" fill="#E0E0E0"/>
<path d="M131.064 39.4949H129.281V43.2534H131.064V39.4949Z" fill="#FAFAFA"/>
<path d="M135.653 44.7289C135.653 44.7685 133.296 44.8007 130.389 44.8007C127.481 44.8007 125.124 44.7685 125.124 44.7289C125.124 44.6892 127.48 44.657 130.389 44.657C133.296 44.657 135.653 44.6892 135.653 44.7289Z" fill="#E0E0E0"/>
<path d="M131.064 47.071H129.281V50.83H131.064V47.071Z" fill="#FAFAFA"/>
<path d="M135.653 52.3053C135.653 52.3449 133.296 52.3772 130.389 52.3772C127.481 52.3772 125.124 52.3449 125.124 52.3053C125.124 52.2656 127.48 52.2334 130.389 52.2334C133.296 52.2338 135.653 52.2656 135.653 52.3053Z" fill="#E0E0E0"/>
<path d="M131.064 54.6479H129.281V58.4069H131.064V54.6479Z" fill="#FAFAFA"/>
<path d="M135.653 59.8817C135.653 59.9213 133.296 59.9536 130.389 59.9536C127.481 59.9536 125.124 59.9213 125.124 59.8817C125.124 59.8421 127.48 59.8098 130.389 59.8098C133.296 59.8098 135.653 59.8421 135.653 59.8817Z" fill="#E0E0E0"/>
<path d="M131.064 62.2244H129.281V65.9829H131.064V62.2244Z" fill="#FAFAFA"/>
<path d="M135.653 67.4581C135.653 67.4978 133.296 67.53 130.389 67.53C127.481 67.53 125.124 67.4978 125.124 67.4581C125.124 67.4185 127.48 67.3862 130.389 67.3862C133.296 67.3867 135.653 67.4189 135.653 67.4581Z" fill="#E0E0E0"/>
<path d="M131.064 69.8013H129.281V73.5602H131.064V69.8013Z" fill="#FAFAFA"/>
<path d="M135.653 75.035C135.653 75.0747 133.296 75.1069 130.389 75.1069C127.481 75.1069 125.124 75.0747 125.124 75.035C125.124 74.9954 127.48 74.9631 130.389 74.9631C133.296 74.9631 135.653 74.9954 135.653 75.035Z" fill="#E0E0E0"/>
<path d="M131.064 77.3777H129.281V81.1362H131.064V77.3777Z" fill="#FAFAFA"/>
<path d="M172.477 54.9558H138.377V99.9311H172.477V54.9558Z" fill="#EBEBEB"/>
<path d="M172.476 54.9558H156.488V99.9311H172.476V54.9558Z" fill="#E0E0E0"/>
<path d="M148.593 61.0449H145.527V68.494H148.593V61.0449Z" fill="#F5F5F5"/>
<path d="M148.593 90.1985H145.527V97.6476H148.593V90.1985Z" fill="#F5F5F5"/>
<path d="M156.488 71.4175C156.488 71.5011 152.434 71.5691 147.433 71.5691C142.431 71.5691 138.377 71.5011 138.377 71.4175C138.377 71.3338 142.431 71.2659 147.433 71.2659C152.434 71.2659 156.488 71.3338 156.488 71.4175Z" fill="#F5F5F5"/>
<path d="M148.593 75.7322H145.527V83.1813H148.593V75.7322Z" fill="#F5F5F5"/>
<path d="M156.488 86.1045C156.488 86.1881 152.434 86.2561 147.433 86.2561C142.431 86.2561 138.377 86.1881 138.377 86.1045C138.377 86.0208 142.431 85.9529 147.433 85.9529C152.434 85.9533 156.488 86.0213 156.488 86.1045Z" fill="#F5F5F5"/>
<path d="M162.949 61.0449H159.883V68.494H162.949V61.0449Z" fill="#F5F5F5"/>
<path d="M169.601 61.0449H166.535V68.494H169.601V61.0449Z" fill="#F5F5F5"/>
<path d="M162.949 75.1794H159.883V82.6281H162.949V75.1794Z" fill="#F5F5F5"/>
<path d="M169.601 75.1794H166.535V82.6281H169.601V75.1794Z" fill="#F5F5F5"/>
<path d="M162.949 89.3142H159.883V96.7629H162.949V89.3142Z" fill="#F5F5F5"/>
<path d="M169.601 89.3142H166.535V96.7629H169.601V89.3142Z" fill="#F5F5F5"/>
<path d="M175.04 53.3904H135.814V55.0122H175.04V53.3904Z" fill="#E0E0E0"/>
<path d="M172.715 55.165C172.715 55.2487 165.093 55.3166 155.693 55.3166C146.291 55.3166 138.671 55.2487 138.671 55.165C138.671 55.0814 146.291 55.0134 155.693 55.0134C165.093 55.0134 172.715 55.0814 172.715 55.165Z" fill="#EBEBEB"/>
<path d="M61.2453 100.83H30.2552L30.1206 51.853H61.1103L61.2453 100.83Z" fill="#EBEBEB"/>
<path d="M61.1103 51.853H45.6152V100.83H61.1103V51.853Z" fill="#E0E0E0"/>
<path d="M44.6024 42.2109H33.6592V51.853H44.6024V42.2109Z" fill="#EBEBEB"/>
<path d="M44.6025 42.2109H41.9944V51.853H44.6025V42.2109Z" fill="#E0E0E0"/>
<path d="M62.017 51.2905H27.5376V51.8529H62.017V51.2905Z" fill="#E0E0E0"/>
<path d="M38.8609 56.0581H36.2375V61.5892H38.8609V56.0581Z" fill="white"/>
<path d="M45.6152 63.76C45.6152 63.8183 42.1463 63.8654 37.8681 63.8654C33.5885 63.8654 30.1201 63.8183 30.1201 63.76C30.1201 63.7016 33.5881 63.6545 37.8681 63.6545C42.1463 63.6541 45.6152 63.7016 45.6152 63.76Z" fill="#E0E0E0"/>
<path d="M54.4905 56.0581H51.8672V61.5892H54.4905V56.0581Z" fill="#F5F5F5"/>
<path d="M61.2453 63.7602C61.2453 63.8186 57.7764 63.8656 53.4982 63.8656C49.2187 63.8656 45.7502 63.8186 45.7502 63.7602C45.7502 63.7018 49.2182 63.6548 53.4982 63.6548C57.776 63.6544 61.2453 63.7018 61.2453 63.7602Z" fill="#EBEBEB"/>
<path d="M54.4905 67.0398H51.8672V72.5709H54.4905V67.0398Z" fill="#F5F5F5"/>
<path d="M61.2453 74.7417C61.2453 74.8 57.7764 74.8471 53.4982 74.8471C49.2187 74.8471 45.7502 74.8 45.7502 74.7417C45.7502 74.6833 49.2182 74.6362 53.4982 74.6362C57.776 74.6362 61.2453 74.6837 61.2453 74.7417Z" fill="#EBEBEB"/>
<path d="M54.4905 78.3525H51.8672V83.8836H54.4905V78.3525Z" fill="#F5F5F5"/>
<path d="M61.2453 86.0546C61.2453 86.113 57.7764 86.1601 53.4982 86.1601C49.2187 86.1601 45.7502 86.1126 45.7502 86.0546C45.7502 85.9963 49.2182 85.9492 53.4982 85.9492C57.776 85.9488 61.2453 85.9963 61.2453 86.0546Z" fill="#EBEBEB"/>
<path d="M54.4905 89.6653H51.8672V95.1964H54.4905V89.6653Z" fill="#F5F5F5"/>
<path d="M61.2453 97.3671C61.2453 97.4255 57.7764 97.473 53.4982 97.473C49.2187 97.473 45.7502 97.4255 45.7502 97.3671C45.7502 97.3088 49.2182 97.2617 53.4982 97.2617C57.776 97.2617 61.2453 97.3088 61.2453 97.3671Z" fill="#EBEBEB"/>
<path d="M38.8609 67.2073H36.2375V72.7384H38.8609V67.2073Z" fill="white"/>
<path d="M45.6152 74.9091C45.6152 74.9675 42.1463 75.015 37.8681 75.015C33.5885 75.015 30.1201 74.9675 30.1201 74.9091C30.1201 74.8508 33.5881 74.8037 37.8681 74.8037C42.1463 74.8037 45.6152 74.8508 45.6152 74.9091Z" fill="#E0E0E0"/>
<path d="M38.8609 78.3562H36.2375V83.8873H38.8609V78.3562Z" fill="white"/>
<path d="M45.6152 86.0583C45.6152 86.1167 42.1463 86.1637 37.8681 86.1637C33.5885 86.1637 30.1201 86.1162 30.1201 86.0583C30.1201 86.0004 33.5881 85.9529 37.8681 85.9529C42.1463 85.9524 45.6152 85.9999 45.6152 86.0583Z" fill="#E0E0E0"/>
<path d="M38.8609 89.5054H36.2375V95.0365H38.8609V89.5054Z" fill="white"/>
<path d="M45.6152 97.2072C45.6152 97.2656 42.1463 97.3127 37.8681 97.3127C33.5885 97.3127 30.1201 97.2656 30.1201 97.2072C30.1201 97.1489 33.5881 97.1018 37.8681 97.1018C42.1463 97.1018 45.6152 97.1489 45.6152 97.2072Z" fill="#E0E0E0"/>
<path d="M183.974 41.9525C184.138 40.7619 182.458 39.7827 181.195 39.6812C180.593 39.6328 179.968 39.7247 179.397 39.5261C178.162 39.0953 177.668 37.4987 176.462 36.9903C175.561 36.61 174.523 36.9485 173.649 37.3885C172.775 37.8285 171.911 38.3817 170.935 38.4444C170.086 38.4989 169.164 38.1839 168.421 38.5986C167.867 38.9079 167.577 39.5457 167.067 39.9221C166.567 40.2902 165.916 40.3681 165.297 40.4021C164.677 40.4357 164.036 40.4422 163.472 40.7005C162.908 40.9588 162.441 41.5552 162.558 42.1642L183.974 41.9525Z" fill="#F5F5F5"/>
<path d="M131.547 8.02556C131.803 6.16241 129.173 4.62946 127.197 4.47002C126.255 4.39422 125.276 4.53798 124.384 4.22694C122.45 3.5526 121.677 1.05388 119.79 0.257998C118.379 -0.337061 116.754 0.192654 115.386 0.880936C114.019 1.56922 112.667 2.43567 111.139 2.53368C109.81 2.61863 108.366 2.12594 107.203 2.77502C106.336 3.25899 105.882 4.25744 105.084 4.84683C104.302 5.42316 103.283 5.54514 102.313 5.59785C101.343 5.65056 100.34 5.66057 99.4566 6.06483C98.5736 6.46909 97.8431 7.40263 98.0265 8.3562L131.547 8.02556Z" fill="#EBEBEB"/>
<path d="M41.9805 33.7935C42.1848 32.3081 40.0886 31.0861 38.5129 30.9589C37.7615 30.8984 36.9813 31.0134 36.2695 30.7651C34.7274 30.2275 34.1114 28.2354 32.6068 27.6007C31.482 27.1263 30.1869 27.5485 29.0965 28.0973C28.0062 28.6462 26.9284 29.3367 25.71 29.4147C24.6501 29.4826 23.4992 29.0897 22.5722 29.6072C21.8813 29.9932 21.5193 30.789 20.8825 31.2586C20.2595 31.7182 19.4466 31.8154 18.6739 31.8576C17.9011 31.8999 17.1008 31.9077 16.3969 32.2296C15.6929 32.552 15.1105 33.296 15.2568 34.0566L41.9805 33.7935Z" fill="#F5F5F5"/>
<path d="M26.5722 66.558C21.6348 66.6726 17.6088 70.6964 17.4912 75.6337C17.4411 77.7482 18.0985 79.7059 19.2402 81.2911L19.2376 81.292L19.3282 81.4153C19.3326 81.421 19.3369 81.4271 19.3408 81.4327L25.9292 90.3939C26.509 91.1828 27.6961 91.158 28.2423 90.3455L34.1973 81.4924C35.3242 79.7739 36.097 77.9774 36.097 75.8598C36.0979 70.6476 31.8118 66.4364 26.5722 66.558ZM26.7935 82.6263C22.9299 82.6263 19.7982 79.4946 19.7982 75.6311C19.7982 71.7676 22.9299 68.6359 26.7935 68.6359C30.657 68.6359 33.7887 71.7676 33.7887 75.6311C33.7887 79.4946 30.6565 82.6263 26.7935 82.6263Z" fill="#FA3C5A"/>
<g opacity="0.3">
<path d="M26.5722 66.558C21.6348 66.6726 17.6088 70.6964 17.4912 75.6337C17.4411 77.7482 18.0985 79.7059 19.2402 81.2911L19.2376 81.292L19.3282 81.4153C19.3326 81.421 19.3369 81.4271 19.3408 81.4327L25.9292 90.3939C26.509 91.1828 27.6961 91.158 28.2423 90.3455L34.1973 81.4924C35.3242 79.7739 36.097 77.9774 36.097 75.8598C36.0979 70.6476 31.8118 66.4364 26.5722 66.558ZM26.7935 82.6263C22.9299 82.6263 19.7982 79.4946 19.7982 75.6311C19.7982 71.7676 22.9299 68.6359 26.7935 68.6359C30.657 68.6359 33.7887 71.7676 33.7887 75.6311C33.7887 79.4946 30.6565 82.6263 26.7935 82.6263Z" fill="black"/>
</g>
<path d="M26.0204 66.558C21.0831 66.6726 17.0571 70.6964 16.9395 75.6337C16.8889 77.7482 17.5467 79.7059 18.6885 81.2911L18.6859 81.292L18.7765 81.4153C18.7809 81.421 18.7852 81.4271 18.7891 81.4327L25.3775 90.3939C25.9573 91.1828 27.1444 91.158 27.6906 90.3455L33.6456 81.4924C34.7725 79.7739 35.5453 77.9774 35.5453 75.8598C35.5462 70.6476 31.2605 66.4364 26.0204 66.558ZM26.2417 81.3652C23.3157 81.3652 20.9437 78.9932 20.9437 76.0672C20.9437 73.1411 23.3157 70.7691 26.2417 70.7691C29.1678 70.7691 31.5398 73.1411 31.5398 76.0672C31.5393 78.9932 29.1674 81.3652 26.2417 81.3652Z" fill="#7B2C82"/>
<path d="M172.518 57.7383C168.755 57.8254 165.687 60.8922 165.598 64.6551C165.559 66.2665 166.06 67.7585 166.931 68.9664L166.929 68.9669L166.998 69.061C167.002 69.0653 167.005 69.0697 167.008 69.0745L172.029 75.9037C172.471 76.5049 173.375 76.4861 173.792 75.8667L178.33 69.1198C179.188 67.8099 179.778 66.4411 179.778 64.8272C179.777 60.8552 176.512 57.6455 172.518 57.7383ZM172.686 69.984C169.742 69.984 167.355 67.5973 167.355 64.6529C167.355 61.7085 169.742 59.3218 172.686 59.3218C175.631 59.3218 178.018 61.7085 178.018 64.6529C178.018 67.5973 175.631 69.984 172.686 69.984Z" fill="#FA3C5A"/>
<g opacity="0.3">
<path d="M172.518 57.7383C168.755 57.8254 165.687 60.8922 165.598 64.6551C165.559 66.2665 166.06 67.7585 166.931 68.9664L166.929 68.9669L166.998 69.061C167.002 69.0653 167.005 69.0697 167.008 69.0745L172.029 75.9037C172.471 76.5049 173.375 76.4861 173.792 75.8667L178.33 69.1198C179.188 67.8099 179.778 66.4411 179.778 64.8272C179.777 60.8552 176.512 57.6455 172.518 57.7383ZM172.686 69.984C169.742 69.984 167.355 67.5973 167.355 64.6529C167.355 61.7085 169.742 59.3218 172.686 59.3218C175.631 59.3218 178.018 61.7085 178.018 64.6529C178.018 67.5973 175.631 69.984 172.686 69.984Z" fill="black"/>
</g>
<path d="M172.098 57.7383C168.335 57.8254 165.267 60.8922 165.177 64.6551C165.139 66.2665 165.64 67.7585 166.51 68.9664L166.508 68.9669L166.578 69.061C166.581 69.0653 166.584 69.0697 166.587 69.0745L171.608 75.9037C172.05 76.5049 172.955 76.4861 173.371 75.8667L177.909 69.1198C178.768 67.8099 179.357 66.4411 179.357 64.8272C179.357 60.8552 176.091 57.6455 172.098 57.7383ZM172.266 69.0231C170.036 69.0231 168.229 67.2152 168.229 64.9857C168.229 62.7558 170.037 60.9484 172.266 60.9484C174.496 60.9484 176.304 62.7562 176.304 64.9857C176.304 67.2152 174.496 69.0231 172.266 69.0231Z" fill="#7B2C82"/>
<path d="M31.6599 100.004L0.547852 177.267L58.8832 167.674L101.663 177.267L145.48 167.674L204.075 178.851L172.703 100.004L137.702 91.1892L102.311 97.9305L66.1429 91.1892L31.6599 100.004Z" fill="white"/>
<path d="M31.6599 100.004C31.6599 100.004 31.8503 99.9509 32.2314 99.8512C32.6148 99.7514 33.1837 99.6037 33.9343 99.4086C35.4428 99.0196 37.6811 98.4424 40.6076 97.6879C46.4715 96.1819 55.0928 93.9681 66.1289 91.1339L66.1411 91.1309L66.1537 91.1331C76.122 92.9849 88.3573 95.258 102.326 97.853H102.297C112.89 95.8308 124.836 93.5508 137.684 91.0986L137.705 91.0947L137.725 91.0995C148.595 93.8339 160.371 96.797 172.728 99.9056L172.779 99.9182L172.798 99.9666C182.385 124.053 192.985 150.685 204.18 178.809L204.255 179L204.054 178.962C194.419 177.124 184.236 175.182 173.912 173.213C164.292 171.378 154.797 169.566 145.459 167.785L145.504 167.784C130.448 171.079 115.8 174.284 101.687 177.373L101.663 177.378L101.64 177.373C86.7316 174.027 72.4315 170.818 58.8623 167.773L58.9006 167.774C37.4663 171.292 17.8442 174.513 0.562193 177.349L0.41626 177.373L0.471583 177.236C10.0949 153.383 17.8873 134.069 23.2746 120.715C25.9703 114.046 28.0643 108.866 29.4848 105.351C30.1958 103.598 30.7386 102.26 31.104 101.359C31.4687 100.46 31.6599 100.004 31.6599 100.004C31.6599 100.004 31.4791 100.472 31.1189 101.377C30.7573 102.281 30.2202 103.625 29.5162 105.385C28.1039 108.906 26.0221 114.095 23.3421 120.776C17.9749 134.13 10.2116 153.445 0.624486 177.298L0.533877 177.185C17.8141 174.338 37.4345 171.105 58.8666 167.574L58.8862 167.571L58.9054 167.575C72.4759 170.616 86.7773 173.821 101.686 177.161H101.639C115.752 174.07 130.4 170.861 145.455 167.564L145.478 167.559L145.5 167.564C154.838 169.345 164.334 171.156 173.953 172.991C184.278 174.961 194.46 176.903 204.095 178.741L203.97 178.893C192.782 150.766 182.189 124.131 172.608 100.042L172.678 100.103C160.323 96.9882 148.548 94.0195 137.679 91.279L137.718 91.2803C124.868 93.7228 112.921 95.9937 102.326 98.0076L102.311 98.0102L102.297 98.0076C88.3316 95.3965 76.099 93.109 66.1328 91.2459L66.1572 91.245C55.1233 94.0526 46.5041 96.246 40.6415 97.738C37.7089 98.4811 35.4659 99.0496 33.9539 99.433C33.199 99.6229 32.627 99.7666 32.2415 99.8633C31.8572 99.9588 31.6599 100.004 31.6599 100.004Z" fill="#7B2C82"/>
<path d="M33.4754 102.078L5.99243 173.378L58.6242 164.822L102.311 174.934L145.48 164.563L199.149 174.934L170.888 102.078L138.22 94.0413L102.311 100.782L65.6246 94.0413L33.4754 102.078Z" fill="white"/>
<path d="M9.04565 165.455L50.8797 155.767L49.335 146.755L52.8108 144.566L47.4034 123.519L30.6747 109.343L9.04565 165.455Z" fill="#7B2C82"/>
<path d="M5.99243 173.378L8.03245 168.086L78.1745 151.79L81.9844 162.276L80.7494 164.393L67.5749 166.893L58.6242 164.822L5.99243 173.378Z" fill="#EBEBEB"/>
<path d="M81.9844 150.775L84.7676 161.15L92.8444 164.661L104.339 159.553L128.448 152.531L120.925 141.198L81.9844 150.775Z" fill="#EBEBEB"/>
<path d="M53.966 154.617L66.9994 151.79L64.3987 143.322L54.9039 145.616L52.3765 147.4L53.966 154.617Z" fill="#E0E0E0"/>
<path d="M51.3049 126.552L56.0375 142.081L63.4322 140.454L62.1014 134.487L78.3692 130.841L51.3049 126.552Z" fill="#7B2C82"/>
<path d="M31.906 106.149L52.3763 122.584L79.5525 127.736L108.539 120.53L95.3072 99.4952L65.6244 94.0413L33.4751 102.078L31.906 106.149Z" fill="#EBEBEB"/>
<path d="M99.2656 100.223L141.763 165.455L145.48 164.563L104.348 100.4L102.311 100.782L99.2656 100.223Z" fill="#EBEBEB"/>
<path d="M64.8372 136.13L70.2223 151.79L118.024 139.577L109.178 124.516L64.8372 136.13Z" fill="#E0E0E0"/>
<path d="M91.4312 172.415L91.8964 171.724L95.0359 167.056L102.57 164.661L107.752 160.757L130.219 154.618L137.196 166.553L102.311 174.934" fill="#E0E0E0"/>
<path d="M131.227 95.3538L142.487 107.879L170.888 102.078L138.22 94.0413L131.227 95.3538Z" fill="#E0E0E0"/>
<path d="M176.865 117.488L156.006 123.283L145.479 109.342L171.6 103.915L176.865 117.488Z" fill="#E0E0E0"/>
<path d="M106.579 99.981L128.448 131.395L153.689 124.152L128.448 95.8757L106.579 99.981Z" fill="#EBEBEB"/>
<path d="M167.721 168.86L192.958 158.975L199.148 174.933L167.721 168.86Z" fill="#E0E0E0"/>
<path d="M141.328 129.516L155.04 125.942L169.525 143.322L155.427 148.003L141.328 129.516Z" fill="#7B2C82"/>
<path d="M158.131 124.517L173.387 142.01L184.882 138.153L177.325 118.671L158.131 124.517Z" fill="#E0E0E0"/>
<path d="M169.525 164.775L158.131 148.97L185.671 140.19L191.268 154.617L187.679 158.232L169.525 164.775Z" fill="#7B2C82"/>
<path d="M129.789 133.705L150.725 165.455L163.617 168.067L166.049 166.954L139.521 130.772L129.789 133.705Z" fill="#E0E0E0"/>
<path d="M43.9882 157.363L38.772 132.839L20.3792 136.053L9.04565 165.455L43.9882 157.363Z" fill="#E0E0E0"/>
<path d="M60.8997 95.2222V106.45L64.8372 106.947L75.8319 119.756L85.2831 118.671L89.7822 125.192L79.5525 127.736L52.3763 122.584L31.906 106.149L33.4751 102.078L60.8997 95.2222Z" fill="#7B2C82"/>
<path d="M118.384 97.8609L133.827 120.396L147.128 116.803L128.448 95.8757L118.384 97.8609Z" fill="#E0E0E0"/>
<path d="M163.717 121.141L158.131 112.406L173.238 108.136L176.865 117.488L163.717 121.141Z" fill="#EBEBEB"/>
<path d="M141.328 151.206L148.641 148.679L162.824 167.907L150.725 165.455L141.328 151.206Z" fill="#EBEBEB"/>
<path d="M73.8701 168.351L80.6715 167.523L82.9371 164.205L91.4309 166.876L89.2092 171.901L73.8701 168.351Z" fill="#7B2C82"/>
<path d="M33.4752 102.079C33.4752 102.079 34.1914 101.89 35.5945 101.534C37.0011 101.179 39.0873 100.653 41.8152 99.9644C47.2827 98.5909 55.3203 96.5714 65.6106 93.986L65.6223 93.9829L65.6345 93.9851C75.6499 95.8191 88.0638 98.0921 102.325 100.704H102.296C113.034 98.6837 125.151 96.4041 138.203 93.9485L138.223 93.9446L138.242 93.9494C148.453 96.4585 159.428 99.1555 170.912 101.978L170.964 101.99L170.983 102.04C179.634 124.334 189.188 148.954 199.253 174.891L199.327 175.081L199.126 175.042C190.526 173.381 181.423 171.622 172.199 169.84C163.159 168.093 154.235 166.368 145.457 164.672L145.505 164.67C130.646 168.239 116.21 171.705 102.336 175.037L102.311 175.043L102.286 175.038C86.98 171.492 72.3714 168.108 58.601 164.918L58.6393 164.919C39.3047 168.056 21.6263 170.923 6.00491 173.457L5.86377 173.48L5.91517 173.347C14.422 151.324 21.307 133.499 26.0657 121.179C28.4473 115.026 30.2965 110.249 31.5515 107.007C32.1797 105.39 32.6588 104.157 32.9816 103.326C33.3057 102.498 33.4752 102.079 33.4752 102.079C33.4752 102.079 33.3162 102.51 32.9986 103.344C32.6793 104.179 32.2058 105.418 31.5846 107.042C30.3379 110.29 28.5008 115.076 26.135 121.24C21.3959 133.56 14.54 151.384 6.06895 173.407L5.97921 173.297C21.5989 170.752 39.2755 167.873 58.608 164.723L58.6276 164.72L58.6467 164.725C72.4185 167.91 87.0283 171.288 102.336 174.828H102.286C116.159 171.493 130.596 168.024 145.453 164.453L145.477 164.447L145.501 164.452C154.279 166.148 163.203 167.872 172.244 169.619C181.467 171.402 190.57 173.161 199.17 174.823L199.044 174.975C188.986 149.035 179.439 124.413 170.793 102.116L170.864 102.178C159.381 99.3498 148.408 96.6472 138.198 94.1323L138.238 94.1332C125.184 96.5783 113.065 98.8484 102.326 100.86L102.312 100.863L102.298 100.86C88.0398 98.2311 75.6281 95.9428 65.6154 94.0966L65.6393 94.0957C55.3517 96.655 47.3158 98.6536 41.85 100.014C39.1156 100.691 37.0246 101.209 35.615 101.557C34.2049 101.906 33.4752 102.079 33.4752 102.079Z" fill="#7B2C82"/>
<g opacity="0.2">
<path d="M110.306 177.267L110.954 97.9305L74.786 91.1892L67.5264 167.674L110.306 177.267Z" fill="black"/>
</g>
<g opacity="0.2">
<path d="M137.701 91.1892L145.479 167.674L204.074 178.851L172.703 100.004L137.701 91.1892Z" fill="black"/>
</g>
<path d="M102.591 22.8574C77.3207 23.4437 56.7162 44.0386 56.1146 69.3086C55.8572 80.1307 59.2223 90.15 65.0671 98.2639L65.0544 98.2678L65.5184 98.899C65.5406 98.9286 65.5619 98.9587 65.5837 98.9883L99.3034 144.853C102.272 148.89 108.346 148.763 111.143 144.605L141.621 99.2937C147.389 90.4976 151.345 81.3038 151.345 70.4664C151.345 43.789 129.409 22.2353 102.591 22.8574ZM103.722 105.097C83.9491 105.097 67.9195 89.0675 67.9195 69.2942C67.9195 49.5209 83.9491 33.4913 103.722 33.4913C123.496 33.4913 139.525 49.5209 139.525 69.2942C139.525 89.0675 123.496 105.097 103.722 105.097Z" fill="#7B2C82"/>
<g opacity="0.3">
<path d="M102.591 22.8574C77.3207 23.4437 56.7162 44.0386 56.1146 69.3086C55.8572 80.1307 59.2223 90.15 65.0671 98.2639L65.0544 98.2678L65.5184 98.899C65.5406 98.9286 65.5619 98.9587 65.5837 98.9883L99.3034 144.853C102.272 148.89 108.346 148.763 111.143 144.605L141.621 99.2937C147.389 90.4976 151.345 81.3038 151.345 70.4664C151.345 43.789 129.409 22.2353 102.591 22.8574ZM103.722 105.097C83.9491 105.097 67.9195 89.0675 67.9195 69.2942C67.9195 49.5209 83.9491 33.4913 103.722 33.4913C123.496 33.4913 139.525 49.5209 139.525 69.2942C139.525 89.0675 123.496 105.097 103.722 105.097Z" fill="black"/>
</g>
<path d="M99.7681 22.8574C74.4981 23.4437 53.8932 44.0386 53.2916 69.3086C53.0342 80.1307 56.3993 90.15 62.2441 98.2639L62.2314 98.2678L62.6954 98.899C62.7176 98.9286 62.7389 98.9587 62.7607 98.9883L96.4804 144.853C99.4487 148.89 105.523 148.763 108.319 144.605L138.798 99.2937C144.565 90.4976 148.521 81.3038 148.521 70.4664C148.522 43.789 126.586 22.2353 99.7681 22.8574ZM100.9 105.097C81.1265 105.097 65.0969 89.0675 65.0969 69.2942C65.0969 49.5209 81.1265 33.4913 100.9 33.4913C120.673 33.4913 136.703 49.5209 136.703 69.2942C136.703 89.0675 120.673 105.097 100.9 105.097Z" fill="#7B2C82"/>
<g opacity="0.3">
<path d="M121.497 96.2979C120.924 96.9465 83.0631 106.943 82.4902 107.592C89.7512 109.806 98.6213 111.734 106.2 111.295C110.473 111.047 114.929 110.285 118.307 107.657C121.685 105.027 123.554 100.052 121.497 96.2979Z" fill="black"/>
</g>
<path d="M85.3418 24.0457C83.1424 26.3401 82.1827 29.7575 82.8658 32.8613C83.1977 34.369 83.8616 36.0501 83.0335 37.3526C82.2132 38.642 80.2812 38.879 79.5063 40.1963C78.5941 41.7471 79.8129 43.6939 79.66 45.4865C79.5163 47.1693 77.9646 48.6121 76.2761 48.633C78.4438 49.949 80.98 50.6512 83.5157 50.6377C84.0376 49.7316 84.5595 48.8251 85.0813 47.9186C84.478 48.8783 84.8618 50.2191 85.686 50.9976C86.5102 51.776 87.6589 52.1023 88.7763 52.2918C94.1157 53.197 99.8419 51.4232 103.735 47.6581" fill="#263238"/>
<path d="M115.889 33.4975C115.344 32.3823 114.551 31.3891 114.125 30.223C113.211 27.7164 114.062 24.6313 112.483 22.4807C111.358 20.9503 109.343 20.4058 107.469 20.1043C105.594 19.8029 103.598 19.6038 102.073 18.4725C100.954 17.6426 100.208 16.3885 99.0924 15.5547C97.5024 14.3668 95.3753 14.1869 93.3962 14.3415C91.3641 14.5001 89.3079 14.9858 87.6203 16.1293C85.9327 17.2724 84.662 19.1529 84.6184 21.1912C84.5971 22.1849 84.8589 23.1864 84.6838 24.1648C84.4913 25.2403 83.7956 26.1538 83.4323 27.1849C82.6643 29.363 83.6178 32.0173 85.5964 33.2087L101.934 49.1372C104.993 49.8277 111.848 47.5132 113.793 45.0524C115.738 42.5907 117.267 36.3151 115.889 33.4975Z" fill="#263238"/>
<path d="M85.6433 30.8864C85.6451 26.7498 88.0584 21.5236 92.1907 21.7009L105.213 24.1382C106.469 24.1918 107.474 25.1977 107.528 26.4531L108.092 57.4519C108.123 57.4567 108.151 57.4611 108.182 57.4654C108.182 57.4654 105.827 66.3722 97.1838 64.2585C95.4696 63.8395 94.584 62.0517 94.1284 60.1837L94.0425 60.2003C94.0247 59.9759 94.0086 59.7673 93.9916 59.5534C93.5708 57.3905 93.6662 55.3126 93.6662 55.3126C93.4806 52.8187 93.417 51.7954 93.4165 51.8185C93.4165 51.8185 88.098 51.2744 86.5773 44.4743C85.8211 41.0931 85.6416 35.4822 85.6433 30.8864Z" fill="#FFBE9D"/>
<path d="M97.5735 35.1252C97.5862 35.5913 97.9913 35.965 98.4783 35.9607C98.9645 35.9563 99.3491 35.576 99.3365 35.1099C99.3239 34.6438 98.9183 34.2696 98.4326 34.274C97.9456 34.2779 97.5609 34.6591 97.5735 35.1252Z" fill="#263238"/>
<path d="M88.578 35.8121C88.5906 36.2782 88.9957 36.652 89.4827 36.6476C89.9689 36.6433 90.3536 36.263 90.3409 35.7964C90.3283 35.3303 89.9232 34.9561 89.437 34.9605C88.95 34.9644 88.5649 35.3456 88.578 35.8121Z" fill="#263238"/>
<path d="M86.6885 33.8636C86.8053 34.0099 87.5445 33.3835 88.5804 33.3892C89.615 33.3774 90.3652 33.9995 90.4797 33.8522C90.5359 33.7869 90.4187 33.5229 90.0925 33.2419C89.7714 32.9623 89.2199 32.6891 88.5747 32.6904C87.9296 32.693 87.3825 32.9684 87.0662 33.2506C86.743 33.5338 86.631 33.7978 86.6885 33.8636Z" fill="#263238"/>
<path d="M96.2607 33.6301C96.401 33.7599 97.118 33.0694 98.2158 32.9632C99.3118 32.8399 100.175 33.3652 100.28 33.2093C100.332 33.1396 100.181 32.8948 99.8028 32.656C99.4316 32.4173 98.8178 32.2113 98.1335 32.2823C97.4495 32.3546 96.8993 32.6822 96.5944 32.9919C96.2838 33.3025 96.1928 33.5722 96.2607 33.6301Z" fill="#263238"/>
<path d="M93.3691 40.5616C93.3699 40.5076 92.7744 40.4427 91.8121 40.3804C91.5686 40.3703 91.3364 40.3368 91.2855 40.1743C91.2175 40.0031 91.3025 39.7361 91.4022 39.4468C91.5935 38.847 91.793 38.2179 92.0025 37.5593C92.8319 34.8732 93.4165 32.6703 93.3081 32.6381C93.1996 32.6054 92.439 34.7565 91.6096 37.4425C91.4109 38.1047 91.2206 38.7359 91.0402 39.3397C90.9657 39.6202 90.8281 39.9421 90.974 40.2976C91.0507 40.4745 91.2363 40.5947 91.3944 40.6265C91.5525 40.664 91.6889 40.6583 91.8091 40.6579C92.7723 40.6487 93.3686 40.6156 93.3691 40.5616Z" fill="#263238"/>
<path d="M93.4165 51.8183C93.4165 51.8183 98.0554 51.827 102.461 48.7886C102.461 48.7886 100.525 53.6462 93.6108 53.434L93.4165 51.8183Z" fill="#EB996E"/>
<path d="M93.9127 42.8207C94.2254 42.349 94.807 42.0636 95.4042 42.0906C95.8181 42.1094 96.2463 42.2814 96.5172 42.6007C96.7882 42.92 96.8705 43.3923 96.6632 43.7255C96.4301 44.1015 95.9008 44.2178 95.4404 44.1176C94.9799 44.0174 94.5722 43.7438 94.1836 43.4702C94.076 43.3944 93.9662 43.3156 93.8957 43.2067C93.8247 43.0982 93.802 42.9519 93.8747 42.8538" fill="#FF725E"/>
<path d="M96.1994 41.0426C96.0447 41.0434 96.107 42.0719 95.2724 42.8574C94.4395 43.645 93.3352 43.5983 93.3365 43.7425C93.326 43.8079 93.5935 43.9272 94.057 43.9107C94.5122 43.8981 95.1661 43.7103 95.6766 43.2298C96.1859 42.7484 96.3793 42.1364 96.388 41.7121C96.4002 41.28 96.2695 41.0321 96.1994 41.0426Z" fill="#263238"/>
<path d="M95.9024 30.4222C96.0118 30.674 96.9506 30.4928 98.071 30.5572C99.1927 30.5991 100.11 30.8683 100.243 30.6278C100.302 30.5133 100.131 30.2806 99.752 30.0537C99.377 29.8271 98.7889 29.6263 98.1167 29.5937C97.4445 29.5623 96.8399 29.7065 96.4452 29.8968C96.0475 30.0868 95.8545 30.3024 95.9024 30.4222Z" fill="#263238"/>
<path d="M87.2211 30.9583C87.4249 31.1617 88.1572 30.8916 89.0542 30.8246C89.9485 30.7305 90.7204 30.8655 90.8812 30.6294C90.9509 30.5153 90.8176 30.307 90.473 30.1241C90.1332 29.9416 89.5756 29.81 88.9596 29.8649C88.3445 29.9206 87.8222 30.1489 87.5238 30.3894C87.2206 30.6303 87.1305 30.8585 87.2211 30.9583Z" fill="#263238"/>
<path d="M108.101 24.7301C107.338 23.8523 106.141 23.5134 105.008 23.2494C100.124 22.1098 95.1048 21.5548 90.0899 21.5997C89.6182 22.6966 90.3783 23.993 91.4068 24.5989C92.4353 25.2053 93.6651 25.329 94.8308 25.5882C95.9965 25.8474 97.2211 26.3262 97.8301 27.3529C98.4778 28.445 98.2609 29.8765 98.8529 30.9995C99.8718 32.9324 102.804 33.1907 103.812 35.1288C104.573 36.5951 103.91 38.3624 103.914 40.0143C103.918 41.8866 104.871 43.7332 106.394 44.8218C107.595 45.6804 109.125 46.0424 110.589 45.8655C110.108 39.9777 109.626 34.0898 109.144 28.202C109.044 26.9761 108.907 25.6588 108.101 24.7301Z" fill="#263238"/>
<path d="M121.935 37.8354C120.897 37.138 119.641 36.5852 119.107 35.4539C118.33 33.806 119.43 31.5873 118.319 30.1432C117.306 28.8259 114.921 29.2341 113.961 27.878C113.211 26.819 113.747 25.7138 113.382 24.7424C113.017 23.771 111.471 23.091 110.467 23.3541L104.111 36.0324C103.914 40.014 103.458 42.1829 104.609 44.3349C105.24 45.5155 106.005 46.645 106.368 47.9332C106.731 49.2213 106.604 50.7564 105.639 51.6839C110.461 51.3894 114.58 48.2668 118.372 45.2746C119.71 44.219 121.048 43.1635 122.385 42.1076C122.803 41.7778 123.237 41.4276 123.446 40.9384C123.938 39.7888 122.973 38.5329 121.935 37.8354Z" fill="#263238"/>
<path d="M118.328 44.0895C118.328 44.0895 118.167 44.1766 117.832 44.259C117.499 44.3404 116.988 44.4276 116.332 44.3618C115.682 44.2969 114.875 44.0825 114.103 43.5367C113.334 43.0009 112.647 42.0926 112.349 40.94C112.202 40.3654 112.153 39.7333 112.248 39.089C112.345 38.4412 112.61 37.8157 112.886 37.1923C113.157 36.5685 113.459 35.9251 113.542 35.225C113.624 34.5376 113.515 33.7492 113.003 33.2386C112.488 32.718 111.662 32.6889 110.872 32.4924C110.475 32.3948 110.053 32.2158 109.749 31.8821C109.446 31.5488 109.298 31.1076 109.246 30.6776C109.134 29.8029 109.394 28.9525 109.44 28.1174C109.465 27.6993 109.435 27.2736 109.277 26.8981C109.122 26.5226 108.827 26.2151 108.453 26.0273C107.696 25.6322 106.806 25.6767 105.95 25.7207C105.091 25.7786 104.175 25.7115 103.391 25.3421C102.602 24.9953 101.929 24.4338 101.453 23.7543C100.98 23.066 100.734 22.2893 100.512 21.5557C100.291 20.8195 100.085 20.102 99.7439 19.4773C99.4028 18.8557 98.9206 18.3417 98.3852 17.9439C97.2953 17.1637 96.0119 16.8466 94.8763 16.9124C93.7323 16.9756 92.7487 17.4186 92.0086 17.9418C91.2615 18.4663 90.7322 19.0696 90.3676 19.5984C89.6414 20.6714 89.499 21.4023 89.4602 21.3845C89.4554 21.3832 89.465 21.3392 89.4885 21.2542C89.5146 21.1706 89.5425 21.0412 89.6048 20.8813C89.7172 20.5568 89.9215 20.0881 90.2774 19.5374C90.6338 18.9903 91.1604 18.3643 91.918 17.8141C92.6681 17.2661 93.6753 16.7935 94.8645 16.7146C96.0429 16.634 97.3759 16.9485 98.522 17.7558C99.0848 18.1674 99.5962 18.7041 99.9604 19.3588C100.323 20.014 100.536 20.7489 100.76 21.4808C100.984 22.2113 101.228 22.9593 101.673 23.6014C102.122 24.2378 102.758 24.7662 103.502 25.0908C104.247 25.4362 105.081 25.4985 105.938 25.4419C106.786 25.4 107.736 25.3391 108.584 25.7786C109.003 25.9868 109.358 26.3532 109.536 26.7892C109.718 27.2253 109.745 27.6932 109.72 28.1327C109.665 29.0179 109.414 29.8408 109.52 30.6445C109.566 31.04 109.698 31.4199 109.951 31.6996C110.205 31.9788 110.563 32.1391 110.94 32.2332C111.317 32.3338 111.715 32.3831 112.106 32.488C112.495 32.5874 112.894 32.7573 113.186 33.0552C113.78 33.6603 113.877 34.5254 113.787 35.2547C113.692 36.0087 113.374 36.6652 113.099 37.2868C112.818 37.9076 112.56 38.5105 112.463 39.1226C112.367 39.7342 112.407 40.3392 112.542 40.8916C112.816 42.0003 113.463 42.882 114.196 43.4095C114.931 43.9479 115.712 44.1736 116.345 44.2529C117.635 44.3953 118.324 44.0394 118.328 44.0895Z" fill="#455A64"/>
<path d="M123.538 34.9791C123.538 34.9791 123.65 35.0824 123.75 35.3468C123.85 35.606 123.904 36.0499 123.711 36.5583C123.609 36.8066 123.448 37.0727 123.19 37.2853C122.935 37.4966 122.594 37.6521 122.21 37.6996C121.451 37.8142 120.493 37.4822 119.935 36.6659C119.654 36.2686 119.465 35.7833 119.391 35.2597C119.319 34.733 119.379 34.1802 119.506 33.6366C119.74 32.5514 120.286 31.4497 120.131 30.2413C120.063 29.655 119.836 29.039 119.348 28.6792C118.863 28.308 118.192 28.295 117.539 28.3808C116.882 28.4505 116.181 28.6339 115.444 28.4562C115.081 28.3651 114.736 28.1547 114.494 27.8602C114.25 27.5679 114.094 27.2168 113.998 26.857C113.806 26.1256 113.882 25.3977 113.874 24.712C113.884 24.0241 113.75 23.3668 113.488 22.7626C112.962 21.5572 111.974 20.6215 110.86 20.161C109.739 19.6827 108.533 19.7829 107.447 19.8696C106.354 19.9641 105.297 20.043 104.361 19.8169C103.429 19.61 102.647 19.2105 102.036 18.7718C101.419 18.3362 100.975 17.8527 100.655 17.4327C100.02 16.5798 99.875 15.9987 99.875 15.9987C99.9068 15.9813 100.09 16.5484 100.741 17.3652C101.068 17.7673 101.515 18.2299 102.126 18.6429C102.731 19.0594 103.498 19.4349 104.403 19.6222C105.307 19.8287 106.331 19.7424 107.427 19.6374C108.512 19.5425 109.76 19.4214 110.959 19.9219C112.138 20.4028 113.18 21.3799 113.74 22.6528C114.019 23.2858 114.164 24.0024 114.153 24.7102C114.159 25.4125 114.093 26.1212 114.27 26.7851C114.432 27.4477 114.87 28.0393 115.514 28.1861C116.15 28.3455 116.834 28.1821 117.507 28.1077C118.169 28.0223 118.936 28.0249 119.509 28.4649C120.081 28.8944 120.318 29.5848 120.388 30.2113C120.465 30.8495 120.361 31.4811 120.201 32.0492C120.045 32.622 119.858 33.16 119.732 33.6893C119.604 34.2164 119.543 34.74 119.606 35.2314C119.669 35.7223 119.842 36.1793 120.097 36.5522C120.605 37.3158 121.48 37.6338 122.191 37.5436C122.548 37.5071 122.866 37.3694 123.106 37.1812C123.348 36.9922 123.507 36.7478 123.61 36.5165C123.808 36.0429 123.776 35.6191 123.696 35.3642C123.617 35.1042 123.524 34.9874 123.538 34.9791Z" fill="#263238"/>
<path d="M73.6733 44.8729C73.7173 44.8638 73.4795 45.3665 73.8637 46.1179C74.0532 46.4699 74.4274 46.8794 74.9959 46.9844C75.5496 47.0911 76.2657 46.848 76.6791 46.2608C76.8869 45.972 76.9788 45.5965 76.9492 45.2044C76.9205 44.8128 76.7859 44.4129 76.5977 44.023C76.2313 43.2511 75.5914 42.4448 75.523 41.3814C75.4376 40.3525 75.8088 39.2351 76.5872 38.4218C76.9714 38.0136 77.4415 37.6765 77.9638 37.4308C78.4865 37.1777 79.065 37.057 79.6283 36.9486C80.1933 36.8392 80.7513 36.7456 81.2532 36.5452C81.7524 36.3487 82.1845 36.0181 82.4245 35.5676C82.6659 35.1181 82.7256 34.5927 82.6907 34.0913C82.6563 33.5856 82.5269 33.102 82.3609 32.6376C82.032 31.7119 81.6169 30.8255 81.5424 29.9072C81.4631 28.995 81.6944 28.142 82.0695 27.4707C82.4441 26.7872 82.9878 26.325 83.4395 25.94C83.8987 25.5544 84.289 25.2225 84.5621 24.9071C85.1241 24.2798 85.1655 23.7762 85.2029 23.7937C85.2077 23.7945 85.2047 23.8237 85.1942 23.8803C85.1812 23.9357 85.1733 24.0228 85.1315 24.1273C85.0662 24.3417 84.918 24.6479 84.6453 24.9777C84.3783 25.3122 83.9902 25.6629 83.5423 26.0584C83.0989 26.4557 82.5875 26.9114 82.2433 27.5666C81.8966 28.2122 81.6888 29.0272 81.7737 29.8863C81.8521 30.7505 82.2603 31.6096 82.6045 32.5518C82.7765 33.0236 82.9185 33.5355 82.9577 34.0726C82.9974 34.6062 82.9395 35.1839 82.6663 35.6983C82.3949 36.2154 81.8957 36.5935 81.3568 36.8048C80.8154 37.0213 80.243 37.1154 79.6806 37.2247C79.1177 37.3332 78.5715 37.4478 78.0814 37.6843C77.5896 37.9143 77.147 38.2306 76.7863 38.6113C76.0566 39.368 75.7077 40.4056 75.7796 41.3627C75.8301 42.3372 76.4265 43.1126 76.8063 43.9246C76.998 44.3332 77.1383 44.7605 77.164 45.1922C77.1923 45.6213 77.0803 46.0548 76.8399 46.3767C76.3637 47.0258 75.5779 47.271 74.9645 47.1395C74.3351 47.0049 73.9513 46.5483 73.7653 46.1693C73.5723 45.7777 73.561 45.4266 73.5832 45.2049C73.6145 44.9784 73.6733 44.8729 73.6733 44.8729Z" fill="#263238"/>
<path d="M75.2832 71.4352C75.2832 71.4352 76.015 65.5787 78.8387 62.6504C81.6624 59.7222 93.4756 56.0556 93.4756 56.0556C93.4756 56.0556 93.9635 60.2332 96.7924 61.2403C99.7934 62.3093 103.183 61.9077 105.381 59.3584C107.506 56.8937 108.126 53.7241 108.126 53.7241C108.126 53.7241 122.234 55.0223 124.535 58.8919C126.836 62.7615 129.811 77.7486 129.811 77.7486L116.621 80.5484L118.414 106.367H83.3618L84.0479 82.138L74.5056 83.5006L75.2832 71.4352Z" fill="#455A64"/>
<path d="M114.001 81.4011C113.98 81.4007 113.965 81.1934 113.954 80.8187C113.944 80.4441 113.939 79.9022 113.939 79.2331C113.939 77.8944 113.96 76.0456 114.003 74.0043C114.045 71.9621 114.101 70.1138 114.156 68.7755C114.183 68.1064 114.211 67.5649 114.237 67.1907C114.263 66.8165 114.287 66.6096 114.308 66.6096C114.329 66.6096 114.345 66.8165 114.355 67.1907C114.365 67.5649 114.371 68.1064 114.37 68.776C114.37 70.1146 114.348 71.9643 114.306 74.0073C114.264 76.05 114.209 77.8987 114.153 79.237C114.126 79.9061 114.098 80.4471 114.072 80.8213C114.047 81.1951 114.022 81.4016 114.001 81.4011Z" fill="#263238"/>
<path d="M80.7979 70.7716C80.8785 70.7485 81.7018 73.3666 82.6362 76.619C83.5711 79.8722 84.2632 82.5273 84.1827 82.5508C84.1021 82.5739 83.2792 79.9563 82.3443 76.7031C81.4095 73.4503 80.7173 70.7947 80.7979 70.7716Z" fill="#263238"/>
<path d="M123.061 57.9626C123.071 58.0167 122.435 58.1334 121.473 58.4998C120.51 58.8618 119.236 59.5278 118.049 60.5555C116.866 61.5887 116.03 62.7588 115.538 63.6614C115.042 64.5645 114.838 65.1778 114.786 65.16C114.766 65.1534 114.802 64.9962 114.885 64.7148C114.963 64.432 115.119 64.0352 115.347 63.5621C115.8 62.6151 116.633 61.3884 117.849 60.3263C119.07 59.2695 120.4 58.6143 121.4 58.2972C121.9 58.1364 122.315 58.0371 122.606 57.9997C122.897 57.9561 123.057 57.9422 123.061 57.9626Z" fill="#263238"/>
<path d="M78.6255 63.8329C78.7069 63.8124 78.984 64.6266 79.2445 65.6512C79.505 66.6766 79.6505 67.5239 79.569 67.5444C79.4876 67.5649 79.2105 66.7511 78.95 65.7257C78.6895 64.7011 78.5445 63.8534 78.6255 63.8329Z" fill="#263238"/>
<path d="M127.464 78.2473C127.464 78.2473 123.513 98.3116 123.061 100.028C122.609 101.745 121.879 106.367 117.094 107.322C110.635 108.613 85.2673 107.712 85.2673 107.712L90.0526 101.654L112.248 95.4304L115.281 80.8323L127.464 78.2473Z" fill="#FFBE9D"/>
<path d="M89.6339 98.2677C89.6517 98.2621 89.7266 98.4232 89.8234 98.7299C89.9201 99.0362 90.0237 99.4931 90.0778 100.068C90.1928 101.207 90.0333 102.873 89.1712 104.438C88.7452 105.205 88.266 105.905 87.7189 106.45C87.177 107 86.5688 107.371 86.0247 107.579C85.4802 107.79 85.0102 107.852 84.6909 107.879C84.3685 107.893 84.1916 107.882 84.1908 107.863C84.1808 107.798 84.913 107.82 85.9424 107.38C86.4516 107.157 87.0123 106.789 87.5189 106.254C88.0299 105.725 88.4882 105.042 88.9051 104.291C89.7306 102.792 89.9209 101.196 89.863 100.082C89.8125 98.9569 89.5794 98.2821 89.6339 98.2677Z" fill="#EB996E"/>
<path d="M68.3936 74.5212C68.3936 74.5212 71.9704 86.5565 73.4546 91.757C75.0316 97.2828 78.4769 109.83 85.8223 107.601C91.4096 105.906 89.7651 98.6646 89.7651 98.6646L84.0476 82.138L79.6012 82.8799L75.2833 71.7354L68.3936 74.5212Z" fill="#FFBE9D"/>
<path d="M87.8112 99.1843C87.7415 99.1808 88.1994 98.1331 87.8134 96.4617C87.6261 95.6383 87.2367 94.693 86.6224 93.756C86.0095 92.8151 85.1836 91.885 84.3054 90.9136C83.4237 89.9456 82.6043 88.9812 81.9791 88.0215C81.344 87.0692 80.8709 86.1505 80.5181 85.3625C80.1674 84.5731 79.9417 83.911 79.8019 83.4496C79.6621 82.9883 79.6111 82.7261 79.6285 82.7208C79.6516 82.7139 79.7405 82.9644 79.9139 83.4113C80.0868 83.8578 80.3412 84.5025 80.7128 85.2718C81.0861 86.0394 81.5727 86.935 82.2109 87.8647C82.8399 88.8017 83.6484 89.7409 84.531 90.7101C85.4088 91.6811 86.2421 92.6304 86.8577 93.604C87.4763 94.5763 87.8574 95.5599 88.0234 96.4168C88.1981 97.2745 88.141 97.995 88.0478 98.4699C87.9933 98.7073 87.9446 98.8889 87.8945 99.0074C87.8496 99.1272 87.8213 99.1878 87.8112 99.1843Z" fill="#EB996E"/>
<path d="M75.2834 71.7345C75.2834 71.7345 75.3086 66.9283 74.8861 65.5731L71.49 57.9837C71.49 57.9837 70.6153 57.4474 70.1975 58.9608C69.7863 60.4501 71.1049 62.0293 71.1049 62.0293L71.2081 64.0161L69.8333 62.8983L67.1878 57.9405C67.1878 57.9405 65.3656 54.331 64.8921 54.9038C64.4185 55.4767 64.5749 56.6372 65.3612 58.1949C66.1475 59.7527 67.1451 61.7283 67.1451 61.7283C67.1451 61.7283 67.4139 62.3551 66.4777 61.4451C65.5416 60.5351 63.5072 56.127 63.0864 55.5764C62.6656 55.0262 62.0884 53.4105 61.1762 53.7756C60.264 54.1406 61.4324 56.0778 61.4324 56.0778L64.3506 62.6143C64.3506 62.6143 62.6591 60.1387 62.3533 59.7213C62.047 59.304 61.3444 57.8865 60.7898 57.1651C60.2353 56.4442 59.6306 56.1623 59.2285 56.3361C58.5041 56.6493 58.7237 57.3324 58.7237 57.3324L61.8388 62.738C61.8388 62.738 63.3966 65.1627 63.394 65.3461C63.3913 65.5299 62.0361 64.5454 62.0361 64.5454L60.7301 62.8809C60.7301 62.8809 59.3174 60.3874 58.5756 60.5233C57.8337 60.6597 57.9692 61.2107 57.9692 61.2107L60.5942 65.7499L64.4007 70.6463L68.4716 74.6906L70.823 73.9326L75.2834 71.7345Z" fill="#FFBE9D"/>
<path d="M67.7949 70.9225C67.8563 70.9259 67.8942 70.3344 68.0384 69.4078C68.1904 68.5074 68.5014 67.1644 69.6031 66.2953C70.0849 65.9085 70.6565 65.6906 71.1853 65.692L71.38 65.6924L71.3665 65.4811C71.3064 64.5493 71.3399 63.6624 71.306 63.0726C71.2872 62.4723 71.2228 62.1129 71.1753 62.1207C71.1409 62.1277 71.1269 62.4701 71.0825 63.0695C71.0555 63.6781 70.9657 64.4888 71.0071 65.5391L71.1879 65.3282C70.568 65.3086 69.8993 65.5569 69.3614 65.9904C68.7593 66.4652 68.3572 67.1012 68.1307 67.7089C67.8994 68.3179 67.811 68.8946 67.7657 69.3725C67.6886 70.3331 67.7491 70.9207 67.7949 70.9225Z" fill="#EB996E"/>
</svg>
