<svg width="20" height="20" viewBox="0 0 20 20" fill="none" xmlns="http://www.w3.org/2000/svg">
<path d="M19.9344 1.00237V16.4521C19.9344 16.5686 19.8705 16.692 19.7654 16.7491C19.5164 16.8816 19.2651 17.0141 19.0161 17.1443C17.9333 17.7154 16.8481 18.2888 15.7653 18.8622C15.08 19.2232 14.3969 19.5864 13.7116 19.9474C13.4854 20.0684 13.1953 19.9199 13.1953 19.6504C13.1953 19.6412 13.1953 19.6321 13.1953 19.623C13.1907 19.4151 13.1953 19.2049 13.1953 18.9947V17.1375H6.6846C6.31224 17.1375 5.99927 16.8222 5.99927 16.4521V11.52C5.99927 11.1362 6.31452 10.8507 6.6846 10.8347C7.05469 10.8187 7.36994 11.1613 7.36994 11.52V15.7668H13.1953V3.54497C13.1953 3.42846 13.2593 3.3051 13.3644 3.24799C13.6134 3.11549 13.8646 2.98299 14.1137 2.85278C15.0457 2.35933 15.9778 1.86818 16.9121 1.37473H7.36994V5.18749C7.36994 5.57128 7.05469 5.85683 6.6846 5.87283C6.31452 5.88882 5.99927 5.54615 5.99927 5.18749V0.689398C5.99927 0.317032 6.31452 0.00406125 6.6846 0.00406125C6.69374 0.00406125 6.7006 0.00406125 6.70973 0.00406125C7.28999 -0.00507657 7.87252 0.00406125 8.45506 0.00406125H19.6146C19.6809 0.00634571 19.7403 0.0314747 19.7928 0.0703105C19.7951 0.0725949 19.7997 0.0748793 19.8019 0.0771637C19.8362 0.102293 19.8659 0.134275 19.8888 0.175395C19.9025 0.19824 19.9139 0.225653 19.9207 0.250782C19.9207 0.253067 19.923 0.255351 19.923 0.257636C19.9322 0.287334 19.9367 0.317032 19.9367 0.346729C19.9367 0.355867 19.9367 0.365005 19.9367 0.374143C19.939 0.582028 19.9344 0.792198 19.9344 1.00237Z" fill="#7B2C82"/>
<path d="M8.69749 7.56334V9.23556C8.69749 9.4206 8.53987 9.57823 8.35483 9.57823H4.81392V11.5589C4.81392 11.7941 4.51237 12.018 4.29763 11.8558C4.12858 11.7256 3.95725 11.5954 3.7882 11.4675C3.04575 10.9009 2.3033 10.3321 1.56085 9.76555C1.09483 9.40918 0.628796 9.0528 0.162767 8.69643C-0.0542558 8.52966 -0.0542558 8.27152 0.162767 8.10475C0.331817 7.97454 0.503151 7.84433 0.672201 7.7164C1.41465 7.14985 2.1571 6.58102 2.89955 6.01448C3.36557 5.6581 3.8316 5.30173 4.29763 4.94535C4.51237 4.78087 4.81392 5.00475 4.81392 5.24233V7.22295H8.35483C8.53987 7.21153 8.69749 7.38287 8.69749 7.56334Z" fill="#7B2C82"/>
</svg>
