<svg width="25" height="40" viewBox="0 0 25 40" fill="none" xmlns="http://www.w3.org/2000/svg">
<path d="M16.4417 24.9414C18.4549 25.8042 20.4734 26.6514 22.4772 27.533C23.7798 28.1061 24.4571 29.145 24.4675 30.5664C24.4894 32.9058 24.4436 35.2462 24.4863 37.5845C24.5082 38.7871 24.0861 39.6144 22.918 40H12.8591V30.0797L16.4417 24.9414Z" fill="#F37F87"/>
<path d="M1.55387 40C0.786922 39.7343 0.21067 39.281 0.0429003 38.4369C0.0125214 38.2713 -0.00178514 38.1031 0.000177641 37.9347C0.000177641 35.49 0.000177641 33.0457 0.000177641 30.6018C0.000177641 29.1586 0.767124 28.0519 2.10511 27.485C4.085 26.6514 6.05864 25.7907 8.0354 24.9414L11.6138 30.0787V39.999L1.55387 40ZM9.01597 35.4661C9.01597 35.0763 9.03472 34.6877 9.02638 34.299C9.017 33.8082 8.77108 33.5497 8.28757 33.5341C7.91348 33.5226 7.5373 33.5414 7.16216 33.5466C7.00273 33.1611 7.11527 32.7588 7.09339 32.3649C7.06629 31.8825 6.85268 31.6272 6.4369 31.6355C6.02112 31.6438 5.79083 31.9002 5.77833 32.3764C5.76895 32.763 5.77311 33.1506 5.76999 33.5383C5.3813 33.5383 4.99158 33.5216 4.6029 33.5383C4.09334 33.5612 3.88389 33.7904 3.87346 34.3021C3.87346 34.6918 3.87346 35.0815 3.87867 35.4713C3.7901 35.6213 3.87867 35.7735 3.87867 35.9235C3.87867 36.6029 4.07562 36.7915 4.76129 36.7926H7.90827C8.87841 36.7926 9.02951 36.6415 9.02638 35.663C9.03264 35.5942 9.02118 35.5265 9.01597 35.4661Z" fill="#F37F87"/>
<path d="M13.6395 0C14.272 0.104205 14.9077 0.196947 15.5371 0.312614C16.2792 0.447744 16.9976 0.691048 17.6691 1.03475C18.3631 1.3953 18.7945 1.89861 18.6934 2.7385C18.6846 2.90745 18.6898 3.07684 18.7091 3.24493C18.7 3.46585 18.6913 3.68607 18.683 3.90559C15.7347 3.90559 12.7868 3.90559 9.83916 3.90559C8.90757 3.90142 8.34695 3.32726 8.34069 2.38941C8.33548 1.75168 8.34069 1.11395 8.34069 0.476215C9.00969 0.249049 9.71098 0.18861 10.4039 0.0875319C10.4998 0.0739853 10.6124 0.116709 10.6801 0.00312601L13.6395 0Z" fill="#F37F87"/>
<path d="M11.6118 40C11.6118 36.6925 11.6118 33.3858 11.6118 30.0797C12.0974 30.4184 12.3704 30.4184 12.8623 30.0797V40H11.6118Z" fill="#E5646E"/>
<path d="M8.9659 23.5179C6.5692 23.0126 4.32984 22.131 2.28847 20.7669C1.57884 20.2918 1.42045 19.8166 1.68825 18.9955C2.26971 17.2021 2.52814 15.3577 2.57399 13.4726C2.60838 12.0429 2.48125 10.6091 2.65319 9.18564C2.94288 6.79727 3.97346 4.78195 5.76786 3.17094C5.82518 3.72219 5.71159 4.28281 5.85435 4.82884C5.86087 4.91766 5.87446 5.00582 5.89499 5.09248C6.17009 5.98134 6.86097 6.49403 7.59561 6.96816C7.72483 7.05048 7.87592 7.10259 7.94783 7.25577C6.40351 7.77679 5.41357 8.81884 5.21662 10.459C5.04156 11.9179 5.16348 13.3851 5.16348 14.8481C5.15036 15.8101 5.34552 16.7635 5.73556 17.6429C6.41185 19.2185 7.54872 20.3658 9.03572 21.1858C9.03572 21.6763 9.03815 22.1668 9.04302 22.6572C8.98987 22.9417 9.10137 23.2408 8.9659 23.5179Z" fill="#795454"/>
<path d="M8.96601 23.518C9.10565 23.2408 8.99415 22.9417 9.04208 22.6562C9.22392 22.6504 9.40446 22.6886 9.56832 22.7677C10.923 23.2564 12.3099 23.3022 13.7219 23.0907C14.3107 23.0021 14.8484 22.7291 15.4382 22.6551C15.483 22.9417 15.3642 23.2418 15.5142 23.518C15.5445 24.1776 15.9415 24.5944 16.4458 24.9414L12.8633 30.0797C12.3756 30.4184 12.1026 30.4184 11.6128 30.0797L8.03442 24.9424C8.53461 24.5923 8.93163 24.1755 8.96601 23.518Z" fill="#E2A976"/>
<path d="M5.85016 4.83196C5.7074 4.28593 5.82098 3.72531 5.76367 3.17407C5.78288 2.98123 5.78915 2.78732 5.78243 2.59365C5.71366 1.9059 6.0617 1.46303 6.61607 1.14104C7.15029 0.825069 7.73297 0.599389 8.34065 0.473083C8.34065 1.11082 8.34065 1.74855 8.34065 2.38628C8.34795 3.32412 8.90857 3.90142 9.84016 3.90246C12.7885 3.90663 15.7364 3.90663 18.684 3.90246C18.6892 3.96707 18.6986 4.03167 18.6996 4.09628C18.7069 4.96118 18.5142 5.15812 17.6638 5.15812C14.0035 5.15812 10.3428 5.15812 6.68171 5.15812C6.34409 5.16334 6.07004 5.08727 5.85016 4.83196Z" fill="#E4646F"/>
<path d="M5.8501 4.83197C6.06997 5.08727 6.34403 5.16334 6.68374 5.1623C10.3441 5.15257 14.0048 5.15257 17.6659 5.1623C18.5162 5.1623 18.7079 4.96535 18.7017 4.10045C18.7017 4.03584 18.6912 3.97124 18.686 3.90663C18.6944 3.68641 18.703 3.46619 18.7121 3.24597C20.5054 4.91325 21.5152 6.989 21.8236 9.40968C21.981 10.6403 21.8893 11.8793 21.8997 13.1142C21.9174 15.142 22.1738 17.1292 22.8146 19.0611C23.0574 19.7905 22.8751 20.3116 22.2269 20.744C20.1933 22.1026 17.9118 23.047 15.513 23.5232C15.3629 23.247 15.4817 22.9469 15.4369 22.6603C15.4286 22.1782 15.4206 21.6958 15.413 21.2129C15.5245 21.1473 15.636 21.0827 15.7454 21.015C18.0431 19.6061 19.2581 17.5668 19.3165 14.8554C19.3165 13.8926 19.3456 12.9308 19.3227 11.9689C19.3008 11.0634 18.5724 10.2881 17.6836 10.1579C16.3905 9.97383 15.1075 9.72481 13.8395 9.41176C12.3024 9.02829 10.8238 8.47392 9.35867 7.89246C8.90329 7.6507 8.4573 7.38498 7.94982 7.25993C7.87792 7.10675 7.72682 7.05153 7.59761 6.97233C6.86297 6.50237 6.17209 5.98968 5.89699 5.09665C5.87429 5.00982 5.85861 4.92131 5.8501 4.83197Z" fill="#976B5C"/>
<path d="M7.16206 33.5466C7.5372 33.5414 7.91338 33.5226 8.28747 33.5341C8.77098 33.5497 9.0169 33.8081 9.02628 34.2989C9.03462 34.6876 9.02003 35.0763 9.01586 35.466H3.88274C3.88274 35.0763 3.87336 34.6866 3.87753 34.2969C3.88379 33.7852 4.09324 33.556 4.60697 33.533C4.99565 33.5164 5.38537 33.533 5.77406 33.533C5.86576 33.8811 6.04291 34.1854 6.43055 34.1947C6.79214 34.2041 6.9995 33.9342 7.12559 33.6112C7.13609 33.5888 7.14828 33.5672 7.16206 33.5466Z" fill="white"/>
<path d="M3.88283 35.4671H9.01595C9.01595 35.5307 9.03262 35.5953 9.03262 35.6599C9.03262 36.6384 8.88465 36.7895 7.91451 36.7895H4.76752C4.08186 36.7895 3.88387 36.5998 3.88491 35.9204C3.88491 35.7693 3.79425 35.6172 3.88283 35.4671Z" fill="#EDE8EA"/>
<path d="M7.1622 33.5466C7.14693 33.5674 7.13334 33.5893 7.12155 33.6123C6.99547 33.9353 6.7881 34.2052 6.42651 34.1958C6.03887 34.1864 5.86172 33.8832 5.77002 33.5341C5.77002 33.1465 5.77002 32.7588 5.77836 32.3722C5.79086 31.896 6.02637 31.6355 6.43693 31.6313C6.8475 31.6272 7.06216 31.8825 7.09342 32.3608C7.1153 32.7588 7.00276 33.1611 7.1622 33.5466Z" fill="#DED6D9"/>
<path d="M7.94364 7.25473C8.45112 7.37978 8.89712 7.6455 9.35249 7.88725C9.32934 7.91778 9.30157 7.9445 9.27017 7.96645C8.12392 8.50623 7.69981 9.45449 7.7071 10.6758C7.71856 12.0617 7.7071 13.4487 7.7071 14.8346L7.71544 14.8575H5.15825C5.15825 13.3986 5.03633 11.9241 5.2114 10.4684C5.40939 8.81572 6.39933 7.77992 7.94364 7.25473Z" fill="#E1A976"/>
<path d="M5.15938 14.8471H7.71657C7.67498 15.4289 7.70473 16.0137 7.80514 16.5883C8.14901 18.4692 9.05559 20.0146 10.5968 21.1733C10.9094 21.4078 11.3158 21.5162 11.5346 21.8736C10.6468 21.833 9.83192 21.5297 9.03371 21.1754C7.54671 20.3564 6.40984 19.2091 5.73355 17.6325C5.34412 16.7561 5.14828 15.806 5.15938 14.8471Z" fill="#ECE9EA"/>
<path d="M9.03052 21.1848C9.83081 21.5391 10.6457 21.8423 11.5314 21.883C11.6504 21.9347 11.7806 21.9552 11.9097 21.9424C13.1168 21.9765 14.315 21.7266 15.4078 21.213C15.4162 21.6951 15.4242 22.1775 15.4318 22.6604C14.842 22.7343 14.3043 23.0074 13.7156 23.0959C12.3036 23.3043 10.9177 23.2616 9.56196 22.7729C9.3981 22.6939 9.21756 22.6556 9.03573 22.6614C9.03504 22.1675 9.0333 21.6753 9.03052 21.1848Z" fill="#D09A6E"/>
<path d="M15.4099 21.2077C14.317 21.7214 13.1188 21.9713 11.9117 21.9372C11.7826 21.9499 11.6524 21.9295 11.5335 21.8778C11.3157 21.5203 10.9082 21.412 10.5956 21.1775C9.05236 20.0146 8.14786 18.4682 7.80398 16.5925C7.70366 16.0182 7.67391 15.4338 7.71541 14.8523L7.70707 14.8294C8.18642 14.8294 8.6668 14.8169 9.1451 14.846C9.95685 14.8961 10.6102 14.6074 11.1458 14.0124C11.2836 13.8393 11.453 13.694 11.645 13.5841C12.1847 13.3132 12.7475 13.3924 13.1955 13.8905C13.8301 14.598 14.5825 14.8992 15.5391 14.8596C16.7948 14.8085 18.0546 14.8523 19.3123 14.8596C19.254 17.5689 18.039 19.6103 15.7413 21.0191C15.635 21.0775 15.5214 21.1462 15.4099 21.2077Z" fill="#FFFEFE"/>
<path d="M19.3135 14.8502C18.0557 14.8502 16.7959 14.8033 15.5402 14.8502C14.5836 14.8898 13.8313 14.5886 13.1967 13.8811C12.7486 13.383 12.1859 13.3038 11.6461 13.5747C11.4541 13.6846 11.2847 13.83 11.1469 14.003C10.6113 14.6032 9.95797 14.8919 9.14622 14.8367C8.66792 14.8075 8.18753 14.8242 7.70819 14.82C7.70819 13.4341 7.72174 12.0471 7.70819 10.6612C7.69777 9.44511 8.12501 8.49684 9.27126 7.95706C9.30266 7.93511 9.33044 7.90839 9.35359 7.87787C10.8218 8.46246 12.3005 9.0137 13.8344 9.39717C15.1024 9.71022 16.3854 9.95924 17.6785 10.1433C18.5674 10.2735 19.2958 11.0488 19.3176 11.9544C19.3426 12.9255 19.3176 13.8874 19.3135 14.8502ZM9.6589 12.589C9.66672 12.4595 9.66672 12.3297 9.6589 12.2003C9.65208 12.1164 9.62839 12.0348 9.58925 11.9602C9.55011 11.8857 9.49634 11.8199 9.43114 11.7667C9.36595 11.7134 9.29068 11.6739 9.20985 11.6505C9.12902 11.6271 9.04429 11.6202 8.96074 11.6303C8.51578 11.6636 8.35218 11.9575 8.3626 12.7067C8.36885 13.235 8.57622 13.5112 8.98157 13.5299C9.45466 13.5529 9.66307 13.2663 9.6589 12.589ZM14.8129 12.589C14.8129 12.6932 14.8066 12.7974 14.8129 12.9016C14.84 13.2611 15.0588 13.4976 15.3839 13.5268C15.7507 13.5591 16.0143 13.3778 16.0862 13.0058C16.1469 12.7134 16.1444 12.4114 16.079 12.12C15.9956 11.7678 15.757 11.599 15.3954 11.6272C15.0338 11.6553 14.8691 11.8731 14.8181 12.2013C14.8062 12.3316 14.8045 12.4626 14.8129 12.5931V12.589Z" fill="#EBBD82"/>
<path d="M9.65903 12.589C9.65903 13.2663 9.45062 13.5529 8.97857 13.5268C8.57322 13.5081 8.36585 13.2319 8.3596 12.7036C8.34918 11.9544 8.51278 11.6616 8.95773 11.6272C9.04129 11.6171 9.12602 11.6239 9.20685 11.6474C9.28768 11.6708 9.36295 11.7103 9.42814 11.7636C9.49334 11.8168 9.54711 11.8826 9.58625 11.9571C9.62539 12.0316 9.64908 12.1133 9.6559 12.1972C9.66489 12.3276 9.66593 12.4584 9.65903 12.589Z" fill="#724C4B"/>
<path d="M14.8129 12.5931C14.803 12.4641 14.803 12.3345 14.8129 12.2055C14.864 11.8772 15.0369 11.6563 15.3902 11.6313C15.7434 11.6063 15.9904 11.772 16.0738 12.1242C16.1392 12.4156 16.1417 12.7175 16.0811 13.0099C16.0092 13.3788 15.7455 13.5601 15.3787 13.531C15.0536 13.5028 14.8348 13.2663 14.8077 12.9057C14.8004 12.8015 14.8077 12.6973 14.8077 12.5931H14.8129Z" fill="#724C4B"/>
</svg>
