<svg width="43" height="40" viewBox="0 0 43 40" fill="none" xmlns="http://www.w3.org/2000/svg">
<path d="M20.4788 30.7177C19.1419 31.2893 17.8038 31.8571 16.4682 32.4324C15.9336 32.662 15.4065 32.9064 14.8745 33.1446L14.7893 33.2409H14.798C13.2475 33.7989 11.76 34.5173 10.2565 35.1802C8.96771 35.6505 7.74067 36.264 6.47414 36.785L5.92358 37.0084L4.80271 35.8369C4.88048 35.7073 5.02244 35.6765 5.14218 35.611C6.26223 35.0029 7.38187 34.3943 8.50109 33.7853C11.1551 32.3352 13.8083 30.884 16.4607 29.4314C17.5248 28.8488 18.5914 28.2723 19.653 27.6859C19.7402 27.6435 19.8179 27.584 19.8816 27.5109C19.9453 27.4378 19.9936 27.3527 20.0236 27.2605C20.0537 27.1684 20.0649 27.0711 20.0566 26.9745C20.0483 26.878 20.0206 26.784 19.9752 26.6984C19.7962 26.3281 19.4049 26.1886 18.9987 26.3564C18.8571 26.4164 18.719 26.4844 18.5852 26.5601C15.7337 28.1238 12.8817 29.6903 10.0293 31.2596C8.1431 32.2916 6.24824 33.3076 4.36202 34.3359C3.94848 34.5618 3.56334 34.8296 3.5942 35.3839L0.942627 32.7619C2.76548 31.5999 4.58916 30.4387 6.41365 29.2784C8.52454 27.9378 10.6358 26.5996 12.7476 25.264C13.1475 25.0084 13.5425 24.7455 13.9474 24.4986C15.4288 23.6024 16.8459 22.605 18.363 21.7693C18.4865 22.0162 18.5938 22.2729 18.7222 22.5173C18.8746 22.8323 19.1357 23.0814 19.4575 23.2187C19.7793 23.356 20.1399 23.3722 20.4727 23.2642C20.6936 23.2012 20.9084 23.1136 21.1319 23.0568C21.3553 23 21.4145 22.8951 21.2923 22.6717C21.0874 22.3013 20.9121 21.9075 20.706 21.4878C21.1491 21.4878 21.538 21.4878 21.8762 21.2706C22.2299 21.2785 22.5793 21.3491 22.9082 21.4792C23.402 23.4543 23.8958 25.4294 24.3895 27.4045C24.1103 27.8071 23.806 28.1918 23.4785 28.5562C22.6231 29.4919 21.5861 30.1486 20.4788 30.7177Z" fill="#6282C1"/>
<path d="M20.4788 30.7177C21.5898 30.1487 22.628 29.4919 23.476 28.5575C23.8036 28.1919 24.1083 27.8064 24.3883 27.4033C24.9845 27.2095 25.5869 27.0329 26.1745 26.8144C26.4683 26.7046 26.6683 26.7169 26.9003 26.9552C27.5348 27.5884 28.3187 27.8193 29.1816 27.5502C29.5124 27.4477 29.626 27.5193 29.7716 27.797C30.2975 28.8192 30.853 29.8265 31.3986 30.8399C31.79 31.5806 32.1936 32.3213 32.5689 33.0706C32.7787 33.4915 33.0627 33.8754 33.1861 34.3433C32.5911 37.6849 29.8605 39.9995 26.5362 39.9785C22.086 39.9513 18.8987 35.5185 20.2788 31.2745C20.3368 31.0918 20.4109 30.9054 20.4788 30.7177ZM26.6275 30.3659C25.1166 30.2573 23.6735 31.7349 23.6303 33.2372C23.5809 34.9407 25.1474 36.2801 26.5411 36.3097C28.299 36.3468 29.563 34.7408 29.584 33.3705C29.6062 31.8818 28.2669 30.2758 26.6275 30.3659Z" fill="#FFC535"/>
<path d="M31.3987 30.8473C30.8531 29.8338 30.2976 28.8265 29.7717 27.8044C29.626 27.5217 29.5125 27.4501 29.1816 27.5575C28.3175 27.8254 27.5349 27.5958 26.9004 26.9625C26.6621 26.7243 26.4683 26.7157 26.1745 26.8218C25.5869 27.0403 24.9845 27.2168 24.3883 27.4106C23.8945 25.4355 23.4008 23.4604 22.907 21.4853L24.2859 21.115C25.4857 20.8225 26.677 20.4867 27.8892 20.2509C28.6163 20.1127 29.0644 19.7176 29.4853 19.1572C30.1025 18.34 30.6728 17.4882 31.3974 16.7599C32.2293 17.3685 33.0916 17.9342 33.9811 18.4548C33.6454 19.1473 33.1491 19.7374 32.7467 20.3879C32.6455 20.5533 32.4751 20.6928 32.5146 20.9212C32.1282 21.3668 31.6159 21.5853 31.0641 21.7347C30.9617 21.7631 30.8605 21.7989 30.7605 21.8347C30.1062 22.068 29.8643 22.4371 29.9149 23.1247C29.9544 23.6666 30.305 23.9801 31.0382 24.1307H31.2222L31.311 24.0752C31.732 24.0271 32.1072 23.8283 32.5097 23.7172C32.5097 24.4912 32.4825 25.2454 32.8615 25.9886C33.3849 27.0169 33.791 28.1032 34.2478 29.166C33.3133 29.74 32.3899 30.3511 31.3987 30.8473Z" fill="#99BDE4"/>
<path d="M25.1401 5.93145C25.7807 5.95861 26.4264 5.85985 27.0646 6.00428C27.7991 6.17216 28.4089 6.5425 28.815 7.17576C29.3409 7.9979 29.8914 8.80892 30.2877 9.70759L27.6225 12.3308C27.0991 11.9 27.0497 11.2198 26.7584 10.51C26.5893 11.4691 26.1659 12.1012 25.424 12.474C25.2058 12.5828 25.0176 12.7434 24.8759 12.9418C24.2254 13.817 23.5674 14.6873 22.9107 15.5588L19.7838 15.5527C19.6888 15.2144 19.611 14.8712 19.4975 14.5392C19.2444 13.8047 19.1419 13.1011 19.7876 12.4974C20.1579 12.7073 20.5282 12.7443 20.8245 12.4024C21.1125 12.0651 21.3757 11.7074 21.612 11.3321C21.817 11.0087 21.7552 10.6902 21.4516 10.4334C21.1664 10.1866 20.7874 10.1545 20.5739 10.3878C20.0801 10.9235 19.4382 11.4185 19.5863 12.2999L16.6978 10.189C17.2643 9.09891 17.8988 8.0455 18.5976 7.03504C19.1173 6.31289 19.8875 5.95614 20.7837 5.93268C21.4898 5.9154 22.1984 5.93268 22.9057 5.93268C22.9057 6.30301 22.8971 6.67335 22.9169 7.04368C22.9245 7.33087 23.04 7.60465 23.2404 7.81052C23.4408 8.01639 23.7113 8.13926 23.9982 8.15467C24.5821 8.16949 25.0833 7.67941 25.1253 7.04368C25.1285 6.92012 25.1248 6.79649 25.1141 6.67335L25.1401 5.93145Z" fill="#38B66B"/>
<path d="M34.2564 29.1611C33.7997 28.0982 33.3923 27.0119 32.8701 25.9837C32.4912 25.243 32.5208 24.4863 32.5183 23.7111L32.6146 23.6703C32.7171 23.658 32.8207 23.658 32.9232 23.6703C33.3121 23.6876 33.7626 23.8543 34.0786 23.5938C34.5724 23.1877 35.1464 22.7556 35.381 22.2026C35.534 21.8446 34.9983 21.3237 34.7996 20.862C34.7823 20.8188 34.7588 20.7793 34.7391 20.7385C35.4192 20.0361 35.8846 19.9547 36.75 20.3879C38.1733 21.1015 38.7732 22.6926 38.1992 24.2826C37.6684 25.7528 37.74 27.1811 38.4461 28.5735C38.7349 29.1388 39.1316 29.6421 39.6139 30.0548C39.9077 30.3079 39.8719 30.5017 39.6546 30.7733C39.4099 31.1002 39.0935 31.3666 38.7297 31.5519C38.3659 31.7373 37.9643 31.8366 37.556 31.8423C36.8635 31.8608 36.1722 31.8522 35.4797 31.8559C34.9971 30.9831 34.6712 30.0536 34.2564 29.1611Z" fill="#C4732A"/>
<path d="M19.79 12.4999C19.1444 13.1035 19.2468 13.8072 19.4999 14.5417C19.6135 14.8737 19.6912 15.2169 19.7863 15.5551C20.0245 16.5205 20.3048 17.4771 20.4862 18.4536C20.5973 19.0449 20.864 19.3868 21.4108 19.6275C22.2613 19.9979 22.3761 20.5015 21.8799 21.2706C21.5417 21.494 21.1528 21.4841 20.7097 21.4878C20.9158 21.9075 21.0911 22.2976 21.296 22.6717C21.4195 22.8951 21.3738 22.9951 21.1355 23.0568C20.8973 23.1185 20.6973 23.2012 20.4763 23.2642C20.1436 23.3722 19.783 23.356 19.4612 23.2187C19.1394 23.0814 18.8782 22.8323 18.7259 22.5174C18.6025 22.2705 18.4852 22.0236 18.3667 21.7693C17.568 19.8337 16.7619 17.9018 15.8892 15.9983C15.7768 15.7131 15.6806 15.4218 15.5485 15.1465C15.0152 14.0294 14.9683 12.9245 15.662 11.8629C16.02 11.3124 16.2595 10.689 16.6965 10.189C17.6618 10.8927 18.6263 11.5971 19.59 12.3024L19.79 12.4999Z" fill="#FBCDB7"/>
<path d="M34.2564 29.1611C34.6712 30.0536 34.9971 30.988 35.4773 31.8521C35.8044 32.8471 36.2982 33.7717 36.692 34.7395C36.9586 35.3937 37.2549 36.0369 37.5302 36.6887C37.6127 36.9066 37.777 37.0838 37.9881 37.1824C38.6535 37.5034 39.3127 37.8355 39.9706 38.17C40.499 38.4403 40.7348 38.8415 40.6286 39.2637C40.5052 39.7513 40.1546 39.9883 39.5423 39.9896C38.5733 39.9896 37.603 39.9784 36.634 39.9957C36.5065 40.0113 36.3775 39.984 36.2671 39.9184C36.1567 39.8527 36.0713 39.7523 36.0241 39.6328C35.1897 38.0194 34.3367 36.4146 33.4861 34.8099C33.3997 34.6481 33.2849 34.5025 33.1837 34.3494C33.0689 33.8816 32.78 33.4977 32.5665 33.0767C32.1962 32.3249 31.7876 31.588 31.3962 30.8461C32.39 30.3511 33.3133 29.74 34.2564 29.1611Z" fill="#FCCEB7"/>
<path d="M33.986 18.4511C33.0965 17.9305 32.2342 17.3648 31.4023 16.7562C31.411 16.6032 31.5332 16.5217 31.6122 16.4118C31.969 15.9045 32.4121 15.4601 32.7047 14.9058C33.0874 14.6688 33.2725 14.2454 33.6243 13.9627C34.1502 13.5418 34.7822 13.4628 35.3748 13.2504C35.5599 13.3492 35.7611 13.3331 35.9599 13.3331C37.7276 13.3331 39.4953 13.3479 41.2618 13.3331C42.3321 13.3208 43.0246 14.1071 42.8666 15.3626C42.8406 15.5613 42.7073 15.5576 42.5666 15.5588H41.3988C41.5519 15.8748 41.6753 16.1353 41.8025 16.3933C41.9765 16.7451 42.0654 17.0883 41.7247 17.4006C41.384 17.7129 41.0359 17.6179 40.7717 17.3611C39.6509 16.2736 38.2782 16.2908 36.845 16.2612C35.8031 16.239 35.1415 16.5081 34.6983 17.4463C34.5242 17.8219 34.2828 18.1625 33.986 18.4511Z" fill="#FCCEB7"/>
<path d="M15.8892 15.9983C16.7607 17.9018 17.568 19.8337 18.3667 21.7693C16.8496 22.605 15.4312 23.6024 13.9511 24.4986C13.5462 24.7455 13.1512 25.0085 12.7512 25.264C13.3104 23.0185 13.8388 20.7645 14.4436 18.5314C14.701 17.5773 15.1987 16.7052 15.8892 15.9983Z" fill="#8198AB"/>
<path d="M0.942593 32.7644L3.59417 35.3864L3.71761 35.6061C3.42258 36.1961 3.12014 36.7825 2.83622 37.3775C2.42022 38.249 1.92397 39.0798 1.57833 39.9846C1.17961 39.9846 0.780881 39.9748 0.383392 39.9908C0.115519 40.0019 0.000717282 39.9229 0.00195172 39.6303C0.0118272 37.6338 0.0118272 35.6382 0.00195172 33.6433C-0.00737209 33.5364 0.0168677 33.4293 0.0712965 33.3368C0.125725 33.2443 0.207636 33.1711 0.305624 33.1273C0.526588 33.015 0.730269 32.8866 0.942593 32.7644Z" fill="#E0EBF7"/>
<path d="M13.3784 36.9084C13.3932 37.0837 13.5179 37.1639 13.6524 37.2516C14.1289 37.5602 14.5869 37.8984 15.0732 38.1898C15.4177 38.3947 15.5473 38.644 15.5337 39.0539C15.5016 39.9846 15.5238 39.9859 14.6128 39.9859C13.1043 39.9859 11.5958 39.9723 10.0886 39.9945C9.69727 40.0007 9.5837 39.8711 9.60469 39.5007C9.63678 38.9156 9.62197 38.3293 9.62691 37.7441C10.2046 37.6281 10.7885 37.533 11.3551 37.3911C12.0316 37.2232 12.7389 37.2109 13.3784 36.9084Z" fill="#D2E2F4"/>
<path d="M27.6226 12.3308L30.2877 9.70758C30.8086 9.87917 31.1913 10.2717 31.6221 10.5791C32.3295 11.084 33.0726 11.5407 33.7207 12.1258C33.6269 12.2616 33.4676 12.2937 33.3355 12.3727C32.5176 12.8321 31.8497 13.518 31.4123 14.3478C30.742 14.0602 30.068 13.7775 29.4001 13.4837C28.7323 13.1899 28.0546 12.9603 27.6226 12.3308Z" fill="#FCCEB7"/>
<path d="M25.1141 6.67086C25.1247 6.794 25.1284 6.91764 25.1252 7.04119C25.0833 7.67569 24.5821 8.16577 23.9982 8.15219C23.7113 8.13678 23.4408 8.01391 23.2404 7.80803C23.04 7.60216 22.9245 7.32838 22.9168 7.04119C22.8971 6.67086 22.9082 6.30053 22.9057 5.9302C22.9057 5.43642 22.9057 4.93936 22.9057 4.439V2.96138C23.0921 2.78115 23.2822 2.60462 23.46 2.41699C23.5896 2.2812 23.6945 2.26762 23.8464 2.39477C24.429 2.88855 25.1141 3.02433 25.856 2.95644C25.856 3.38232 25.8449 3.8082 25.8671 4.23408C25.9029 4.88463 25.6647 5.38705 25.1203 5.74256C24.7265 5.95365 24.3093 5.97217 23.8167 5.8512C24.1364 6.40916 24.5524 6.65481 25.1141 6.67086Z" fill="#FBCDB7"/>
<path d="M13.3784 36.9084C12.7389 37.2084 12.0316 37.2207 11.3601 37.3861C10.7885 37.5281 10.2046 37.6231 9.63184 37.7392L10.2614 35.1765C11.7686 34.5148 13.2524 33.7964 14.8029 33.2372C14.4795 34.3395 13.9573 35.3641 13.5549 36.4356C13.4882 36.5949 13.4351 36.7529 13.3784 36.9084Z" fill="#8198AB"/>
<path d="M34.7391 20.7373C34.7589 20.778 34.7823 20.8175 34.7996 20.8607C34.9984 21.3224 35.5341 21.8483 35.381 22.2013C35.1465 22.7544 34.5725 23.1889 34.0787 23.5925C33.7627 23.853 33.3121 23.6864 32.9233 23.6691C32.8208 23.6567 32.7172 23.6567 32.6147 23.6691C32.0579 23.1321 31.5456 22.5766 31.9012 21.5767C31.3259 21.9828 31.0445 22.3704 31.0371 22.9247C31.0371 23.3247 31.0371 23.7259 31.0371 24.1258C30.3038 23.9752 29.9532 23.6617 29.9137 23.1198C29.8631 22.4322 30.1051 22.0631 30.7593 21.8298C30.8593 21.794 30.9605 21.7582 31.063 21.7298C31.6148 21.5804 32.1271 21.3594 32.5134 20.9163C33.2393 20.5879 33.9997 20.7941 34.7391 20.7373Z" fill="#FBCDB7"/>
<path d="M1.57715 39.9846C1.92279 39.0798 2.41904 38.249 2.83504 37.3775C3.11896 36.7825 3.4214 36.1961 3.71643 35.6061C4.02134 35.9554 4.39537 35.9764 4.80273 35.8369L5.9236 37.0084C5.26524 37.9013 4.60358 38.7934 3.93863 39.6847C3.87263 39.7865 3.78059 39.8688 3.67206 39.9231C3.56353 39.9773 3.44246 40.0016 3.32141 39.9933C2.73875 39.9735 2.15733 39.9859 1.57715 39.9846Z" fill="#D2E2F4"/>
<path d="M22.9106 2.96138V4.44271C21.8256 4.40938 20.9997 3.74895 20.7504 2.7145C20.6418 2.23804 20.694 1.73905 20.8988 1.29536C21.1035 0.851663 21.4494 0.488204 21.8824 0.261668C22.3099 0.0284496 22.8042 -0.0521666 23.2837 0.0331009C23.7632 0.118368 24.1994 0.364433 24.5203 0.730755C23.5414 0.793711 22.939 1.33563 22.9156 2.18492C22.9069 2.44415 22.9119 2.70339 22.9106 2.96138Z" fill="#B76829"/>
<path d="M22.9106 2.96139C22.9106 2.70215 22.9106 2.44292 22.9106 2.18369C22.9353 1.3344 23.5377 0.792479 24.5154 0.729523C25.6264 1.02702 25.8968 1.48253 25.856 2.95151C25.1154 3.0194 24.429 2.87744 23.8464 2.38984C23.6945 2.2664 23.5896 2.27627 23.46 2.41206C23.2871 2.60587 23.097 2.78239 22.9106 2.96139Z" fill="#C4732A"/>
<path d="M31.4148 14.3417C31.8514 13.5116 32.5189 12.8256 33.3368 12.3666C33.4689 12.2925 33.6281 12.2604 33.722 12.1197C34.3318 12.4061 34.8194 12.8764 35.3749 13.2443C34.7823 13.4566 34.1503 13.5356 33.6244 13.9565C33.2726 14.2392 33.0875 14.6626 32.7048 14.8996L31.4148 14.3417Z" fill="#FBBFA4"/>
<path d="M25.1142 6.67087C24.5526 6.65482 24.1366 6.40917 23.8218 5.85244C24.3156 5.97588 24.7316 5.95489 25.1253 5.7438L25.1402 5.93144L25.1142 6.67087Z" fill="#FBBFA4"/>
<path d="M14.7893 33.2409L14.8745 33.1446L14.7893 33.2409Z" fill="#8198AB"/>
<path d="M4.8028 35.8369C4.39543 35.9752 4.0214 35.9604 3.71649 35.6061L3.59305 35.3863C3.56219 34.8271 3.94733 34.5642 4.36087 34.3383C6.24709 33.31 8.14195 32.2941 10.0282 31.2621C12.8822 29.6985 15.7342 28.132 18.5841 26.5626C18.7179 26.4868 18.856 26.4188 18.9976 26.3589C19.4037 26.191 19.795 26.3317 19.974 26.7008C20.0194 26.7865 20.0471 26.8804 20.0554 26.977C20.0638 27.0736 20.0526 27.1708 20.0225 27.263C19.9924 27.3551 19.9441 27.4403 19.8804 27.5134C19.8168 27.5865 19.739 27.646 19.6518 27.6884C18.5902 28.2747 17.5237 28.8512 16.4596 29.4339C13.8055 30.8848 11.1523 32.336 8.49993 33.7877C7.38153 34.3992 6.2619 35.0078 5.14103 35.6135C5.02253 35.674 4.88056 35.7073 4.8028 35.8369Z" fill="#5471B7"/>
<path d="M21.8825 21.2706C22.3763 20.5015 22.2639 20.0028 21.4134 19.6275C20.8665 19.3868 20.5999 19.0449 20.4888 18.4536C20.3049 17.4771 20.0308 16.5204 19.7839 15.5526H22.9083C23.3692 17.4018 23.8292 19.251 24.2884 21.1002L22.9095 21.4705C22.5816 21.344 22.2339 21.2763 21.8825 21.2706Z" fill="#8198AB"/>
<path d="M26.6276 30.3659C28.2669 30.2795 29.6063 31.8855 29.5841 33.3705C29.5631 34.7407 28.299 36.3467 26.5412 36.3097C25.1475 36.2801 23.5786 34.9407 23.6304 33.2372C23.6736 31.7312 25.1167 30.2536 26.6276 30.3659Z" fill="#FCB417"/>
<path d="M24.2907 21.1076C23.8315 19.2584 23.3715 17.4092 22.9106 15.56C23.5674 14.6885 24.2253 13.8183 24.8759 12.943C25.0176 12.7447 25.2058 12.584 25.424 12.4752C26.1646 12.1049 26.5893 11.4704 26.7584 10.5112C27.0497 11.2272 27.0991 11.9012 27.6225 12.332C28.0545 12.964 28.7495 13.1887 29.4013 13.4776C30.0531 13.7664 30.7432 14.0553 31.4135 14.3417L32.7047 14.9058C32.4121 15.4601 31.964 15.9045 31.6122 16.4118C31.5332 16.5217 31.411 16.6031 31.4023 16.7562C30.6777 17.4845 30.1037 18.3363 29.4902 19.1535C29.0693 19.7139 28.6261 20.109 27.8941 20.2472C26.6819 20.478 25.4906 20.8138 24.2907 21.1076Z" fill="white"/>
<path d="M31.0469 24.1271C31.0469 23.7271 31.0408 23.3259 31.0469 22.9259C31.0469 22.3717 31.3309 21.9841 31.911 21.5779C31.5555 22.5778 32.0678 23.1333 32.6245 23.6703L32.5283 23.711C32.1258 23.8221 31.7506 24.0221 31.3296 24.0703L31.2407 24.1258L31.0469 24.1271Z" fill="#FBBFA4"/>
<path d="M31.2307 24.1258L31.3196 24.0703L31.2307 24.1258Z" fill="#FBCDB7"/>
<path d="M19.7901 12.4999L19.5901 12.3024C19.4407 11.421 20.0839 10.926 20.5776 10.3902C20.7912 10.1569 21.1702 10.1939 21.4553 10.4359C21.759 10.6927 21.8257 11.0111 21.6158 11.3346C21.3795 11.7099 21.1163 12.0676 20.8282 12.4048C20.5246 12.7529 20.1542 12.7134 19.7901 12.4999Z" fill="#1CB35B"/>
</svg>
