<svg width="41" height="40" viewBox="0 0 41 40" fill="none" xmlns="http://www.w3.org/2000/svg">
<path d="M17.9495 32.8923C16.423 32.8881 14.8957 32.8839 13.3678 32.8797C10.6907 32.8741 8.01433 32.8703 5.33865 32.8682H2.09996C1.78542 32.8755 1.47088 32.9101 1.16578 32.8263C0.797795 32.7249 0.47866 32.4943 0.266847 32.1768C0.0550344 31.8593 -0.0352726 31.4761 0.0124704 31.0974C0.0614505 30.7178 0.247117 30.3692 0.534692 30.1168C0.822266 29.8643 1.19202 29.7254 1.57468 29.726C4.04171 29.7186 6.50979 29.726 8.97682 29.726C9.14667 29.726 9.31547 29.7186 9.48532 29.7155H16.705H24.645H37.0997C37.4761 29.7155 37.8546 29.7427 38.2289 29.7155C39.2008 29.6484 39.8488 30.0531 40.1664 30.9736V31.6793C39.9295 32.1605 39.6611 32.605 39.1064 32.7864C38.7615 32.8997 38.4134 32.8651 38.058 32.8609H34.8193L27.4591 32.8724C27.1204 32.8724 26.7807 32.8787 26.4421 32.8818H22.5743H21.8131L17.9495 32.8923Z" fill="#975127"/>
<path d="M23.7057 7.62967C24.2517 7.59664 24.7995 7.604 25.3444 7.65169C26.4789 7.78275 27.2862 8.40239 27.8911 9.32923C28.2353 9.88249 28.5069 10.4776 28.6995 11.1001C29.0057 12.0227 29.3842 12.9223 29.6358 13.8638C28.6555 14.2392 27.7485 14.7613 26.8102 15.2268C26.6005 14.9333 26.59 14.5485 26.3279 14.1459C26.5093 15.1241 26.6707 15.988 26.8311 16.853C26.0165 16.8142 25.2301 16.8719 24.6136 17.5051C23.0619 16.8624 21.5238 16.1841 19.9522 15.5959C19.2948 15.3505 19.0568 14.9741 19.1396 14.3241C19.1879 13.954 19.0002 13.933 18.6951 13.9771C17.784 14.1081 16.8697 14.213 15.9565 14.3272C15.8925 13.391 15.7919 12.4547 15.773 11.5174C15.7542 10.5939 16.0668 9.69419 16.6542 8.98136C17.2416 8.26853 18.065 7.78974 18.975 7.63177C19.5842 7.52692 20.2248 7.62128 20.8507 7.62443C20.9472 8.50618 21.4924 9.02203 22.3186 9.01469C23.086 9.01259 23.6218 8.47578 23.7057 7.62967Z" fill="#F16474"/>
<path d="M16.6998 29.7134H9.48007C8.31419 29.2206 7.93359 28.645 7.93359 27.3732C7.93359 26.2102 7.93359 25.0474 7.93359 23.885C7.93359 22.5702 8.7105 21.7965 10.0305 21.7954C12.0422 21.7954 14.0538 21.7954 16.0655 21.7954C16.2227 21.7954 16.38 21.7849 16.5352 21.7787C17.4494 21.7933 18.3752 21.7357 19.2213 22.1928C19.4604 22.3679 19.7099 22.5304 19.9364 22.717C20.6263 23.3021 20.9681 24.08 21.1641 24.944C21.1732 25.4116 21.182 25.8799 21.1903 26.3489V26.7138C20.0444 26.7222 18.8984 26.7242 17.7524 26.7421C17.43 26.7416 17.1103 26.6826 16.8088 26.568C16.3968 26.4212 16.0015 26.2032 15.5507 26.2021C15.4186 25.9348 15.1313 25.9641 14.908 25.8876C13.7714 25.4682 12.6307 25.0677 11.4837 24.6829C11.1764 24.5851 10.8458 24.5882 10.5404 24.6918C10.235 24.7954 9.97068 24.9939 9.78623 25.2585C9.45596 25.7135 9.47169 26.4684 9.81349 26.9843C10.0955 27.4141 10.5474 27.5358 10.9909 27.6899C12.1935 28.1093 13.3783 28.5769 14.5987 28.948L16.6998 29.7134Z" fill="#76A9DB"/>
<path d="M21.1611 24.945C20.965 24.0853 20.6232 23.3031 19.9333 22.7181C19.7068 22.5273 19.4573 22.3647 19.2183 22.1938C19.2633 22.1477 19.3053 22.0984 19.3535 22.0565C20.1993 21.3212 21.0457 20.5872 21.8929 19.8547C22.2777 20.0078 22.6614 20.1693 23.0462 20.314C24.0947 20.7145 25.1725 19.9543 25.1955 18.8293C25.2081 18.2799 24.8873 17.9151 24.6105 17.5135C25.227 16.8844 26.0133 16.8226 26.828 16.8614H27.39H31.9225C32.4184 16.8614 32.9154 16.8729 33.4113 16.875C34.3434 16.875 34.9546 17.2388 35.2325 17.956C35.5229 18.7004 35.3205 19.3525 34.5981 20.0015C34.2498 20.1801 33.8611 20.2653 33.47 20.2489C32.6113 20.2406 31.7516 20.2605 30.8929 20.2689L27.5168 20.2563C27.175 20.2773 26.8039 20.1116 26.4998 20.3685C25.7324 21.0154 24.9775 21.6759 24.2163 22.3291C23.1993 23.2014 22.1809 24.0734 21.1611 24.945Z" fill="#616E9B"/>
<path d="M21.1873 26.7148V26.3499L28.2465 26.3384C31.0543 26.3426 33.8618 26.3464 36.6688 26.3499C37.4741 26.3499 38.1168 26.8081 38.3411 27.52C38.4629 27.9103 38.4397 28.3314 38.276 28.7059C38.1123 29.0805 37.819 29.3835 37.4499 29.5593C37.3346 29.6138 37.2172 29.6641 37.0998 29.7166H24.6398C24.6589 29.6994 24.6801 29.6846 24.7027 29.6725C25.5656 29.358 25.9536 28.7352 25.8089 27.9027C25.6841 27.1835 25.0624 26.7295 24.1974 26.7263L21.1873 26.7148Z" fill="#434E84"/>
<path d="M0.141387 24.8569C0.0816251 23.0746 1.48132 21.5176 3.44719 21.5165C4.32811 21.5165 5.17295 21.8665 5.79586 22.4894C6.41877 23.1123 6.76871 23.9571 6.76871 24.8381C6.76871 25.719 6.41877 26.5638 5.79586 27.1867C5.17295 27.8096 4.32811 28.1596 3.44719 28.1596C1.62706 28.1743 0.0543651 26.61 0.141387 24.8569Z" fill="#F8B59F"/>
<path d="M18.9016 3.32573C18.8962 2.8904 18.9774 2.45833 19.1404 2.05466C19.3035 1.65098 19.5451 1.28373 19.8514 0.974282C20.1576 0.664829 20.5223 0.419338 20.9242 0.252081C21.3262 0.0848244 21.7574 -0.000860982 22.1927 6.52176e-06C23.95 6.52176e-06 25.4985 1.51294 25.4797 3.2754C25.4587 5.16892 23.995 6.58959 22.1697 6.58539C21.3045 6.58512 20.4747 6.24187 19.8621 5.63086C19.2495 5.01986 18.9041 4.19093 18.9016 3.32573Z" fill="#F8B59F"/>
<path d="M24.6134 17.5093C24.8902 17.9109 25.2111 18.2757 25.1985 18.8251C25.1754 19.9501 24.0997 20.7124 23.0491 20.3097C22.6612 20.1619 22.2775 20.0036 21.8958 19.8505L17.1903 17.8794C16.4103 17.5481 16.079 16.9557 16.0727 16.1169C16.0727 15.5204 15.9972 14.9238 15.9563 14.3272C16.8695 14.2129 17.7838 14.1081 18.6949 13.977C19 13.933 19.1877 13.954 19.1394 14.3241C19.0566 14.9741 19.2946 15.3505 19.952 15.5959C21.5236 16.1882 23.0617 16.8666 24.6134 17.5093Z" fill="#F9B49E"/>
<path d="M28.2464 26.3384L21.1871 26.3499C21.1787 25.8809 21.17 25.4126 21.1609 24.945C22.18 24.072 23.1994 23.1983 24.2193 22.3238C24.9804 21.6707 25.7353 21.0101 26.5028 20.3632C26.8069 20.1063 27.178 20.272 27.5198 20.251C27.7159 21.3372 27.9088 22.4234 28.109 23.5086C28.2202 24.1083 28.3481 24.706 28.4603 25.3057C28.5284 25.6768 28.5127 26.0354 28.2464 26.3384Z" fill="#F16474"/>
<path d="M22.5796 32.8923H26.4474C26.4411 34.5748 26.4341 36.2579 26.4264 37.9417C26.4201 38.9325 25.9315 39.6287 25.0634 39.9097C23.8723 40.2871 22.6069 39.3928 22.5964 38.1346C22.5827 36.5557 22.5964 34.9767 22.5964 33.3977C22.5964 33.2289 22.5838 33.059 22.5796 32.8923Z" fill="#F7B4A0"/>
<path d="M17.9495 32.8923H21.8183C21.8109 34.5751 21.8068 36.2579 21.7952 37.9407C21.7889 38.9095 21.2773 39.6381 20.4259 39.9118C19.2391 40.2934 17.9746 39.3876 17.9652 38.142C17.9526 36.3869 17.9547 34.6391 17.9495 32.8923Z" fill="#F6B6A0"/>
<path d="M2.09985 32.8682H5.33855C5.24733 33.3065 5.305 33.751 5.29766 34.1924C5.28298 35.1172 5.31024 36.044 5.2683 36.9688C5.24835 37.3107 5.11206 37.6356 4.88206 37.8894C4.65207 38.1432 4.34219 38.3108 4.00386 38.3643C3.66194 38.4303 3.30778 38.3814 2.99657 38.2251C2.68536 38.0688 2.43459 37.814 2.28333 37.5003C2.16678 37.2365 2.11123 36.9498 2.12082 36.6616C2.11768 35.3971 2.10719 34.1327 2.09985 32.8682Z" fill="#83341C"/>
<path d="M34.8245 32.8661H38.0632C38.0558 34.1568 38.0527 35.4474 38.039 36.7381C38.0275 37.8128 37.1845 38.5341 36.1592 38.3601C35.4095 38.2332 34.8905 37.6146 34.8769 36.7695C34.857 35.6225 34.8706 34.4745 34.8664 33.3274C34.8633 33.1744 34.8937 33.015 34.8245 32.8661Z" fill="#83341C"/>
<path d="M17.1873 17.8794L21.8928 19.8505C21.0456 20.5831 20.1992 21.317 19.3534 22.0523C19.3052 22.0942 19.2632 22.1435 19.2181 22.1897C18.372 21.7325 17.4462 21.7902 16.532 21.7755C16.7501 20.4768 16.9685 19.1781 17.1873 17.8794Z" fill="#F16575"/>
<path d="M31.9277 16.8582H27.3952C27.1855 16.3193 26.9507 15.7909 26.8123 15.2279C27.7485 14.7624 28.6575 14.2402 29.6379 13.8649C29.7246 14.024 29.7948 14.1916 29.8476 14.365C29.9776 15.0245 30.4557 15.4208 30.9128 15.8423C31.2598 16.1694 31.587 16.5196 31.9277 16.8582Z" fill="#F8B59F"/>
<path d="M30.896 20.2657C31.7547 20.2573 32.6144 20.2374 33.4731 20.2458C33.8644 20.2615 34.2531 20.1756 34.6013 19.9963C34.6475 20.3285 34.5833 20.6667 34.4184 20.9588C34.2536 21.2509 33.9974 21.4808 33.6891 21.613C33.037 21.9097 32.3869 21.7462 31.8082 21.1727C31.5083 20.8728 31.2 20.5687 30.896 20.2657Z" fill="#F5B39F"/>
<path d="M23.7055 7.62965C23.6216 8.47576 23.0858 9.01257 22.3194 9.01886C21.4922 9.0262 20.947 8.51036 20.8516 7.6286L23.7055 7.62965Z" fill="#F8B59F"/>
<path d="M21.1873 26.7148L24.1974 26.7274C25.0624 26.7274 25.6841 27.1845 25.8089 27.9037C25.9536 28.7362 25.5657 29.3559 24.7028 29.6735C24.6801 29.6856 24.659 29.7004 24.6399 29.7176H16.6999L14.5862 28.9449C14.9035 28.0327 15.2208 27.1202 15.5382 26.2073C15.9932 26.2073 16.3885 26.4265 16.7963 26.5733C17.0978 26.6878 17.4175 26.7468 17.74 26.7473C18.8954 26.7253 20.0413 26.7232 21.1873 26.7148Z" fill="#F9B49E"/>
<path d="M15.5382 26.2032C15.2202 27.1153 14.9028 28.0278 14.5862 28.9407C13.3658 28.5737 12.181 28.1019 10.9784 27.6826C10.5349 27.5284 10.0831 27.4068 9.80102 26.9769C9.46341 26.4611 9.44349 25.7062 9.77375 25.2512C9.95821 24.9866 10.2225 24.788 10.5279 24.6845C10.8333 24.5809 11.1639 24.5778 11.4712 24.6756C12.6182 25.0603 13.759 25.4661 14.8955 25.8802C15.1167 25.9652 15.4061 25.9358 15.5382 26.2032Z" fill="#5B94CF"/>
</svg>
