<svg width="21" height="20" viewBox="0 0 21 20" fill="none" xmlns="http://www.w3.org/2000/svg">
<path d="M16.76 14.3469C16.76 14.6889 16.4826 14.9662 16.1406 14.9662C15.7986 14.9662 15.5212 14.6889 15.5212 14.3469C15.5212 14.0048 15.7986 13.7275 16.1406 13.7275C16.4826 13.7275 16.76 14.0049 16.76 14.3469Z" fill="#7B2C82"/>
<path d="M18.5274 12.7792H13.7525C13.6642 12.7792 13.592 12.8514 13.592 12.9397V15.8813C13.592 15.9697 13.6642 16.0418 13.7525 16.0418H15.9216V15.3809C15.4436 15.2799 15.0836 14.8548 15.0836 14.3469C15.0836 13.7643 15.5578 13.2901 16.1404 13.2901C16.723 13.2901 17.1972 13.7643 17.1972 14.3469C17.1972 14.8548 16.8371 15.2799 16.359 15.3809V16.0418H18.5273C18.6161 16.0418 18.6887 15.9697 18.6887 15.8813V12.9397C18.6887 12.8514 18.6161 12.7792 18.5273 12.7792H18.5274Z" fill="#7B2C82"/>
<path d="M17.6874 11.0698C17.6874 10.216 16.9933 9.52139 16.1403 9.52139C15.2869 9.52139 14.5923 10.216 14.5923 11.0698V12.3418H17.6874V11.0698Z" fill="#7B2C82"/>
<path d="M20.1068 9.37096e-05H4.57007V17.6977H15.737C15.8577 17.6977 15.9558 17.7957 15.9558 17.9165C15.9558 18.4729 16.1706 18.9943 16.5611 19.3844C16.9552 19.7742 17.4771 19.9893 18.029 19.9893C19.1746 19.9893 20.1067 19.0593 20.1067 17.9163V0L20.1068 9.37096e-05ZM6.64505 2.30616H18.2556C18.3763 2.30616 18.4744 2.4041 18.4744 2.52493C18.4744 2.6456 18.3765 2.7437 18.2556 2.7437H6.64505C6.52437 2.7437 6.42628 2.64575 6.42628 2.52493C6.42628 2.40426 6.52391 2.30616 6.64505 2.30616ZM6.64505 4.46623H15.6452C15.7659 4.46623 15.864 4.56418 15.864 4.685C15.864 4.80567 15.766 4.90377 15.6452 4.90377L6.64505 4.90362C6.52437 4.90362 6.42628 4.80568 6.42628 4.68485C6.42628 4.56418 6.52391 4.46623 6.64505 4.46623V4.46623ZM6.64505 6.62616H18.0303C18.1509 6.62616 18.249 6.7241 18.249 6.84492C18.249 6.9656 18.1511 7.06369 18.0303 7.06369L6.64505 7.06354C6.52437 7.06354 6.42628 6.9656 6.42628 6.84477C6.42628 6.7241 6.52391 6.62616 6.64505 6.62616ZM6.64505 8.78651H13.8007C13.9213 8.78651 14.0194 8.88445 14.0194 9.00527C14.0194 9.12595 13.9215 9.22404 13.8007 9.22404L6.64505 9.22389C6.52437 9.22389 6.42628 9.12595 6.42628 9.00512C6.42628 8.88445 6.52391 8.78651 6.64505 8.78651ZM11.2801 11.3843H6.64505C6.52437 11.3843 6.42628 11.2863 6.42628 11.1655C6.42628 11.0448 6.52422 10.9467 6.64505 10.9467H11.2805C11.4011 10.9467 11.4992 11.0447 11.4992 11.1655C11.4991 11.2863 11.4011 11.3843 11.2803 11.3843H11.2801ZM19.1258 15.8814C19.1258 16.2112 18.8573 16.4793 18.527 16.4793H13.7521C13.4223 16.4793 13.1543 16.2111 13.1543 15.8814V12.9398C13.1543 12.61 13.4225 12.3419 13.7521 12.3419H14.1546V11.0699C14.1546 9.97502 15.0452 9.08406 16.14 9.08406C17.2344 9.08406 18.1244 9.97498 18.1244 11.0699V12.3419H18.5269C18.8572 12.3419 19.1257 12.6101 19.1257 12.9398L19.1258 15.8814Z" fill="#7B2C82"/>
<path d="M16.2529 19.6951C15.8313 19.2734 15.5902 18.725 15.5399 18.1357H0C0.111064 19.1749 0.985077 19.9899 2.05541 19.9899L16.6146 19.99C16.4874 19.9029 16.3653 19.8062 16.2529 19.6951L16.2529 19.6951Z" fill="#7B2C82"/>
</svg>
