<svg width="31" height="20" viewBox="0 0 31 20" fill="none" xmlns="http://www.w3.org/2000/svg">
<path d="M30.0884 2.69304C30.0884 1.20725 28.8811 0 27.3953 0H12.8774C11.3916 0 10.1844 1.20725 10.1844 2.69304V13.6511C10.1844 15.1369 11.3916 16.3442 12.8774 16.3442H15.6015V19.4397C15.6015 19.935 16.1897 20.1826 16.5302 19.8111L19.9971 16.3753C19.9971 16.3753 19.9971 16.3444 20.028 16.3444H27.4263C28.9121 16.3444 30.1193 15.1371 30.1193 13.6514V2.69327L30.0884 2.69304ZM19.4089 3.74545H20.8329C20.9877 3.74545 21.1426 3.86918 21.1426 4.05509L20.9877 9.87464C20.9877 10.0295 20.864 10.1223 20.7401 10.1223H19.5637C19.4089 10.1223 19.3161 9.99859 19.3161 9.87464L19.1612 4.05509C19.1304 3.86939 19.2541 3.74545 19.4089 3.74545H19.4089ZM21.1423 12.1652C21.1423 12.4129 20.9566 12.5986 20.709 12.5986H19.5637C19.316 12.5986 19.1303 12.4129 19.1303 12.1652V11.4223C19.1303 11.1746 19.316 10.9889 19.5637 10.9889H20.709C20.9566 10.9889 21.1423 11.1746 21.1423 11.4223V12.1652ZM0 3.25017C0 2.56916 0.557081 2.01208 1.23809 2.01208L6.68629 2.01186C7.36731 2.01186 7.92439 2.56894 7.92439 3.24996C7.92439 3.93097 7.36731 4.48805 6.68629 4.48805L1.23809 4.48826C0.557302 4.48826 0 3.93096 0 3.25017ZM7.89354 8.17197C7.89354 8.85298 7.33646 9.41006 6.65545 9.41006H2.63124C1.95022 9.41006 1.39314 8.85298 1.39314 8.17197C1.39314 7.49096 1.95022 6.93388 2.63124 6.93388H6.65545C7.36736 6.93366 7.89354 7.49096 7.89354 8.17197ZM7.89354 13.0938C7.89354 13.7748 7.33646 14.3319 6.65545 14.3319H4.20989C3.52888 14.3319 2.9718 13.7748 2.9718 13.0938C2.9718 12.4128 3.52888 11.8557 4.20989 11.8557H6.68635C7.36736 11.8557 7.8936 12.4128 7.8936 13.0938H7.89354Z" fill="#7B2C82"/>
</svg>
