<svg width="20" height="20" viewBox="0 0 20 20" fill="none" xmlns="http://www.w3.org/2000/svg">
<path d="M15.9919 11.994C14.3594 11.994 12.9534 12.9801 12.3338 14.3861L7.5895 11.7474C7.84934 11.2143 7.996 10.6213 7.996 9.99502C7.996 9.02883 7.64945 8.13598 7.06984 7.44303L11.0876 4.93087C11.6607 5.95699 12.7402 6.66334 13.9929 6.66334C15.832 6.66334 17.3246 5.17079 17.3246 3.33167C17.3246 1.49255 15.832 0 13.9929 0C12.1538 0 10.6612 1.49255 10.6612 3.33167C10.6612 3.42493 10.6812 3.51818 10.6878 3.61159L6.00371 6.54346L4.66434 7.32966L5.63589 6.35811C5.13481 6.12965 4.58434 5.99698 3.99801 5.99698C1.7924 5.99698 0 7.78938 0 9.99498C0 12.2006 1.7924 13.993 3.99801 13.993C5.09076 13.993 6.08356 13.5532 6.81001 12.8336L12.0074 15.7255C12.0007 15.812 11.994 15.8987 11.994 15.992C11.994 18.1976 13.7864 19.99 15.992 19.99C18.1976 19.99 19.99 18.1976 19.99 15.992C19.99 13.7864 18.1976 11.994 15.992 11.994L15.9919 11.994Z" fill="#7B2C82"/>
</svg>
