<svg width="32" height="40" viewBox="0 0 32 40" fill="none" xmlns="http://www.w3.org/2000/svg">
<path d="M8.42559 12.0874H9.92348V9.10547H8.42559C7.60215 9.10547 6.93457 9.77297 6.93457 10.5965C6.93465 11.4198 7.60215 12.0874 8.42559 12.0874Z" fill="#F9C295"/>
<path d="M23.1151 12.0874H21.6172V9.10547H23.1151C23.9385 9.10547 24.6061 9.77297 24.6061 10.5965C24.606 11.4198 23.9385 12.0874 23.1151 12.0874Z" fill="#F9C295"/>
<path d="M18.1391 18.828H13.4011C12.5502 18.828 11.7416 18.7739 11.011 19.0984C8.94711 20.0152 7.50781 22.083 7.50781 24.4869V31.7445H24.0324V24.4869C24.0324 22.0799 22.5895 20.01 20.5215 19.0949C19.793 18.7727 18.987 18.828 18.1391 18.828Z" fill="#656D88"/>
<path d="M18.1393 18.828H17.1462C18.2981 18.828 19.3649 18.9957 20.2375 19.6796C21.6001 20.7476 22.4891 22.5027 22.4891 24.487V31.7446H24.0326V24.487C24.0326 22.08 22.5898 20.0101 20.5217 19.095C19.7932 18.7727 18.9872 18.828 18.1393 18.828Z" fill="#444966"/>
<path d="M15.7701 1.5993C12.2552 1.5993 9.40576 4.44876 9.40576 7.96368V11.032C9.40576 14.547 12.2552 17.3964 15.7701 17.3964C19.2851 17.3964 22.1345 14.547 22.1345 11.032V7.96368C22.1345 4.44876 19.2851 1.5993 15.7701 1.5993Z" fill="#F9C295"/>
<path d="M15.7703 1.5993C15.5895 1.5993 15.4111 1.60868 15.2341 1.62344C17.9907 1.89594 20.1566 4.62946 20.1566 7.96368V11.032C20.1566 14.3663 17.9907 17.0998 15.2341 17.3723C15.4111 17.387 15.5895 17.3964 15.7703 17.3964C19.2852 17.3964 22.1347 14.547 22.1347 11.032V7.96368C22.1347 4.44876 19.2852 1.5993 15.7703 1.5993Z" fill="#E59F6A"/>
<path d="M16.605 0H14.9352C11.8814 0 9.40576 2.47563 9.40576 5.52945V7.935H9.8092C10.8437 7.935 11.7557 7.25625 12.0526 6.26531L12.3399 5.30672L12.8626 5.82937C14.2108 7.17758 16.0394 7.935 17.946 7.935H22.1344V5.52953C22.1345 2.47563 19.6589 0 16.605 0Z" fill="#444966"/>
<path d="M16.6051 0H15.5339C18.1334 0 20.2407 2.47563 20.2407 5.52945V7.935H22.1346V5.52945C22.1346 2.47563 19.659 0 16.6051 0Z" fill="#2E344C"/>
<path d="M15.7703 28.5629L20.5288 19.0998C19.7982 18.7753 18.9902 18.5936 18.1394 18.5936H13.4013C12.5505 18.5936 11.7424 18.7754 11.012 19.0998L15.7703 28.5629Z" fill="#EBEEF2"/>
<path d="M20.5287 19.0998C20.3474 19.0194 20.1614 18.9477 19.9712 18.8854C19.9691 18.8847 19.967 18.884 19.965 18.8833C19.8743 18.8537 19.7825 18.8265 19.6899 18.8012C19.6837 18.7994 19.6774 18.7975 19.6712 18.7958C19.5837 18.7723 19.4951 18.7512 19.406 18.7316C19.3945 18.7291 19.3832 18.7261 19.3717 18.7237C19.2885 18.7058 19.2043 18.6906 19.1198 18.6763C19.1024 18.6734 19.0851 18.6698 19.0676 18.667C18.9886 18.6544 18.9087 18.6444 18.8286 18.6351C18.8058 18.6324 18.7833 18.6288 18.7604 18.6264C18.6822 18.6182 18.6033 18.6126 18.5242 18.6075C18.4997 18.6059 18.4754 18.6032 18.4508 18.6019C18.3488 18.5965 18.2462 18.5938 18.1429 18.5937C18.1416 18.5937 18.1405 18.5937 18.1393 18.5937H17.1462C18.2981 18.5937 19.364 18.9971 20.2366 19.681L20.5287 19.0998Z" fill="#D1D6DE"/>
<path d="M15.0061 20.5193L14.2935 25.6263L15.7702 28.5629L17.2468 25.6263L16.5343 20.5193C17.3002 20.2151 17.842 19.4678 17.842 18.5936H13.6982C13.6983 19.4679 14.2401 20.2152 15.0061 20.5193Z" fill="#ED5575"/>
<path d="M17.0783 13.2353H15.7702C15.4463 13.2353 15.1838 12.9727 15.1838 12.6489V10.1998C15.1838 9.87593 15.4463 9.61343 15.7702 9.61343C16.0942 9.61343 16.3567 9.87601 16.3567 10.1998V12.0625H17.0782C17.4021 12.0625 17.6646 12.3251 17.6646 12.6489C17.6646 12.9727 17.4022 13.2353 17.0783 13.2353Z" fill="#E59F6A"/>
<path d="M10.3711 15.802C9.80168 14.8158 8.5359 14.4769 7.54997 15.0461L5.90645 15.995C4.92028 16.5644 4.58114 17.83 5.15059 18.8162C5.5327 19.478 6.22825 19.8483 6.94262 19.8483C7.2927 19.8483 7.64731 19.7594 7.97168 19.5721L9.6152 18.6232C10.6014 18.0538 10.9404 16.7883 10.3711 15.802Z" fill="#5C9CEE"/>
<path d="M3.13328 25.6179C2.80938 25.6179 2.54688 25.3553 2.54688 25.0315V20.6566C2.54688 20.0309 2.88344 19.448 3.42531 19.1351L5.365 18.0152C5.64531 17.8533 6.00414 17.9494 6.16609 18.2298C6.32805 18.5103 6.23195 18.869 5.95148 19.0309L4.01172 20.1508C3.83156 20.2548 3.71969 20.4485 3.71969 20.6565V25.0314C3.71969 25.3553 3.45719 25.6179 3.13328 25.6179Z" fill="#1B3D66"/>
<path d="M0 25.7935V27.9316C0 28.2309 0.242578 28.4734 0.541797 28.4734H30.9986C31.2978 28.4734 31.5404 28.2309 31.5404 27.9316V25.7935C31.5404 25.4943 31.2978 25.2517 30.9986 25.2517H0.541797C0.242578 25.2517 0 25.4943 0 25.7935Z" fill="#E8AE6A"/>
<path d="M30.999 25.2517H29.2253C29.5246 25.2517 29.7671 25.4943 29.7671 25.7935V27.9316C29.7671 28.2309 29.5246 28.4734 29.2253 28.4734H30.999C31.2982 28.4734 31.5408 28.2309 31.5408 27.9316V25.7935C31.5408 25.4943 31.2982 25.2517 30.999 25.2517Z" fill="#D39053"/>
<path d="M2.78516 28.4734V31.0333C2.78516 31.3792 3.06555 31.6596 3.41148 31.6596H3.49328C5.38664 31.6596 6.92148 33.1945 6.92148 35.0878V40H24.6195V35.0878C24.6195 33.1945 26.1544 31.6596 28.0477 31.6596H28.1295C28.4755 31.6596 28.7559 31.3792 28.7559 31.0333V28.4734H2.78516Z" fill="#D39053"/>
<path d="M28.7562 28.4734H2.78516V30.176H28.7562V28.4734Z" fill="#AF713E"/>
<path d="M26.6345 28.4734V31.0333C26.6345 31.3792 26.3943 31.6596 26.0982 31.6596H26.0281C24.4068 31.6596 23.0925 33.1945 23.0925 35.0878V40H24.6192V35.0878C24.6192 33.1945 26.154 31.6596 28.0474 31.6596H28.1292C28.4751 31.6596 28.7555 31.3792 28.7555 31.0333V28.4734H26.6345Z" fill="#AF713E"/>
<path d="M19.4226 35.3293C19.0987 35.3293 18.8362 35.5919 18.8362 35.9157V40H20.0091V35.9157C20.0091 35.5918 19.7465 35.3293 19.4226 35.3293Z" fill="#AF713E"/>
<path d="M15.7702 33.5148C15.4463 33.5148 15.1838 33.7773 15.1838 34.1012V40H16.3567V34.1012C16.3566 33.7773 16.0942 33.5148 15.7702 33.5148Z" fill="#AF713E"/>
<path d="M12.1181 35.3293C11.7942 35.3293 11.5317 35.5919 11.5317 35.9157V40H12.7046V35.9157C12.7046 35.5918 12.4421 35.3293 12.1181 35.3293Z" fill="#AF713E"/>
</svg>
