<svg width="16" height="20" viewBox="0 0 16 20" fill="none" xmlns="http://www.w3.org/2000/svg">
<path d="M13.2496 3.3703L10.0478 0.168483C10.0056 0.126313 9.96356 0.105301 9.92139 0.0842896V3.49667H13.3338C13.3128 3.4545 13.2706 3.41233 13.2496 3.37031L13.2496 3.3703Z" fill="#7B2C82"/>
<path d="M13.418 12.0277V4.69734H9.31043C8.97337 4.69734 8.72063 4.42346 8.72063 4.10754V0H0.589801C0.252738 0 0 0.273881 0 0.589801V16.6408C0 16.9779 0.273882 17.2306 0.589801 17.2306H7.94125C8.51002 18.8315 10.0477 19.99 11.8381 19.99C14.1131 19.99 15.9878 18.1363 15.9878 15.8403C15.9877 14.1343 14.9133 12.6597 13.4178 12.0277L13.418 12.0277ZM3.3071 3.49668H6.23504C6.5721 3.49668 6.82484 3.77056 6.82484 4.08648C6.82484 4.42354 6.55096 4.67628 6.23504 4.67628H3.3071C2.97003 4.67628 2.7173 4.4024 2.7173 4.08648C2.7173 3.77043 2.99118 3.49668 3.3071 3.49668ZM3.3071 6.69834H10.0898C10.4269 6.69834 10.6796 6.97222 10.6796 7.28814C10.6796 7.6252 10.4057 7.87794 10.0898 7.87794L3.3071 7.87809C2.97003 7.87809 2.7173 7.60421 2.7173 7.28829C2.7173 6.97224 2.99118 6.69834 3.3071 6.69834V6.69834ZM3.3071 9.90015H10.0898C10.4269 9.90015 10.6796 10.174 10.6796 10.49C10.6796 10.8059 10.4057 11.0798 10.0898 11.0798H3.3071C2.97003 11.0798 2.7173 10.8059 2.7173 10.49C2.7173 10.174 2.99118 9.90015 3.3071 9.90015ZM6.97233 14.2815H3.3071C2.97003 14.2815 2.7173 14.0077 2.7173 13.6917C2.7173 13.3758 2.99118 13.1019 3.3071 13.1019H6.97233C7.30939 13.1019 7.56213 13.3758 7.56213 13.6917C7.56213 14.0077 7.30925 14.2815 6.97233 14.2815ZM11.8382 18.8104C10.2162 18.8104 8.88926 17.4833 8.88926 15.8614C8.88926 14.2394 10.2163 12.9125 11.8382 12.9125C13.4602 12.9125 14.7871 14.2396 14.7871 15.8614C14.7871 17.4834 13.4602 18.8104 11.8382 18.8104Z" fill="#7B2C82"/>
<path d="M12.6385 14.7028L11.3535 15.9878L10.9323 15.5665C10.7006 15.3348 10.3215 15.3348 10.0898 15.5665C9.85809 15.7982 9.85808 16.1773 10.0898 16.409L10.9535 17.2727C11.0798 17.399 11.2274 17.4412 11.3747 17.4412C11.5222 17.4412 11.6906 17.378 11.796 17.2727L13.5233 15.5453C13.755 15.3136 13.755 14.9345 13.5233 14.7028C13.2493 14.4711 12.8702 14.4711 12.6385 14.7028H12.6385Z" fill="#7B2C82"/>
</svg>
