<svg width="23" height="19" viewBox="0 0 23 19" fill="none" xmlns="http://www.w3.org/2000/svg">
<path d="M1.13147 2.47524H20.7381C21.1634 2.47524 21.5526 2.62911 21.8693 2.89157C21.8693 2.20839 21.3626 1.65174 20.7381 1.65174H1.13147C0.923315 1.65174 0.755869 1.46615 0.755869 1.24001C0.755869 1.0137 0.923311 0.828286 1.13147 0.828286H20.7381C21.5888 0.837282 21.8693 1.15402 21.8693 1.24001C21.8693 0.556832 21.3626 0.000185839 20.7381 0.000185839L1.13147 2.8022e-05C0.506995 -0.00454861 0.000244141 0.552068 0.000244141 1.23525C0.000244141 1.91859 0.506995 2.4752 1.13147 2.4752V2.47524Z" fill="#7B2C82"/>
<path d="M15.8373 12.3892V9.90963C15.8373 9.00012 16.5161 8.25807 17.3442 8.25807H21.8691V4.53867C21.8691 3.85549 21.3623 3.29885 20.7379 3.29885L1.13123 3.29869C0.705928 3.29869 0.316744 3.14482 0 2.88235V17.7556C0 18.4433 0.50675 19 1.13123 19H20.7379C21.3623 19 21.8691 18.4434 21.8691 17.7602V14.0408H17.3442C16.5161 14.0408 15.8373 13.3031 15.8373 12.389V12.3892Z" fill="#7B2C82"/>
<path d="M22.2488 9.08612H22.2398H17.344C16.9277 9.08612 16.5884 9.45715 16.5884 9.91418V12.3938C16.5884 12.8508 16.9277 13.2219 17.344 13.2219H22.2446C22.4528 13.2219 22.6203 13.0363 22.6203 12.8101L22.6201 9.49789C22.6247 9.27158 22.4572 9.08616 22.2491 9.08616L22.2488 9.08612ZM19.6063 12.4255C18.9004 12.4255 18.3302 11.8553 18.3302 11.154C18.3302 10.4526 18.9004 9.88243 19.6063 9.88243C20.3123 9.88243 20.8824 10.4526 20.8824 11.154C20.8823 11.8553 20.3123 12.4255 19.6063 12.4255Z" fill="#7B2C82"/>
</svg>
