<svg width="41" height="40" viewBox="0 0 41 40" fill="none" xmlns="http://www.w3.org/2000/svg">
<path d="M27.9321 26.4407L31.322 23.4576L30.0338 20.9492C29.0847 18.1695 26.5084 16.339 23.5931 16.339H22.3728H18.305H17.0847C14.1694 16.339 11.5932 18.2373 10.644 20.9492L9.49146 23.1186L12.7457 26.3729L13.627 25.2203C13.6948 27.2542 13.627 29.2203 13.3559 31.1864H27.2542C26.983 29.2203 26.9152 27.1864 26.983 25.2203L27.9321 26.4407Z" fill="#F58661"/>
<path d="M26.4406 5.55933V6.10171C27.9322 6.10171 29.1525 4.88137 29.1525 3.38984C29.1525 1.89832 27.9322 0.677979 26.4406 0.677979C25.6271 0.677979 24.8813 1.01696 24.4067 1.62713C25.6271 2.50849 26.4406 3.93222 26.4406 5.55933Z" fill="#754822"/>
<path d="M11.7289 39.2542L12.1356 40H20.339H25.7628L20.339 35.9322L12.2034 34.4407L12 34.7119C10.9831 36.0678 10.9153 37.8305 11.7289 39.2542Z" fill="#F7BE99"/>
<path d="M29.2202 40L29.7626 39.0508C30.644 37.5593 30.4406 35.5932 29.3558 34.3051L20.3389 35.9322L25.7626 40H29.2202Z" fill="#F0AE84"/>
<path d="M29.7628 39.0508L29.2205 40H35.5933C36.6103 39.8644 37.3561 36.2712 37.3561 35.2542C37.3561 34.0339 36.2713 33.0847 35.051 33.2881L29.3561 34.3051C30.4408 35.5932 30.5764 37.4915 29.7628 39.0508Z" fill="#F5BB4F"/>
<path d="M3.38989 35.2542C3.38989 36.2712 4.13566 39.8644 5.1526 40H12.1357L11.7289 39.2542C10.9153 37.8305 11.0509 36.0678 12.0001 34.7797L12.2035 34.5085L5.69498 33.2203C4.47464 33.0848 3.38989 34.0339 3.38989 35.2542Z" fill="#F5BB4F"/>
<path d="M38.7118 31.0508L37.8982 30.983L38.3728 30.2373C38.5084 30.0339 38.5762 29.6949 38.4406 29.4915C38.2372 29.0169 37.5592 28.9491 37.2203 29.2881L35.7287 30.7797C34.5762 30.6441 33.5592 27.9322 33.0847 26.9153L31.322 23.5254L27.9321 26.5085L29.8304 29.0847C31.1186 30.8475 33.2203 33.9661 35.3898 33.9661H38.5762C39.3898 33.9661 39.9999 33.3559 39.9999 32.5424C39.9999 31.7288 39.4575 31.1186 38.7118 31.0508Z" fill="#F7BE99"/>
<path d="M4.94916 30.7119L3.45764 29.2203C3.11866 28.8814 2.44069 28.9492 2.2373 29.4237C2.10171 29.6949 2.10171 29.9661 2.3051 30.1695L2.77967 30.9153L1.96611 30.9831C1.22035 31.0509 0.677979 31.661 0.677979 32.4068C0.677979 33.2881 1.28815 33.8983 2.10171 33.8983H5.28815C7.52543 33.8983 9.55933 30.7797 10.8475 29.017L12.7458 26.3729L9.49154 23.1187L7.59323 26.8475C7.11866 27.8644 6.10171 30.5763 4.94916 30.7119Z" fill="#F7BE99"/>
<path d="M12.7458 34.5085L20.3391 35.9322L27.9323 34.5763C27.6611 33.4915 27.4577 32.339 27.3221 31.2542H13.356C13.2204 32.339 13.017 33.4237 12.7458 34.5085Z" fill="#F5BB4F"/>
<path d="M10.644 22.2373C11.5932 19.4576 14.1694 17.6271 17.0847 17.6271H18.305H22.3728H23.5931C26.5084 17.6271 29.0847 19.5254 30.0338 22.2373L30.8474 23.8644L31.322 23.4576L30.0338 20.9492C29.0847 18.1695 26.5084 16.339 23.5931 16.339H22.3728H18.305H17.0847C14.1694 16.339 11.5932 18.2373 10.644 20.9492L9.49146 23.1186L9.96603 23.5932L10.644 22.2373Z" fill="#F59473"/>
<path d="M18.3052 14.1695V17.6271C18.3052 18.7797 19.1865 19.661 20.3391 19.661C21.4916 19.661 22.373 18.7797 22.373 17.6271V14.1695H18.3052Z" fill="#F0AE84"/>
<path d="M22.1695 15.4576L23.661 14.2373C25.4237 12.8136 26.4407 10.3729 26.4407 8.13561V7.45764H21.017C19.1187 7.45764 17.6271 5.96611 17.6271 4.06781C17.6271 5.96611 16.1356 7.45764 14.2373 7.45764V8.13561C14.2373 10.3729 15.2543 12.8136 17.017 14.2373L18.3051 15.322L18.5085 15.4576C19.5932 16.339 21.0848 16.339 22.1695 15.4576Z" fill="#F7BE99"/>
<path d="M27.9321 34.5085C27.7965 33.8305 27.6609 33.2203 27.5253 32.5424L20.4745 34.2373L13.2203 32.678C13.0847 33.2881 13.0169 33.8983 12.8135 34.5085L20.3389 35.9322L27.9321 34.5085Z" fill="#E6AC40"/>
<path d="M20.3392 27.1186L17.8307 25.1525C17.2883 24.7457 17.2205 24 17.5595 23.4576C17.9663 22.8474 18.712 22.7118 19.3222 23.1186L20.2714 23.7966L21.2205 23.1186C21.8307 22.7118 22.5764 22.9152 22.9832 23.4576C23.3222 24 23.2544 24.7457 22.712 25.1525L20.3392 27.1186Z" fill="white"/>
<path d="M17.6272 5.42374C17.6272 7.32204 19.1187 8.81357 21.017 8.81357H26.4408V6.10171V5.55933C26.4408 3.93221 25.6272 2.50849 24.4069 1.55933C23.5933 1.01696 22.5764 0.677979 21.5594 0.677979H19.1865C16.4747 0.677979 14.3052 2.84747 14.3052 5.55933V8.81357C16.1357 8.81357 17.6272 7.32204 17.6272 5.42374Z" fill="#754822"/>
<path d="M35.2541 1.35593H33.8982V2.71186H35.2541V1.35593Z" fill="#F58661"/>
<path d="M37.966 9.49152H36.6101V10.8474H37.966V9.49152Z" fill="#F58661"/>
<path d="M40.678 9.49152H39.322V10.8474H40.678V9.49152Z" fill="#F58661"/>
<path d="M39.322 8.13559H37.9661V9.49152H39.322V8.13559Z" fill="#F58661"/>
<path d="M39.322 10.8474H37.9661V12.2034H39.322V10.8474Z" fill="#F58661"/>
<path d="M8.13547 14.2373H6.77954V15.5932H8.13547V14.2373Z" fill="#F58661"/>
<path d="M6.77976 12.8813H5.42383V14.2373H6.77976V12.8813Z" fill="#F58661"/>
<path d="M5.4238 14.2373H4.06787V15.5932H5.4238V14.2373Z" fill="#F58661"/>
<path d="M6.77976 15.5932H5.42383V16.9492H6.77976V15.5932Z" fill="#F58661"/>
<path d="M1.35593 4.06781H0V5.42374H1.35593V4.06781Z" fill="#F58661"/>
<path d="M4.06785 4.06781H2.71191V5.42374H4.06785V4.06781Z" fill="#F58661"/>
<path d="M2.71189 2.71185H1.35596V4.06779H2.71189V2.71185Z" fill="#F58661"/>
<path d="M2.71189 5.42374H1.35596V6.77967H2.71189V5.42374Z" fill="#F58661"/>
<path d="M10.1694 0H8.81348V1.35593H10.1694V0Z" fill="#F58661"/>
<path d="M35.9321 16.9492H34.5762V18.3051H35.9321V16.9492Z" fill="#F58661"/>
</svg>
